SplineFontDB: 3.0
FontName: Classica-Bold
FullName: Classica Bold
FamilyName: Classica
Weight: Bold
Copyright: Copyright (c) 2020-2024 by Wojciech Kalinowski "wmk69" with Reserved Font Name "Classica-Bold".\nThis Font Software is licensed under the SIL Open Font License, Version 1.1.
Version: 2.1.1; 2021-05-14
ItalicAngle: 0
UnderlinePosition: -80
UnderlineWidth: 320
Ascent: 1638
Descent: 410
InvalidEm: 0
LayerCount: 2
Layer: 0 1 "Warstwa t+AUIA-a" 1
Layer: 1 1 "Plan pierwszy" 0
XUID: [1021 783 23647091 2952791]
StyleMap: 0x0020
FSType: 0
OS2Version: 3
OS2_WeightWidthSlopeOnly: 0
OS2_UseTypoMetrics: 1
CreationTime: 1260698820
ModificationTime: 1620982884
PfmFamily: 17
TTFWeight: 700
TTFWidth: 5
LineGap: 300
VLineGap: 0
Panose: 2 14 8 2 7 5 4 6 5 4
OS2TypoAscent: 2000
OS2TypoAOffset: 0
OS2TypoDescent: -500
OS2TypoDOffset: 0
OS2TypoLinegap: 300
OS2WinAscent: 2000
OS2WinAOffset: 0
OS2WinDescent: 500
OS2WinDOffset: 0
HheadAscent: 2000
HheadAOffset: 0
HheadDescent: -500
HheadDOffset: 0
OS2SubXSize: 1434
OS2SubYSize: 1331
OS2SubXOff: 0
OS2SubYOff: 287
OS2SupXSize: 1434
OS2SupYSize: 1331
OS2SupXOff: 0
OS2SupYOff: 977
OS2StrikeYSize: 102
OS2StrikeYPos: 512
OS2CapHeight: 1510
OS2XHeight: 1100
OS2Vendor: '    '
OS2CodePages: 20000093.00000000
OS2UnicodeRanges: 8000002f.4000204b.00000000.00000000
Lookup: 258 0 0 "'kern' Horizontal Kerning lookup 0" { "'kern' Horizontal Kerning lookup 0-1 subtable" [307,0,6] } ['kern' ('DFLT' <'dflt' > 'grek' <'dflt' > 'latn' <'dflt' > ) ]
MarkAttachClasses: 1
DEI: 91125
KernClass2: 61 47 "'kern' Horizontal Kerning lookup 0-1 subtable"
 252 H I J M N U Igrave Iacute Icircumflex Idieresis Ntilde Ugrave Uacute Ucircumflex Udieresis Hcircumflex Hbar Itilde Imacron Ibreve Iogonek Idotaccent IJ Jcircumflex Nacute Ncommaaccent Ncaron Utilde Umacron Ubreve Uring Uhungarumlaut Uogonek uni1E40 Eng
 84 A Agrave Aacute Acircumflex Atilde Adieresis Aring Amacron Abreve Aogonek Aringacute

StartChar: .notdef
Encoding: 65536 -1 0
Width: 1034
Flags: W
HStem: 0 118<298 736> 1392 118<298 736>
VStem: 110 188<118 1392> 736 188<118 1392>
LayerCount: 2
Fore
SplineSet
110 0 m 1,0,-1
 110 1510 l 1,1,-1
 924 1510 l 1,2,-1
 924 0 l 1,3,-1
 110 0 l 1,0,-1
298 118 m 1,4,-1
 736 118 l 1,5,-1
 736 1392 l 1,6,-1
 298 1392 l 1,7,-1
 298 118 l 1,4,-1
EndSplineSet
Validated: 1
EndChar

StartChar: exclam
Encoding: 33 33 4
Width: 744
GlyphClass: 2
Flags: W
HStem: -19 370<252.14 489.86> 1490 20G<165 579>
VStem: 189 364<43.5779 288.422> 205 334<665.232 1505.44> 225 294<450 994.768>
LayerCount: 2
Fore
SplineSet
165 1510 m 1,0,-1
 579 1510 l 1,1,2
 543 1364 543 1364 539 1210 c 2,3,-1
 519 450 l 1,4,-1
 225 450 l 1,5,-1
 205 1210 l 2,6,7
 201 1364 201 1364 165 1510 c 1,0,-1
371 -19 m 128,-1,9
 295 -19 295 -19 242 35 c 128,-1,10
 189 89 189 89 189 166 c 128,-1,11
 189 243 189 243 242 297 c 128,-1,12
 295 351 295 351 371 351 c 128,-1,13
 447 351 447 351 500 297 c 128,-1,14
 553 243 553 243 553 166 c 128,-1,15
 553 89 553 89 500 35 c 128,-1,8
 447 -19 447 -19 371 -19 c 128,-1,9
EndSplineSet
Validated: 1
EndChar

StartChar: quotedbl
Encoding: 34 34 5
Width: 643
GlyphClass: 2
Flags: W
HStem: 1120 410<50 265 378 593>
VStem: 50 215<1120 1525.29> 378 215<1120 1525.29>
LayerCount: 2
Fore
SplineSet
348 1530 m 1,0,-1
 623 1530 l 1,1,2
 593 1380 593 1380 593 1120 c 9,3,-1
 378 1120 l 1,4,5
 378 1380 378 1380 348 1530 c 1,0,-1
20 1530 m 1,6,-1
 295 1530 l 1,7,8
 265 1380 265 1380 265 1120 c 9,9,-1
 50 1120 l 1,10,11
 50 1380 50 1380 20 1530 c 1,6,-1
EndSplineSet
Validated: 1
EndChar

StartChar: numbersign
Encoding: 35 35 6
Width: 1278
GlyphClass: 2
Flags: W
HStem: 483 191<566 711> 822 191<566 711>
VStem: 373 191<675 820> 712 191<675 820>
LayerCount: 2
Fore
SplineSet
345 1226 m 1,0,-1
 594 1226 l 1,1,2
 572 1120 572 1120 566 1013 c 1,3,-1
 711 1013 l 1,4,5
 705 1118 705 1118 684 1226 c 1,6,-1
 933 1226 l 1,7,8
 911 1120 911 1120 905 1014 c 1,9,10
 1010 1020 1010 1020 1118 1041 c 1,11,-1
 1118 792 l 1,12,13
 1011 814 1011 814 904 820 c 1,14,-1
 903 675 l 1,15,16
 1009 681 1009 681 1118 702 c 1,17,-1
 1118 453 l 1,18,19
 1011 475 1011 475 905 481 c 1,20,21
 912 375 912 375 933 268 c 1,22,-1
 684 268 l 1,23,24
 705 376 705 376 711 482 c 1,25,-1
 566 483 l 1,26,27
 573 376 573 376 594 268 c 1,28,-1
 345 268 l 1,29,30
 366 375 366 375 372 481 c 1,31,32
 266 474 266 474 160 453 c 1,33,-1
 160 702 l 1,34,35
 267 681 267 681 373 675 c 1,36,-1
 373 820 l 1,37,38
 267 813 267 813 160 792 c 1,39,-1
 160 1041 l 1,40,41
 266 1020 266 1020 372 1014 c 1,42,43
 366 1119 366 1119 345 1226 c 1,0,-1
712 821 m 1,44,-1
 565 822 l 1,45,-1
 564 674 l 1,46,-1
 712 674 l 1,47,-1
 712 821 l 1,44,-1
EndSplineSet
Validated: 1
EndChar

StartChar: dollar
Encoding: 36 36 7
Width: 1110
GlyphClass: 2
Flags: W
HStem: -20 177<291.474 542> 1355 174<642 770.871>
VStem: 143 310<1099.71 1310.68> 542 100<-180 -17 218 609 1055 1342 1525.2 1690> 739 331<278.003 551.249>
LayerCount: 2
Fore
SplineSet
642 -180 m 1,0,-1
 542 -180 l 1,1,-1
 542 -17 l 1,2,3
 505 -20 505 -20 465 -20 c 0,4,5
 249 -20 249 -20 40 105 c 1,6,-1
 40 468 l 1,7,-1
 50 468 l 1,8,9
 97 372 97 372 161 303 c 0,10,11
 295 157 295 157 477 157 c 0,12,13
 511 157 511 157 542 165 c 1,14,-1
 542 683 l 1,15,-1
 393 781 l 2,16,17
 143 946 143 946 143 1158 c 0,18,19
 143 1360 143 1360 307 1457 c 0,20,21
 410 1518 410 1518 542 1528 c 1,22,-1
 542 1690 l 1,23,-1
 642 1690 l 1,24,-1
 642 1529 l 1,25,26
 782 1520 782 1520 919 1459 c 1,27,-1
 919 1160 l 1,28,-1
 909 1160 l 1,29,30
 800 1342 800 1342 642 1355 c 1,31,-1
 642 984 l 1,32,-1
 766 903 l 2,33,34
 1070 704 1070 704 1070 462 c 0,35,36
 1070 260 1070 260 919 128 c 0,37,38
 807 29 807 29 642 -4 c 1,39,-1
 642 -180 l 1,0,-1
542 1055 m 1,40,-1
 542 1342 l 1,41,42
 529 1336 529 1336 517 1328 c 0,43,44
 453 1283 453 1283 453 1207 c 128,-1,45
 453 1131 453 1131 542 1055 c 1,40,-1
642 609 m 1,46,-1
 642 218 l 1,47,48
 653 228 653 228 664 239 c 0,49,50
 739 320 739 320 739 429 c 0,51,52
 739 522 739 522 642 609 c 1,46,-1
EndSplineSet
Validated: 1
EndChar

StartChar: percent
Encoding: 37 37 8
Width: 1745
GlyphClass: 2
Flags: W
HStem: -20 160<1175.97 1371.07> 0 21G<382 684> 530 160<1174.6 1370.46> 820 160<372.973 568.073> 1370 160<371.604 567.463> 1490 20G<1061.5 1362>
VStem: 110 207<1037.09 1313.97> 623 209<1036.54 1313.78> 913 207<197.823 473.967> 1426 209<196.541 473.778>
DStem2: 980 1225 1208 1251 0.417626 0.908619<-1240.11 296.034>
LayerCount: 2
Fore
SplineSet
1274 -20 m 0,0,1
 1116 -20 1116 -20 1021 75 c 0,2,3
 913 183 913 183 913 335 c 0,4,5
 913 492 913 492 1021 596 c 0,6,7
 1122 690 1122 690 1274 690 c 0,8,9
 1429 690 1429 690 1527 596 c 0,10,11
 1635 491 1635 491 1635 335 c 128,-1,12
 1635 179 1635 179 1527 74 c 0,13,14
 1430 -20 1430 -20 1274 -20 c 0,0,1
1273 140 m 0,15,16
 1338 140 1338 140 1382 195.5 c 128,-1,17
 1426 251 1426 251 1426 336 c 0,18,19
 1426 424 1426 424 1382 475 c 0,20,21
 1334 530 1334 530 1273 530 c 0,22,23
 1207 530 1207 530 1164 475 c 0,24,25
 1120 420 1120 420 1120 336 c 0,26,27
 1120 246 1120 246 1164 196 c 0,28,29
 1213 140 1213 140 1273 140 c 0,15,16
471 1530 m 0,30,31
 626 1530 626 1530 724 1436 c 0,32,33
 832 1331 832 1331 832 1175 c 128,-1,34
 832 1019 832 1019 724 914 c 0,35,36
 627 820 627 820 471 820 c 0,37,38
 313 820 313 820 218 915 c 0,39,40
 110 1020 110 1020 110 1175 c 0,41,42
 110 1332 110 1332 218 1436 c 0,43,44
 319 1530 319 1530 471 1530 c 0,30,31
470 1370 m 0,45,46
 404 1370 404 1370 361 1315 c 0,47,48
 317 1260 317 1260 317 1176 c 0,49,50
 317 1087 317 1087 361 1036 c 0,51,52
 410 980 410 980 470 980 c 0,53,54
 535 980 535 980 579 1035.5 c 128,-1,55
 623 1091 623 1091 623 1176 c 0,56,57
 623 1264 623 1264 579 1315 c 0,58,59
 531 1370 531 1370 470 1370 c 0,45,46
382 0 m 1,60,61
 472 120 472 120 536 259 c 10,62,-1
 980 1225 l 2,63,64
 1043 1362 1043 1362 1080 1510 c 1,65,-1
 1362 1510 l 1,66,67
 1275 1397 1275 1397 1208 1251 c 2,68,-1
 764 285 l 2,69,70
 704 155 704 155 664 0 c 1,71,-1
 382 0 l 1,60,61
EndSplineSet
Validated: 1
EndChar

StartChar: quotesingle
Encoding: 39 39 9
Width: 315
GlyphClass: 2
Flags: W
HStem: 1120 410<50 265>
VStem: 50 215<1120 1525.29>
LayerCount: 2
Fore
SplineSet
20 1530 m 1,0,-1
 295 1530 l 1,1,2
 265 1380 265 1380 265 1120 c 9,3,-1
 50 1120 l 1,4,5
 50 1380 50 1380 20 1530 c 1,0,-1
EndSplineSet
Validated: 1
EndChar

StartChar: parenleft
Encoding: 40 40 10
Width: 847
GlyphClass: 2
Flags: W
VStem: 160 320<375.126 1134.87>
LayerCount: 2
Fore
SplineSet
490 1760 m 1,0,-1
 737 1760 l 1,1,2
 480 1340 480 1340 480 755 c 128,-1,3
 480 170 480 170 737 -250 c 1,4,-1
 490 -250 l 1,5,6
 160 218 160 218 160 755 c 128,-1,7
 160 1292 160 1292 490 1760 c 1,0,-1
EndSplineSet
Validated: 1
EndChar

StartChar: parenright
Encoding: 41 41 11
Width: 847
GlyphClass: 2
Flags: W
VStem: 367 320<375.126 1134.87>
LayerCount: 2
Fore
SplineSet
357 1760 m 1,0,1
 687 1292 687 1292 687 755 c 128,-1,2
 687 218 687 218 357 -250 c 1,3,-1
 110 -250 l 1,4,5
 367 170 367 170 367 755 c 128,-1,6
 367 1340 367 1340 110 1760 c 1,7,-1
 357 1760 l 1,0,1
EndSplineSet
Validated: 1
EndChar

StartChar: asterisk
Encoding: 42 42 12
Width: 1066
GlyphClass: 2
Flags: W
HStem: 1490 20G<409 657>
VStem: 438 190<680.814 929 1258 1506.03>
LayerCount: 2
Fore
SplineSet
409 1510 m 1,0,-1
 657 1510 l 1,1,2
 633 1384 633 1384 628 1258 c 1,3,4
 734 1324 734 1324 832 1409 c 1,5,-1
 956 1194 l 1,6,7
 834 1152 834 1152 723 1094 c 1,8,9
 833 1035 833 1035 956 993 c 1,10,-1
 832 778 l 1,11,12
 735 862 735 862 628 929 c 1,13,14
 632 799 632 799 657 677 c 1,15,-1
 409 677 l 1,16,17
 434 799 434 799 438 929 c 1,18,19
 328 860 328 860 234 778 c 1,20,-1
 110 993 l 1,21,22
 228 1033 228 1033 343 1094 c 1,23,24
 228 1155 228 1155 110 1194 c 1,25,-1
 234 1409 l 1,26,27
 328 1327 328 1327 438 1258 c 1,28,29
 433 1383 433 1383 409 1510 c 1,0,-1
EndSplineSet
Validated: 1
EndChar

StartChar: plus
Encoding: 43 43 13
Width: 1173
GlyphClass: 2
Flags: W
HStem: 642 204<114.688 484 688 1058.25>
VStem: 484 204<272.749 642 846 1215.31>
LayerCount: 2
Fore
SplineSet
110 876 m 1,0,1
 260 846 260 846 410 846 c 2,2,-1
 484 846 l 1,3,-1
 484 920 l 2,4,5
 484 1070 484 1070 454 1220 c 1,6,-1
 718 1220 l 1,7,8
 688 1070 688 1070 688 920 c 2,9,-1
 688 846 l 1,10,-1
 763 846 l 2,11,12
 911 846 911 846 1063 876 c 1,13,-1
 1063 612 l 1,14,15
 912 642 912 642 763 642 c 2,16,-1
 688 642 l 1,17,-1
 688 568 l 2,18,19
 688 420 688 420 718 268 c 1,20,-1
 454 268 l 1,21,22
 484 418 484 418 484 568 c 2,23,-1
 484 642 l 1,24,-1
 410 642 l 2,25,26
 260 642 260 642 110 612 c 1,27,-1
 110 876 l 1,0,1
EndSplineSet
Validated: 1
EndChar

StartChar: comma
Encoding: 44 44 14
Width: 378
GlyphClass: 2
Flags: W
HStem: -312 621
VStem: 127 231<-90.8302 161.004>
LayerCount: 2
Fore
SplineSet
204 309 m 1,0,1
 358 230 358 230 358 71 c 0,2,3
 358 -172 358 -172 20 -312 c 1,4,-1
 20 -302 l 1,5,6
 127 -182 127 -182 127 -24 c 0,7,8
 127 95 127 95 35 140 c 1,9,-1
 204 309 l 1,0,1
EndSplineSet
Validated: 1
EndChar

StartChar: hyphen
Encoding: 45 45 15
Width: 1173
GlyphClass: 2
Flags: W
HStem: 642 204<114.688 1058.25>
LayerCount: 2
Fore
SplineSet
110 876 m 1,0,1
 260 846 260 846 410 846 c 2,2,-1
 763 846 l 2,3,4
 911 846 911 846 1063 876 c 1,5,-1
 1063 612 l 1,6,7
 912 642 912 642 763 642 c 2,8,-1
 410 642 l 2,9,10
 260 642 260 642 110 612 c 1,11,-1
 110 876 l 1,0,1
EndSplineSet
Validated: 1
EndChar

StartChar: period
Encoding: 46 46 16
Width: 404
GlyphClass: 2
Flags: W
HStem: -20 370<83.1396 320.86>
VStem: 20 364<42.5779 287.422>
LayerCount: 2
Fore
SplineSet
202 -20 m 128,-1,1
 126 -20 126 -20 73 34 c 128,-1,2
 20 88 20 88 20 165 c 128,-1,3
 20 242 20 242 73 296 c 128,-1,4
 126 350 126 350 202 350 c 128,-1,5
 278 350 278 350 331 296 c 128,-1,6
 384 242 384 242 384 165 c 128,-1,7
 384 88 384 88 331 34 c 128,-1,0
 278 -20 278 -20 202 -20 c 128,-1,1
EndSplineSet
Validated: 1
EndChar

StartChar: slash
Encoding: 47 47 17
Width: 1246
GlyphClass: 2
Flags: W
DStem2: 774 1405 1082 1431 0.417928 0.90848<-1602.82 296.024>
LayerCount: 2
Fore
SplineSet
10 -180 m 1,0,1
 108 -42 108 -42 164 79 c 10,2,-1
 774 1405 l 2,3,4
 837 1542 837 1542 874 1690 c 1,5,-1
 1236 1690 l 1,6,7
 1143 1563 1143 1563 1082 1431 c 2,8,-1
 472 105 l 2,9,10
 415 -19 415 -19 372 -180 c 1,11,-1
 10 -180 l 1,0,1
EndSplineSet
Validated: 1
EndChar

StartChar: zero
Encoding: 48 48 18
Width: 1462
GlyphClass: 2
Flags: W
HStem: -20 174<608.279 853.388> 1356 174<608.323 853.677>
VStem: 110 339<446.737 1063.02> 1013 339<446.493 1063.51>
LayerCount: 2
Fore
SplineSet
731 -20 m 128,-1,1
 482 -20 482 -20 305 177 c 0,2,3
 110 395 110 395 110 755 c 128,-1,4
 110 1115 110 1115 305 1333 c 0,5,6
 482 1530 482 1530 731 1530 c 128,-1,7
 980 1530 980 1530 1157 1333 c 0,8,9
 1352 1115 1352 1115 1352 755 c 128,-1,10
 1352 395 1352 395 1157 177 c 0,11,0
 980 -20 980 -20 731 -20 c 128,-1,1
730.5 154 m 128,-1,13
 852 154 852 154 928 288 c 0,14,15
 1013 438 1013 438 1013 755 c 128,-1,16
 1013 1072 1013 1072 928 1222 c 0,17,18
 853 1356 853 1356 731 1356 c 128,-1,19
 609 1356 609 1356 534 1222 c 0,20,21
 449 1070 449 1070 449 755 c 0,22,23
 449 439 449 439 534 288 c 0,24,12
 609 154 609 154 730.5 154 c 128,-1,13
EndSplineSet
Validated: 1
EndChar

StartChar: one
Encoding: 49 49 19
Width: 823
GlyphClass: 2
Flags: W
HStem: 0 21G<282 643> 1530 20G<498.6 628>
VStem: 312 301<4.6875 1245.4>
LayerCount: 2
Fore
SplineSet
282 0 m 1,0,1
 312 150 312 150 312 300 c 2,2,-1
 312 1200 l 2,3,4
 312 1227 312 1227 309 1246 c 1,5,-1
 142 1083 l 1,6,-1
 10 1235 l 1,7,-1
 282 1500 l 1,8,-1
 643 1550 l 1,9,10
 613 1403 613 1403 613 1250 c 2,11,-1
 613 300 l 2,12,13
 613 150 613 150 643 0 c 1,14,-1
 282 0 l 1,0,1
EndSplineSet
Validated: 1
EndChar

StartChar: two
Encoding: 50 50 20
Width: 1294
GlyphClass: 2
Flags: W
HStem: 0 204<417 1179.53> 1355 175<382.394 712.115>
VStem: 824 348<907.796 1238.31>
LayerCount: 2
Fore
SplineSet
80 0 m 1,0,1
 139 364 139 364 607 715 c 0,2,3
 824 878 824 878 824 1084 c 0,4,5
 824 1193 824 1193 753.5 1274 c 128,-1,6
 683 1355 683 1355 552 1355 c 0,7,8
 394 1355 394 1355 296 1234 c 0,9,10
 231 1154 231 1154 173 1043 c 1,11,-1
 163 1043 l 1,12,-1
 163 1404 l 1,13,14
 351 1530 351 1530 611 1530 c 0,15,16
 872 1530 872 1530 1022 1409 c 128,-1,17
 1172 1288 1172 1288 1172 1070 c 0,18,19
 1172 776 1172 776 782 543 c 0,20,21
 501 375 501 375 417 204 c 1,22,-1
 884 204 l 2,23,24
 1041 204 1041 204 1184 242 c 1,25,-1
 1184 0 l 1,26,-1
 80 0 l 1,0,1
EndSplineSet
Validated: 1
EndChar

StartChar: three
Encoding: 51 51 21
Width: 1243
GlyphClass: 2
Flags: W
HStem: -20 174<311.839 658.219> 1336 174<176.533 696>
VStem: 80 10<457.068 467> 798 335<293.534 635.299>
LayerCount: 2
Fore
SplineSet
505 -20 m 0,0,1
 248 -20 248 -20 80 106 c 1,2,-1
 80 467 l 1,3,-1
 90 467 l 1,4,5
 134 360 134 360 189 298 c 0,6,7
 317 154 317 154 483 154 c 0,8,9
 629 154 629 154 711 238 c 0,10,11
 798 328 798 328 798 469 c 0,12,13
 798 613 798 613 702 696 c 0,14,15
 618 769 618 769 426 769 c 1,16,-1
 355 863 l 1,17,-1
 696 1336 l 1,18,-1
 470 1336 l 2,19,20
 317 1336 317 1336 172 1298 c 1,21,-1
 172 1510 l 1,22,-1
 1027 1510 l 1,23,-1
 1065 1336 l 1,24,25
 934 1239 934 1239 852 1125 c 2,26,-1
 703 918 l 1,27,28
 860 899 860 899 971 814 c 0,29,30
 1133 692 1133 692 1133 475 c 0,31,32
 1133 261 1133 261 962 112 c 0,33,34
 811 -20 811 -20 505 -20 c 0,0,1
EndSplineSet
Validated: 1
EndChar

StartChar: five
Encoding: 53 53 22
Width: 1242
GlyphClass: 2
Flags: W
HStem: -20 174<333.391 667.713> 773 174<480.5 675.083> 1336 174<496 1007.68>
VStem: 797 335<291.146 646.818>
LayerCount: 2
Fore
SplineSet
505 -20 m 0,0,1
 258 -20 258 -20 80 106 c 1,2,-1
 80 465 l 1,3,-1
 90 465 l 1,4,5
 129 380 129 380 207 295 c 0,6,7
 336 154 336 154 520 154 c 0,8,9
 635 154 635 154 711 234 c 0,10,11
 797 325 797 325 797 469 c 0,12,13
 797 611 797 611 717 695 c 0,14,15
 643 773 643 773 529 773 c 0,16,17
 427 773 427 773 365 731 c 1,18,19
 129 890 l 1,20,-1
 259 1510 l 1,21,-1
 1012 1510 l 1,22,-1
 1012 1297 l 1,23,24
 874 1336 874 1336 712 1336 c 2,25,-1
 496 1336 l 1,26,-1
 478 947 l 1,27,28
 547 954 547 954 610 954 c 0,29,30
 839 954 839 954 980 825 c 0,31,32
 1132 686 1132 686 1132 470 c 0,33,34
 1132 261 1132 261 962 112 c 24,35,36
 811 -20 811 -20 505 -20 c 0,0,1
EndSplineSet
Validated: 1
EndChar

StartChar: six
Encoding: 54 54 23
Width: 1398
GlyphClass: 2
Flags: W
HStem: -20 175<586.738 838.324> 863.059 170.941<584.422 836.307> 1356 174<644.257 969.048>
VStem: 110 352<421.846 928.5> 962.076 325.924<300.064 722.562> 1148 10<1068 1076.93>
LayerCount: 2
Fore
SplineSet
711.922851562 863.05859375 m 128,-1,1
 607 863 607 863 534 767 c 0,2,3
 462 672 462 672 462 509 c 128,-1,4
 462 346 462 346 534 251 c 0,5,6
 607 155 607 155 712 155 c 128,-1,7
 817 155 817 155 890 251 c 0,8,9
 962 346 962 346 962.076171875 508.942382812 c 128,-1,10
 962 672 962 672 890 767 c 0,11,0
 817 863 817 863 711.922851562 863.05859375 c 128,-1,1
712 -20 m 0,12,13
 452 -20 452 -20 290 171 c 0,14,15
 110 384 110 384 110 745 c 0,16,17
 110 1112 110 1112 310 1334 c 0,18,19
 488 1530 488 1530 772 1530 c 0,20,21
 999 1530 999 1530 1158 1428 c 1,22,-1
 1158 1068 l 1,23,-1
 1148 1068 l 1,24,25
 1027 1356 1027 1356 819 1356 c 0,26,27
 672 1356 672 1356 582 1264 c 0,28,29
 472 1151 472 1151 444 940 c 1,30,31
 570 1034 570 1034 750 1034 c 0,32,33
 1004 1034 1004 1034 1145 881 c 0,34,35
 1288 726 1288 726 1288 513 c 0,36,37
 1288 299 1288 299 1132 139 c 0,38,39
 978 -20 978 -20 712 -20 c 0,12,13
EndSplineSet
Validated: 1
EndChar

StartChar: seven
Encoding: 55 55 24
Width: 1105
GlyphClass: 2
Flags: W
HStem: 0 21G<13 427> 1336 174<14.1646 712>
DStem2: 167 259 513 285 0.451516 0.892263<-115.636 1205.18>
LayerCount: 2
Fore
SplineSet
13 0 m 1,0,1
 104 134 104 134 167 259 c 2,2,-1
 712 1336 l 1,3,-1
 310 1336 l 2,4,5
 143 1336 143 1336 10 1306 c 1,6,-1
 10 1510 l 1,7,-1
 1038 1510 l 1,8,-1
 1095 1336 l 1,9,10
 997 1240 997 1240 929 1106 c 2,11,-1
 513 285 l 2,12,13
 441 143 441 143 413 0 c 1,14,-1
 13 0 l 1,0,1
EndSplineSet
Validated: 1
EndChar

StartChar: eight
Encoding: 56 56 25
Width: 1327
GlyphClass: 2
Flags: W
HStem: -20 174<453.494 786.34> 1358 172<586.145 830.503>
VStem: 110 210<279.758 574.864> 229 300<1086.8 1304.24> 894 208<1058.97 1294.25> 909 308<269.916 534.767>
LayerCount: 2
Fore
SplineSet
735 984 m 1,0,1
 894 1049 894 1049 894 1178 c 0,2,3
 894 1250 894 1250 844 1302 c 0,4,5
 791 1358 791 1358 712 1358 c 0,6,7
 630 1358 630 1358 585 1316 c 0,8,9
 529 1264 529 1264 529 1185 c 0,10,11
 530 1091 530 1091 662 1022 c 2,12,-1
 735 984 l 1,0,1
657 -20 m 128,-1,14
 402 -20 402 -20 256 110 c 0,15,16
 110 239 110 239 110 434 c 0,17,18
 110 702 110 702 403 836 c 1,19,20
 229 956 229 956 229 1155 c 0,21,22
 229 1324 229 1324 362 1431 c 0,23,24
 485 1530 485 1530 678 1530 c 0,25,26
 866 1530 866 1530 983 1431 c 0,27,28
 1102 1330 1102 1330 1102 1178 c 0,29,30
 1102 980 1102 980 923 883 c 1,31,32
 1217 743 1217 743 1217 466 c 0,33,34
 1217 256 1217 256 1069 122 c 0,35,13
 912 -20 912 -20 657 -20 c 128,-1,14
585 716 m 1,36,37
 320 631 320 631 320 434 c 0,38,39
 320 307 320 307 406 232 c 0,40,41
 494 154 494 154 618 154 c 0,42,43
 748 154 748 154 832 232 c 0,44,45
 909 304 909 304 909 411 c 0,46,47
 909 541 909 541 752 626 c 2,48,-1
 585 716 l 1,36,37
EndSplineSet
Validated: 1
EndChar

StartChar: nine
Encoding: 57 57 26
Width: 1398
GlyphClass: 2
Flags: W
HStem: -20 174<428.952 753.743> 476 170.941<560.321 813.078> 1355 175<559.676 811.262>
VStem: 110 325.924<787.438 1209.94> 240 10<433.07 442> 936 352<581.5 1088.15>
LayerCount: 2
Fore
SplineSet
686.077148438 646.94140625 m 128,-1,1
 791 647 791 647 864 743 c 0,2,3
 936 838 936 838 936 1001 c 128,-1,4
 936 1164 936 1164 864 1259 c 0,5,6
 791 1355 791 1355 686 1355 c 128,-1,7
 581 1355 581 1355 508 1259 c 0,8,9
 436 1164 436 1164 435.923828125 1001.05761719 c 128,-1,10
 436 838 436 838 508 743 c 0,11,0
 581 647 581 647 686.077148438 646.94140625 c 128,-1,1
626 -20 m 0,12,13
 399 -20 399 -20 240 82 c 1,14,-1
 240 442 l 1,15,-1
 250 442 l 1,16,17
 371 154 371 154 579 154 c 0,18,19
 726 154 726 154 816 246 c 0,20,21
 926 359 926 359 954 570 c 1,22,23
 828 476 828 476 644 476 c 0,24,25
 394 476 394 476 253 629 c 0,26,27
 110 784 110 784 110 997 c 0,28,29
 110 1211 110 1211 266 1371 c 0,30,31
 420 1530 420 1530 686 1530 c 0,32,33
 946 1530 946 1530 1108 1339 c 0,34,35
 1288 1126 1288 1126 1288 765 c 0,36,37
 1288 398 1288 398 1088 176 c 0,38,39
 910 -20 910 -20 626 -20 c 0,12,13
EndSplineSet
Validated: 1
EndChar

StartChar: colon
Encoding: 58 58 27
Width: 404
GlyphClass: 2
Flags: W
HStem: -19 370<83.1396 320.86> 569 370<83.1396 320.86>
VStem: 20 364<43.5779 288.422 631.578 876.422>
LayerCount: 2
Fore
SplineSet
202 939 m 128,-1,1
 278 939 278 939 331 885 c 128,-1,2
 384 831 384 831 384 754 c 128,-1,3
 384 677 384 677 331 623 c 128,-1,4
 278 569 278 569 202 569 c 128,-1,5
 126 569 126 569 73 623 c 128,-1,6
 20 677 20 677 20 754 c 128,-1,7
 20 831 20 831 73 885 c 128,-1,0
 126 939 126 939 202 939 c 128,-1,1
202 -19 m 128,-1,9
 126 -19 126 -19 73 35 c 128,-1,10
 20 89 20 89 20 166 c 128,-1,11
 20 243 20 243 73 297 c 128,-1,12
 126 351 126 351 202 351 c 128,-1,13
 278 351 278 351 331 297 c 128,-1,14
 384 243 384 243 384 166 c 128,-1,15
 384 89 384 89 331 35 c 128,-1,8
 278 -19 278 -19 202 -19 c 128,-1,9
EndSplineSet
Validated: 1
EndChar

StartChar: semicolon
Encoding: 59 59 28
Width: 404
GlyphClass: 2
Flags: W
HStem: 569 370<83.1396 320.86>
VStem: 20 364<631.578 876.422> 127 231<-90.8302 161.004>
LayerCount: 2
Fore
SplineSet
204 309 m 1,0,1
 358 230 358 230 358 71 c 0,2,3
 358 -172 358 -172 20 -312 c 1,4,-1
 20 -302 l 1,5,6
 127 -182 127 -182 127 -24 c 0,7,8
 127 95 127 95 35 140 c 1,9,-1
 204 309 l 1,0,1
202 939 m 128,-1,11
 278 939 278 939 331 885 c 128,-1,12
 384 831 384 831 384 754 c 128,-1,13
 384 677 384 677 331 623 c 128,-1,14
 278 569 278 569 202 569 c 128,-1,15
 126 569 126 569 73 623 c 128,-1,16
 20 677 20 677 20 754 c 128,-1,17
 20 831 20 831 73 885 c 128,-1,10
 126 939 126 939 202 939 c 128,-1,11
EndSplineSet
Validated: 1
EndChar

StartChar: less
Encoding: 60 60 29
Width: 1290
GlyphClass: 2
Flags: W
HStem: 602 282<110 304.854>
DStem2: 397 966 436 716 0.909246 0.416258<-65.1969 674.931> 436 716 401 522 0.907167 -0.420771<4.8456 748.996>
LayerCount: 2
Fore
SplineSet
1130 1337 m 1,0,-1
 1130 997 l 1,1,2
 990 961 990 961 845 897 c 2,3,-1
 436 716 l 1,4,-1
 845 522 l 2,5,6
 993 452 993 452 1130 422 c 1,7,-1
 1130 150 l 1,8,9
 998 245 998 245 871 304 c 2,10,-1
 401 522 l 2,11,12
 254 590 254 590 110 602 c 1,13,-1
 110 884 l 1,14,15
 248 898 248 898 397 966 c 2,16,-1
 871 1183 l 2,17,18
 1000 1242 1000 1242 1130 1337 c 1,0,-1
EndSplineSet
Validated: 1
EndChar

StartChar: equal
Encoding: 61 61 30
Width: 1173
GlyphClass: 2
Flags: W
HStem: 458 204<114.688 1058.25> 827 204<114.688 1058.25>
LayerCount: 2
Fore
SplineSet
110 692 m 1,0,1
 260 662 260 662 410 662 c 2,2,-1
 763 662 l 2,3,4
 911 662 911 662 1063 692 c 1,5,-1
 1063 428 l 1,6,7
 912 458 912 458 763 458 c 2,8,-1
 410 458 l 2,9,10
 260 458 260 458 110 428 c 1,11,-1
 110 692 l 1,0,1
110 1061 m 1,12,13
 260 1031 260 1031 410 1031 c 2,14,-1
 763 1031 l 2,15,16
 911 1031 911 1031 1063 1061 c 1,17,-1
 1063 797 l 1,18,19
 912 827 912 827 763 827 c 2,20,-1
 410 827 l 2,21,22
 260 827 260 827 110 797 c 1,23,-1
 110 1061 l 1,12,13
EndSplineSet
Validated: 1
EndChar

StartChar: greater
Encoding: 62 62 31
Width: 1290
GlyphClass: 2
Flags: W
HStem: 603 282<985.146 1180>
DStem2: 445 590 419 304 0.909246 0.416258<-296.311 443.817> 419 1183 854 771 0.907167 -0.420771<-181.02 563.13>
LayerCount: 2
Fore
SplineSet
160 1337 m 1,0,1
 292 1242 292 1242 419 1183 c 2,2,-1
 889 965 l 2,3,4
 1036 897 1036 897 1180 885 c 1,5,-1
 1180 603 l 1,6,7
 1042 589 1042 589 893 521 c 2,8,-1
 419 304 l 2,9,10
 290 245 290 245 160 150 c 1,11,-1
 160 490 l 1,12,13
 300 526 300 526 445 590 c 2,14,-1
 854 771 l 1,15,-1
 445 965 l 2,16,17
 297 1035 297 1035 160 1065 c 1,18,-1
 160 1337 l 1,0,1
EndSplineSet
Validated: 1
EndChar

StartChar: question
Encoding: 63 63 32
Width: 1234
GlyphClass: 2
Flags: W
HStem: -20 370<421.14 658.86> 1354 176<343.526 683.078>
VStem: 358 364<42.5779 287.422> 419 236<449 549.298> 794 330<918.811 1239.52>
LayerCount: 2
Fore
SplineSet
540 -20 m 128,-1,1
 464 -20 464 -20 411 34 c 128,-1,2
 358 88 358 88 358 165 c 128,-1,3
 358 242 358 242 411 296 c 128,-1,4
 464 350 464 350 540 350 c 128,-1,5
 616 350 616 350 669 296 c 128,-1,6
 722 242 722 242 722 165 c 128,-1,7
 722 88 722 88 669 34 c 128,-1,0
 616 -20 616 -20 540 -20 c 128,-1,1
592 1530 m 0,8,9
 849 1530 849 1530 986 1403 c 0,10,11
 1124 1277 1124 1277 1124 1093 c 0,12,13
 1124 840 1124 840 850 672 c 0,14,15
 655 552 655 552 655 449 c 1,16,-1
 419 449 l 1,17,18
 419 641 419 641 652 815 c 0,19,20
 794 920 794 920 794 1070 c 0,21,22
 794 1201 794 1201 722 1277 c 0,23,24
 648 1354 648 1354 526 1354 c 0,25,26
 343 1354 343 1354 226 1215 c 0,27,28
 165 1142 165 1142 120 1054 c 1,29,-1
 110 1054 l 1,30,-1
 110 1395 l 1,31,32
 326 1530 326 1530 592 1530 c 0,8,9
EndSplineSet
Validated: 1
EndChar

StartChar: at
Encoding: 64 64 33
Width: 1569
GlyphClass: 2
Flags: W
HStem: -430 174<644.316 1097.57> -20 155<803.305 1038.94> 0 21G<1086 1437> 624 153<800.75 1040.77> 940 180<621.333 1037.04>
VStem: 110 176<104.733 592.478> 402 315<225.131 536.117> 1123 286<221.625 538.278>
LayerCount: 2
Fore
SplineSet
922 135 m 128,-1,1
 1007 135 1007 135 1069 209 c 0,2,3
 1123 274 1123 274 1123 379.5 c 128,-1,4
 1123 485 1123 485 1069 551 c 0,5,6
 1009 624 1009 624 921.5 624 c 128,-1,7
 834 624 834 624 773 551 c 0,8,9
 717 487 717 487 717 380 c 128,-1,10
 717 273 717 273 773 209 c 0,11,0
 837 135 837 135 922 135 c 128,-1,1
1437 0 m 1,12,-1
 1086 0 l 1,13,14
 1102 44 1102 44 1106 93 c 1,15,16
 1042 -20 1042 -20 868 -20 c 0,17,18
 672 -20 672 -20 538 93 c 0,19,20
 402 208 402 208 402 380 c 0,21,22
 402 557 402 557 543 667 c 128,-1,23
 684 777 684 777 886 777 c 0,24,25
 1013 777 1013 777 1119 738 c 1,26,27
 1107 816 1107 816 1080 853 c 0,28,29
 1020 940 1020 940 860 940 c 0,30,31
 625 940 625 940 471 798 c 0,32,33
 286 628 286 628 286 345 c 0,34,35
 286 69 286 69 471 -102 c 0,36,37
 638 -256 638 -256 874 -256 c 0,38,39
 1098 -256 1098 -256 1269 -98 c 1,40,-1
 1399 -227 l 1,41,42
 1178 -430 1178 -430 872 -430 c 128,-1,43
 566 -430 566 -430 345 -227 c 0,44,45
 110 -11 110 -11 110 345 c 128,-1,46
 110 701 110 701 345 917 c 0,47,48
 566 1120 566 1120 903 1120 c 0,49,50
 1172 1120 1172 1120 1297 987 c 0,51,52
 1409 868 1409 868 1409 639 c 2,53,-1
 1409 294 l 2,54,55
 1409 150 1409 150 1437 0 c 1,12,-1
EndSplineSet
Validated: 1
EndChar

StartChar: A
Encoding: 65 65 34
Width: 1720
GlyphClass: 2
Flags: W
HStem: 0 21G<5 344.5 1297.5 1715> 571 165<635 1009> 1490 20G<683 1037>
DStem2: 159 259 559 571 0.418402 0.908262<-160.401 450.739 632.4 1081> 1116 1225 819 1149 0.418402 -0.908262<-52.834 399.371 581.033 1191.87>
LayerCount: 2
Fore
SplineSet
5 0 m 1,0,1
 98 127 98 127 159 259 c 2,2,-1
 604 1225 l 2,3,4
 662 1351 662 1351 704 1510 c 1,5,-1
 1016 1510 l 1,6,7
 1058 1351 1058 1351 1116 1225 c 2,8,-1
 1561 259 l 2,9,10
 1617 137 1617 137 1715 0 c 1,11,-1
 1317 0 l 1,12,13
 1278 153 1278 153 1217 285 c 2,14,-1
 1085 571 l 1,15,-1
 559 571 l 1,16,-1
 427 285 l 2,17,18
 362 144 362 144 327 0 c 1,19,-1
 5 0 l 1,0,1
819 1149 m 1,20,-1
 635 736 l 1,21,-1
 1009 736 l 1,22,-1
 819 1149 l 1,20,-1
EndSplineSet
Validated: 1
EndChar

StartChar: B
Encoding: 66 66 35
Width: 1211
GlyphClass: 2
Flags: W
HStem: 0 174<458.015 684.188> 746 176<455 660.688> 1336 174<458.309 666.688>
VStem: 160 295<178.125 746 922 1331.88> 736 287<996.713 1269.91> 816 335<296.834 626.592>
LayerCount: 2
Fore
SplineSet
462 174 m 1,0,-1
 535 174 l 2,1,2
 648 174 648 174 733 252 c 0,3,4
 816 329 816 329 816 463 c 0,5,6
 816 595 816 595 733 673 c 0,7,8
 657 746 657 746 535 746 c 2,9,-1
 455 746 l 1,10,-1
 455 303 l 2,11,12
 455 240 455 240 462 174 c 1,0,-1
130 0 m 1,13,14
 160 150 160 150 160 300 c 2,15,-1
 160 1210 l 2,16,17
 160 1360 160 1360 130 1510 c 1,18,-1
 565 1510 l 2,19,20
 780 1510 780 1510 902 1414 c 0,21,22
 1023 1318 1023 1318 1023 1146 c 128,-1,23
 1023 974 1023 974 830 854 c 1,24,25
 924 828 924 828 987 781 c 0,26,27
 1151 659 1151 659 1151 463 c 0,28,29
 1151 273 1151 273 993 137 c 0,30,31
 834 0 834 0 550 0 c 2,32,-1
 130 0 l 1,13,14
455 922 m 1,33,-1
 531 922 l 2,34,35
 619 922 619 922 679 982 c 0,36,37
 736 1040 736 1040 736 1146 c 0,38,39
 736 1227 736 1227 682 1281.5 c 128,-1,40
 628 1336 628 1336 531 1336 c 2,41,-1
 462 1336 l 1,42,43
 455 1264 455 1264 455 1208 c 2,44,-1
 455 922 l 1,33,-1
EndSplineSet
Validated: 1
EndChar

StartChar: C
Encoding: 67 67 36
Width: 1565
GlyphClass: 2
Flags: W
HStem: -20 175<731.955 1154.1> 1355 175<732.762 1148.42>
VStem: 60 355<494.077 1016.49>
LayerCount: 2
Fore
SplineSet
933 -20 m 0,0,1
 539 -20 539 -20 299 194 c 0,2,3
 60 406 60 406 60 755 c 128,-1,4
 60 1104 60 1104 301 1319 c 0,5,6
 538 1530 538 1530 933 1530 c 0,7,8
 1250 1530 1250 1530 1485 1385 c 1,9,-1
 1485 1020 l 1,10,-1
 1474 1020 l 1,11,12
 1246 1355 1246 1355 932 1355 c 0,13,14
 709 1355 709 1355 551 1174 c 0,15,16
 415 1017 415 1017 415 755 c 128,-1,17
 415 493 415 493 550 338 c 0,18,19
 710 155 710 155 924 155 c 0,20,21
 1269 155 1269 155 1494 490 c 1,22,-1
 1505 490 l 1,23,-1
 1505 186 l 1,24,25
 1268 -20 1268 -20 933 -20 c 0,0,1
EndSplineSet
Validated: 1
EndChar

StartChar: D
Encoding: 68 68 37
Width: 1639
GlyphClass: 2
Flags: W
HStem: 0 175<473.125 926.841> 1335 175<474.307 927.808>
VStem: 160 310<178.125 1331.88> 1233 346<512.438 1000.69>
LayerCount: 2
Fore
SplineSet
130 0 m 1,0,1
 160 150 160 150 160 300 c 2,2,-1
 160 1210 l 2,3,4
 160 1360 160 1360 130 1510 c 1,5,-1
 716 1510 l 2,6,7
 1118 1510 1118 1510 1339 1295 c 0,8,9
 1579 1063 1579 1063 1579 755 c 0,10,11
 1579 442 1579 442 1337 211 c 0,12,13
 1116 0 1116 0 716 0 c 2,14,-1
 130 0 l 1,0,1
478 175 m 1,15,-1
 716 175 l 2,16,17
 954 175 954 175 1095 348 c 0,18,19
 1233 520 1233 520 1233 755.5 c 128,-1,20
 1233 991 1233 991 1095 1162 c 0,21,22
 956 1335 956 1335 716 1335 c 2,23,-1
 480 1335 l 1,24,25
 470 1272 470 1272 470 1210 c 2,26,-1
 470 300 l 2,27,28
 470 230 470 230 478 175 c 1,15,-1
EndSplineSet
Validated: 1
EndChar

StartChar: E
Encoding: 69 69 38
Width: 1108
GlyphClass: 2
Flags: W
HStem: 0 174<473.283 1043.56> 671 175<470 923.312> 1336 174<474.104 923.312>
VStem: 160 310<177.772 671 846 1331.52>
LayerCount: 2
Fore
SplineSet
130 0 m 1,0,1
 160 150 160 150 160 299 c 2,2,-1
 160 1209 l 2,3,4
 160 1360 160 1360 130 1510 c 1,5,-1
 928 1510 l 1,6,-1
 928 1306 l 1,7,8
 778 1336 778 1336 628 1336 c 2,9,-1
 480 1336 l 1,10,11
 470 1275 470 1275 470 1210 c 2,12,-1
 470 846 l 1,13,-1
 628 846 l 2,14,15
 778 846 778 846 928 876 c 1,16,-1
 928 641 l 1,17,18
 778 671 778 671 628 671 c 2,19,-1
 470 671 l 1,20,-1
 470 300 l 2,21,22
 470 235 470 235 478 174 c 1,23,-1
 748 174 l 2,24,25
 906 174 906 174 1048 204 c 1,26,-1
 1048 0 l 1,27,-1
 130 0 l 1,0,1
EndSplineSet
Validated: 1
EndChar

StartChar: F
Encoding: 70 70 39
Width: 1028
GlyphClass: 2
Flags: W
HStem: 0 21G<130 500> 671 175<470 923.312> 1336 174<474.104 923.312>
VStem: 160 310<4.6875 671 846 1331.52>
LayerCount: 2
Fore
SplineSet
130 0 m 1,0,1
 160 149 160 149 160 299 c 2,2,-1
 160 1209 l 2,3,4
 160 1360 160 1360 130 1510 c 1,5,-1
 928 1510 l 1,6,-1
 928 1306 l 1,7,8
 778 1336 778 1336 628 1336 c 2,9,-1
 480 1336 l 1,10,11
 470 1275 470 1275 470 1210 c 2,12,-1
 470 846 l 1,13,-1
 628 846 l 2,14,15
 778 846 778 846 928 876 c 1,16,-1
 928 641 l 1,17,18
 778 671 778 671 628 671 c 2,19,-1
 470 671 l 1,20,-1
 470 300 l 2,21,22
 470 150 470 150 500 0 c 1,23,-1
 130 0 l 1,0,1
EndSplineSet
Validated: 1
EndChar

StartChar: G
Encoding: 71 71 40
Width: 1656
GlyphClass: 2
Flags: W
HStem: -20 175<724.621 1158.79> 671 175<872.688 1226> 1355 175<725.18 1148.42>
VStem: 60 345<499.907 1010.64> 1226 320<234 671>
LayerCount: 2
Fore
SplineSet
933 -20 m 0,0,1
 539 -20 539 -20 299 194 c 0,2,3
 60 406 60 406 60 755 c 128,-1,4
 60 1104 60 1104 301 1319 c 0,5,6
 538 1530 538 1530 933 1530 c 0,7,8
 1250 1530 1250 1530 1485 1385 c 1,9,-1
 1485 1020 l 1,10,-1
 1474 1020 l 1,11,12
 1246 1355 1246 1355 932 1355 c 0,13,14
 703 1355 703 1355 546 1174 c 0,15,16
 405 1012 405 1012 405 755 c 128,-1,17
 405 498 405 498 545 338 c 0,18,19
 705 155 705 155 924 155 c 0,20,21
 1091 155 1091 155 1230 234 c 1,22,-1
 1226 234 l 1,23,-1
 1226 671 l 1,24,-1
 1168 671 l 2,25,26
 1018 671 1018 671 868 641 c 1,27,-1
 868 846 l 1,28,-1
 1546 845 l 1,29,-1
 1546 222 l 1,30,31
 1273 -20 1273 -20 933 -20 c 0,0,1
EndSplineSet
Validated: 1
EndChar

StartChar: H
Encoding: 72 72 41
Width: 1589
GlyphClass: 2
Flags: W
HStem: 0 21G<130 500 1090 1459> 671 175<470 1120> 1490 20G<130 500 1090 1459>
VStem: 160 310<4.6875 671 846 1505.31> 1120 309<4.6875 671 846 1505.31>
LayerCount: 2
Fore
SplineSet
130 0 m 1,0,1
 160 150 160 150 160 300 c 2,2,-1
 160 1210 l 2,3,4
 160 1360 160 1360 130 1510 c 1,5,-1
 500 1510 l 1,6,7
 470 1360 470 1360 470 1210 c 2,8,-1
 470 846 l 1,9,-1
 1120 846 l 1,10,-1
 1120 1210 l 2,11,12
 1120 1361 1120 1361 1090 1510 c 1,13,-1
 1459 1510 l 1,14,15
 1429 1360 1429 1360 1429 1210 c 2,16,-1
 1429 300 l 2,17,18
 1429 150 1429 150 1459 0 c 1,19,-1
 1090 0 l 1,20,21
 1120 150 1120 150 1120 300 c 2,22,-1
 1120 671 l 1,23,-1
 470 671 l 1,24,-1
 470 300 l 2,25,26
 470 150 470 150 500 0 c 1,27,-1
 130 0 l 1,0,1
EndSplineSet
Validated: 1
EndChar

StartChar: I
Encoding: 73 73 42
Width: 630
GlyphClass: 2
Flags: W
HStem: 0 21G<130 500> 1490 20G<130 500>
VStem: 160 310<4.6875 1505.31>
LayerCount: 2
Fore
SplineSet
130 0 m 1,0,1
 160 150 160 150 160 300 c 2,2,-1
 160 1210 l 2,3,4
 160 1360 160 1360 130 1510 c 1,5,-1
 500 1510 l 1,6,7
 470 1360 470 1360 470 1210 c 2,8,-1
 470 300 l 2,9,10
 470 150 470 150 500 0 c 1,11,-1
 130 0 l 1,0,1
EndSplineSet
Validated: 1
EndChar

StartChar: J
Encoding: 74 74 43
Width: 630
GlyphClass: 2
Flags: W
HStem: -200 10<-20 -14.4189> 1490 20G<130 500>
VStem: 160 310<-5.2124 1505.31>
LayerCount: 2
Fore
SplineSet
130 1510 m 1,0,-1
 500 1510 l 1,1,2
 470 1360 470 1360 470 1210 c 2,3,-1
 470 194 l 2,4,5
 470 -200 470 -200 -20 -200 c 1,6,-1
 -20 -190 l 1,7,8
 160 -107 160 -107 160 194 c 2,9,-1
 160 1210 l 2,10,11
 160 1360 160 1360 130 1510 c 1,0,-1
EndSplineSet
Validated: 1
EndChar

StartChar: K
Encoding: 75 75 44
Width: 1522
GlyphClass: 2
Flags: W
HStem: 0 21G<130 500 956.5 1517> 1490 20G<130 500 965.5 1384>
VStem: 160 310<4.81055 546 905 1505.31>
DStem2: 470 905 652 790 0.691098 0.722761<42.6622 804.915> 652 790 470 546 0.721318 -0.692604<37.7153 789.66>
LayerCount: 2
Fore
SplineSet
130 0 m 1,0,1
 160 150 160 150 160 300 c 2,2,-1
 160 1210 l 2,3,4
 160 1360 160 1360 130 1510 c 1,5,-1
 500 1510 l 1,6,7
 470 1360 470 1360 470 1210 c 2,8,-1
 470 905 l 1,9,-1
 822 1273 l 2,10,11
 922 1378 922 1378 1009 1510 c 1,12,-1
 1384 1510 l 1,13,14
 1245 1411 1245 1411 1154 1315 c 2,15,-1
 652 790 l 9,16,-1
 1280 187 l 2,17,18
 1391 80 1391 80 1517 0 c 1,19,-1
 994 0 l 1,20,21
 919 115 919 115 799 230 c 2,22,-1
 470 546 l 1,23,-1
 470 300 l 2,24,25
 470 154 470 154 500 0 c 1,26,-1
 130 0 l 1,0,1
EndSplineSet
Validated: 1
EndChar

StartChar: L
Encoding: 76 76 45
Width: 1073
GlyphClass: 2
Flags: W
HStem: 0 174<489.689 1058.56> 1490 20G<130 515>
VStem: 160 325<178.125 1505.31>
LayerCount: 2
Fore
SplineSet
130 0 m 1,0,1
 160 150 160 150 160 300 c 2,2,-1
 160 1210 l 2,3,4
 160 1360 160 1360 130 1510 c 1,5,-1
 515 1510 l 1,6,7
 485 1361 485 1361 485 1210 c 2,8,-1
 485 364 l 2,9,10
 485 266 485 266 493 174 c 1,11,-1
 763 174 l 2,12,13
 921 174 921 174 1063 204 c 1,14,-1
 1063 0 l 1,15,-1
 130 0 l 1,0,1
EndSplineSet
Validated: 1
EndChar

StartChar: M
Encoding: 77 77 46
Width: 2005
GlyphClass: 2
Flags: W
HStem: 0 21G<80 383 816.5 1131 1564 1925> 1490 20G<213 531 1482.5 1792>
VStem: 213 304<1360.34 1510> 1502 290<1361.25 1510>
DStem2: 217 1209 434 916 0.0883714 0.996088<-1018.19 -272.677> 617 1225 434 916 0.423656 -0.905823<202.37 920.705> 1008 389 1214 285 0.426318 0.904573<0 712.806> 1788 1209 1513 939 0.0883714 -0.996088<244.642 1013.16>
LayerCount: 2
Fore
SplineSet
80 0 m 1,0,1
 123 145 123 145 136 296 c 2,2,-1
 217 1209 l 2,3,4
 222 1265 222 1265 222 1332 c 0,5,6
 222 1415 222 1415 213 1510 c 1,7,-1
 517 1510 l 1,8,9
 545 1380 545 1380 617 1225 c 2,10,-1
 1008 389 l 1,11,-1
 1402 1225 l 2,12,13
 1463 1355 1463 1355 1502 1510 c 1,14,-1
 1792 1510 l 1,15,16
 1783 1417 1783 1417 1783 1332 c 0,17,18
 1783 1265 1783 1265 1788 1209 c 2,19,-1
 1869 296 l 2,20,21
 1883 143 1883 143 1925 0 c 1,22,-1
 1564 0 l 1,23,24
 1574 86 1574 86 1574 171 c 0,25,26
 1574 231 1574 231 1568 301 c 2,27,-1
 1513 939 l 1,28,-1
 1214 285 l 2,29,30
 1148 141 1148 141 1114 0 c 1,31,-1
 830 0 l 1,32,33
 803 129 803 129 730 285 c 2,34,-1
 434 916 l 1,35,-1
 379 301 l 2,36,37
 373 234 373 234 373 171 c 0,38,39
 373 82 373 82 383 0 c 1,40,-1
 80 0 l 1,0,1
EndSplineSet
Validated: 1
EndChar

StartChar: N
Encoding: 78 78 47
Width: 1540
GlyphClass: 2
Flags: W
HStem: 0 21G<130 432 1075 1410> 1490 20G<130 478 1118 1410>
VStem: 160 242<4.6875 990> 1148 232<532 1505.07>
DStem2: 597 1252 402 990 0.602787 -0.797902<91.507 906.625>
LayerCount: 2
Fore
SplineSet
130 0 m 1,0,1
 160 150 160 150 160 300 c 2,2,-1
 160 1210 l 2,3,4
 160 1360 160 1360 130 1510 c 1,5,-1
 440 1510 l 1,6,7
 516 1358 516 1358 597 1252 c 2,8,-1
 1148 532 l 1,9,-1
 1148 1210 l 2,10,11
 1148 1352 1148 1352 1118 1510 c 1,12,-1
 1410 1510 l 1,13,14
 1380 1360 1380 1360 1380 1210 c 2,15,-1
 1380 300 l 2,16,17
 1380 150 1380 150 1410 0 c 1,18,-1
 1112 0 l 1,19,20
 1038 148 1038 148 955 258 c 2,21,-1
 402 990 l 1,22,-1
 402 300 l 2,23,24
 402 150 402 150 432 0 c 1,25,-1
 130 0 l 1,0,1
EndSplineSet
Validated: 1
EndChar

StartChar: O
Encoding: 79 79 48
Width: 1766
GlyphClass: 2
Flags: W
HStem: -20 175<700.309 1066.35> 1355 175<699.318 1066.56>
VStem: 60 345<492.064 1015.63> 1360 346<493.436 1015.04>
LayerCount: 2
Fore
SplineSet
883 -20 m 0,0,1
 527 -20 527 -20 302 191 c 0,2,3
 60 418 60 418 60 755 c 0,4,5
 60 1083 60 1083 300 1315 c 0,6,7
 521 1530 521 1530 883 1530 c 128,-1,8
 1245 1530 1245 1530 1466 1315 c 0,9,10
 1706 1083 1706 1083 1706 755 c 0,11,12
 1706 422 1706 422 1464 191 c 0,13,14
 1243 -20 1243 -20 883 -20 c 0,0,1
883 155 m 128,-1,16
 1084 155 1084 155 1222 328 c 128,-1,17
 1360 501 1360 501 1360 754 c 0,18,19
 1360 1010 1360 1010 1222 1182 c 0,20,21
 1083 1355 1083 1355 883 1355 c 128,-1,22
 683 1355 683 1355 543 1182 c 0,23,24
 405 1012 405 1012 405 755 c 0,25,26
 405 499 405 499 543 328 c 0,27,15
 682 155 682 155 883 155 c 128,-1,16
EndSplineSet
Validated: 1
EndChar

StartChar: P
Encoding: 80 80 49
Width: 1211
GlyphClass: 2
Flags: W
HStem: 0 21G<130 505> 584 176<470 711.486> 1336 174<473.015 705.394>
VStem: 160 310<4.6875 584 760 1331.88> 832 319<878.218 1216.44>
LayerCount: 2
Fore
SplineSet
470 760 m 1,0,-1
 550 760 l 2,1,2
 681 760 681 760 754 836 c 0,3,4
 832 916 832 916 832 1046 c 0,5,6
 832 1183 832 1183 752 1259 c 0,7,8
 672 1336 672 1336 550 1336 c 2,9,-1
 477 1336 l 1,10,11
 470 1273 470 1273 470 1206 c 2,12,-1
 470 760 l 1,0,-1
130 0 m 1,13,14
 160 150 160 150 160 300 c 2,15,-1
 160 1210 l 2,16,17
 160 1360 160 1360 130 1510 c 1,18,-1
 570 1510 l 2,19,20
 840 1510 840 1510 996 1384 c 0,21,22
 1151 1259 1151 1259 1151 1046.5 c 128,-1,23
 1151 834 1151 834 994 709 c 128,-1,24
 837 584 837 584 570 584 c 2,25,-1
 470 584 l 1,26,-1
 470 296 l 2,27,28
 470 150 470 150 505 0 c 1,29,-1
 130 0 l 1,13,14
EndSplineSet
Validated: 1
EndChar

StartChar: Q
Encoding: 81 81 50
Width: 1766
GlyphClass: 2
Flags: W
HStem: -20 175<700.309 1030.32> 1355 175<699.568 1066.31>
VStem: 60 345<492.064 1015.63> 1360 346<491.801 1015.04>
LayerCount: 2
Fore
SplineSet
883 -20 m 0,0,1
 527 -20 527 -20 302 191 c 0,2,3
 60 418 60 418 60 755 c 0,4,5
 60 1083 60 1083 300 1315 c 0,6,7
 521 1530 521 1530 883 1530 c 128,-1,8
 1245 1530 1245 1530 1466 1315 c 0,9,10
 1706 1083 1706 1083 1706 755 c 0,11,12
 1706 422 1706 422 1464 191 c 0,13,14
 1426 155 1426 155 1384 125 c 1,15,-1
 1398 103 l 2,16,17
 1471 -9 1471 -9 1587 -132 c 1,18,-1
 1201 -132 l 1,19,20
 1172 -58 1172 -58 1137 11 c 1,21,22
 1020 -20 1020 -20 883 -20 c 0,0,1
1240 352 m 1,23,24
 1360 516 1360 516 1360 754 c 0,25,26
 1360 1010 1360 1010 1222 1182 c 0,27,28
 1082 1355 1082 1355 883 1355 c 128,-1,29
 684 1355 684 1355 543 1182 c 0,30,31
 405 1012 405 1012 405 755 c 0,32,33
 405 499 405 499 543 328 c 0,34,35
 682 155 682 155 883 155 c 0,36,37
 963 155 963 155 1032 182 c 1,38,-1
 962 287 l 2,39,40
 875 417 875 417 773 522 c 1,41,-1
 1159 522 l 1,42,43
 1191 442 1191 442 1240 352 c 1,23,24
EndSplineSet
Validated: 1
EndChar

StartChar: R
Encoding: 82 82 51
Width: 1364
GlyphClass: 2
Flags: W
HStem: 0 21G<130 505 901.5 1359> 584 176<470 580> 1336 174<473.015 705.394>
VStem: 160 310<4.6875 584 760 1331.88> 832 319<878.218 1216.44>
DStem2: 894 647 580 584 0.55656 -0.830807<0 552.737>
LayerCount: 2
Fore
SplineSet
130 0 m 1,0,1
 160 150 160 150 160 300 c 2,2,-1
 160 1210 l 2,3,4
 160 1360 160 1360 130 1510 c 1,5,-1
 570 1510 l 2,6,7
 840 1510 840 1510 996 1384 c 0,8,9
 1151 1259 1151 1259 1151 1046.5 c 128,-1,10
 1151 834 1151 834 994 709 c 0,11,12
 949 673 949 673 894 647 c 1,13,-1
 1170 235 l 2,14,15
 1257 105 1257 105 1359 0 c 1,16,-1
 930 0 l 1,17,18
 873 148 873 148 792 268 c 2,19,-1
 580 584 l 1,20,-1
 470 584 l 1,21,-1
 470 296 l 2,22,23
 470 150 470 150 505 0 c 1,24,-1
 130 0 l 1,0,1
470 760 m 1,25,-1
 550 760 l 2,26,27
 680 760 680 760 754 836 c 0,28,29
 832 916 832 916 832 1046 c 0,30,31
 832 1183 832 1183 752 1259 c 0,32,33
 672 1336 672 1336 550 1336 c 2,34,-1
 477 1336 l 1,35,36
 470 1273 470 1273 470 1206 c 2,37,-1
 470 760 l 1,25,-1
EndSplineSet
Validated: 1
EndChar

StartChar: S
Encoding: 83 83 52
Width: 1110
GlyphClass: 2
Flags: W
HStem: -20 177<291.474 618.848> 1356 174<509.37 768.165>
VStem: 143 310<1100.56 1310.68> 739 331<278.003 550.619>
DStem2: 604 1009 393 781 0.834958 -0.550313<-196.933 360.881>
LayerCount: 2
Fore
SplineSet
465 -20 m 0,0,1
 249 -20 249 -20 40 105 c 1,2,-1
 40 468 l 1,3,-1
 50 468 l 1,4,5
 97 372 97 372 161 303 c 0,6,7
 295 157 295 157 477 157 c 0,8,9
 588 157 588 157 664 239 c 0,10,11
 739 320 739 320 739 429 c 0,12,13
 739 553 739 553 569 665 c 2,14,-1
 393 781 l 2,15,16
 143 946 143 946 143 1158 c 0,17,18
 143 1360 143 1360 307 1457 c 0,19,20
 430 1530 430 1530 594.5 1530 c 128,-1,21
 759 1530 759 1530 919 1459 c 1,22,-1
 919 1160 l 1,23,-1
 909 1160 l 1,24,25
 792 1356 792 1356 617 1356 c 0,26,27
 557 1356 557 1356 517 1328 c 0,28,29
 453 1283 453 1283 453 1207 c 0,30,31
 453 1108 453 1108 604 1009 c 2,32,-1
 766 903 l 2,33,34
 1070 704 1070 704 1070 462 c 0,35,36
 1070 260 1070 260 919 128 c 0,37,38
 751 -20 751 -20 465 -20 c 0,0,1
EndSplineSet
Validated: 1
EndChar

StartChar: T
Encoding: 84 84 53
Width: 1200
GlyphClass: 2
Flags: W
HStem: 0 21G<415 785> 1336 174<14.8105 440.896 759.104 1185.4>
VStem: 445 310<4.6875 1334.06>
LayerCount: 2
Fore
SplineSet
415 0 m 1,0,1
 445 150 445 150 445 300 c 2,2,-1
 445 1210 l 2,3,4
 445 1274 445 1274 435 1336 c 1,5,-1
 310 1336 l 2,6,7
 164 1336 164 1336 10 1306 c 1,8,-1
 10 1510 l 1,9,-1
 1190 1510 l 1,10,-1
 1190 1306 l 1,11,12
 1043 1336 1043 1336 890 1336 c 2,13,-1
 765 1336 l 1,14,15
 755 1274 755 1274 755 1210 c 2,16,-1
 755 300 l 2,17,18
 755 150 755 150 785 0 c 1,19,-1
 415 0 l 1,0,1
EndSplineSet
Validated: 1
EndChar

StartChar: U
Encoding: 85 85 54
Width: 1600
GlyphClass: 2
Flags: W
HStem: -20 201<647.035 955.267> 0 21G<1094 1470> 1490 20G<130 510 1100 1470>
VStem: 160 320<369.609 1505.28> 1130 310<374.688 1505.31>
LayerCount: 2
Fore
SplineSet
1470 0 m 1,0,-1
 1094 0 l 1,1,2
 1128 99 1128 99 1132 157 c 1,3,4
 988 -20 988 -20 715 -20 c 0,5,6
 440 -20 440 -20 291 160 c 0,7,8
 160 318 160 318 160 649 c 2,9,-1
 160 1208 l 2,10,11
 160 1359 160 1359 130 1510 c 1,12,-1
 510 1510 l 1,13,14
 480 1366 480 1366 480 1210 c 2,15,-1
 480 655 l 2,16,17
 480 429 480 429 546 327 c 0,18,19
 641 181 641 181 803 181 c 0,20,21
 959 181 959 181 1052 312 c 0,22,23
 1130 422 1130 422 1130 655 c 2,24,-1
 1130 1212 l 2,25,26
 1130 1366 1130 1366 1100 1510 c 1,27,-1
 1470 1510 l 1,28,29
 1440 1360 1440 1360 1440 1210 c 2,30,-1
 1440 300 l 2,31,32
 1440 150 1440 150 1470 0 c 1,0,-1
EndSplineSet
Validated: 1
EndChar

StartChar: V
Encoding: 86 86 55
Width: 1720
GlyphClass: 2
Flags: W
HStem: 0 405<501.5 1218.5> 1490 20G<5 446 1356.5 1715>
DStem2: 527 1225 159 1251 0.418402 -0.908262<-295.913 899.038> 905 405 1116 285 0.418402 0.908262<0 1197.79>
LayerCount: 2
Fore
SplineSet
704 0 m 1,0,1
 662 159 662 159 604 285 c 2,2,-1
 159 1251 l 2,3,4
 102 1374 102 1374 5 1510 c 1,5,-1
 427 1510 l 1,6,7
 465 1359 465 1359 527 1225 c 2,8,-1
 905 405 l 1,9,-1
 1283 1225 l 2,10,11
 1330 1328 1330 1328 1383 1510 c 1,12,-1
 1715 1510 l 1,13,14
 1622 1383 1622 1383 1561 1251 c 2,15,-1
 1116 285 l 2,16,17
 1058 159 1058 159 1016 0 c 1,18,-1
 704 0 l 1,0,1
EndSplineSet
Validated: 1
EndChar

StartChar: W
Encoding: 87 87 56
Width: 2026
GlyphClass: 2
Flags: W
HStem: 0 21G<443 772 1250 1583> 1490 20G<10 405 902 1181 1696 2016>
VStem: 449 317<0 260.641> 908 267<1249.14 1510> 1256 321<0 260.859>
DStem2: 453 1213 122 1230 0.280829 -0.959758<-295.46 712.242> 655 530 820 297 0.27973 0.960079<0 500.337> 1229 1213 1009 948 0.283262 -0.959043<191.829 741.364> 1439 502 1631 297 0.280829 0.959758<0 1036.57>
LayerCount: 2
Fore
SplineSet
449 0 m 1,0,1
 437 154 437 154 395 297 c 2,2,-1
 122 1230 l 2,3,4
 76 1387 76 1387 10 1510 c 1,5,-1
 399 1510 l 1,6,7
 411 1355 411 1355 453 1213 c 2,8,-1
 655 530 l 1,9,-1
 854 1213 l 2,10,11
 896 1357 896 1357 908 1510 c 1,12,-1
 1175 1510 l 1,13,14
 1187 1355 1187 1355 1229 1213 c 2,15,-1
 1439 502 l 1,16,-1
 1648 1213 l 2,17,18
 1690 1356 1690 1356 1702 1510 c 1,19,-1
 2016 1510 l 1,20,21
 1950 1387 1950 1387 1904 1230 c 2,22,-1
 1631 297 l 2,23,24
 1589 153 1589 153 1577 0 c 1,25,-1
 1256 0 l 1,26,27
 1244 155 1244 155 1202 297 c 2,28,-1
 1009 948 l 1,29,-1
 820 297 l 2,30,31
 778 152 778 152 766 0 c 1,32,-1
 449 0 l 1,0,1
EndSplineSet
Validated: 1
EndChar

StartChar: X
Encoding: 88 88 57
Width: 1507
GlyphClass: 2
Flags: W
HStem: 0 21G<10 407 1015.5 1497> 1490 20G<10 500.5 1095 1497>
DStem2: 787 973 199 1275 0.572424 -0.819958<-612.128 0 321.114 938.301> 207 229 527 263 0.605737 0.795665<-73.0804 556.224 943.302 1572.68>
LayerCount: 2
Fore
SplineSet
10 0 m 1,0,1
 102 92 102 92 207 229 c 2,2,-1
 592 731 l 1,3,-1
 199 1275 l 2,4,5
 87 1430 87 1430 10 1510 c 1,6,-1
 469 1510 l 1,7,8
 532 1354 532 1354 607 1242 c 2,9,-1
 787 973 l 1,10,-1
 982 1247 l 2,11,12
 1061 1358 1061 1358 1129 1510 c 1,13,-1
 1497 1510 l 1,14,15
 1413 1429 1413 1429 1300 1281 c 2,16,-1
 917 779 l 1,17,-1
 1308 235 l 2,18,19
 1418 82 1418 82 1497 0 c 1,20,-1
 1040 0 l 1,21,22
 991 135 991 135 902 268 c 2,23,-1
 722 536 l 1,24,-1
 527 263 l 2,25,26
 434 133 434 133 380 0 c 1,27,-1
 10 0 l 1,0,1
EndSplineSet
Validated: 1
EndChar

StartChar: Y
Encoding: 89 89 58
Width: 1453
GlyphClass: 2
Flags: W
HStem: 0 21G<535 915> 1490 20G<5 444 1082 1448>
VStem: 565 320<4.6875 629>
DStem2: 552 1237 185 1268 0.515893 -0.856653<-296.33 426.516> 771 871 885 629 0.514101 0.85773<0 719.04>
LayerCount: 2
Fore
SplineSet
535 0 m 1,0,1
 565 150 565 150 565 300 c 2,2,-1
 565 637 l 25,3,-1
 185 1268 l 2,4,5
 103 1404 103 1404 5 1510 c 1,6,-1
 423 1510 l 1,7,8
 465 1383 465 1383 552 1237 c 2,9,-1
 771 871 l 1,10,-1
 985 1237 l 2,11,12
 1050 1347 1050 1347 1114 1510 c 1,13,-1
 1448 1510 l 1,14,15
 1349 1403 1349 1403 1268 1268 c 2,16,-1
 885 629 l 25,17,-1
 885 300 l 2,18,19
 885 148 885 148 915 0 c 1,20,-1
 535 0 l 1,0,1
EndSplineSet
Validated: 1
EndChar

StartChar: Z
Encoding: 90 90 59
Width: 1383
GlyphClass: 2
Flags: W
HStem: 0 174<433 1344.62> 1336 174<143.964 951>
DStem2: 221 399 433 174 0.614582 0.788853<-43.3257 1183.31>
LayerCount: 2
Fore
SplineSet
74 0 m 1,0,-1
 20 174 l 1,1,2
 126 277 126 277 221 399 c 2,3,-1
 951 1336 l 1,4,-1
 439 1336 l 2,5,6
 298 1336 298 1336 139 1306 c 1,7,-1
 139 1510 l 1,8,-1
 1309 1510 l 1,9,-1
 1363 1336 l 1,10,11
 1257 1233 1257 1233 1162 1111 c 2,12,-1
 433 174 l 1,13,-1
 1049 174 l 2,14,15
 1209 174 1209 174 1349 204 c 1,16,-1
 1349 0 l 1,17,-1
 74 0 l 1,0,-1
EndSplineSet
Validated: 1
EndChar

StartChar: bracketleft
Encoding: 91 91 60
Width: 843
GlyphClass: 2
Flags: W
HStem: -250 174<483.125 828.559> 1586 174<483.906 828.312>
VStem: 160 320<-73.8047 1583.8>
LayerCount: 2
Fore
SplineSet
130 1760 m 1,0,-1
 833 1760 l 1,1,-1
 833 1556 l 1,2,3
 683 1586 683 1586 533 1586 c 2,4,-1
 490 1586 l 1,5,6
 480 1528 480 1528 480 1460 c 2,7,-1
 480 50 l 2,8,9
 480 -19 480 -19 488 -76 c 1,10,-1
 533 -76 l 2,11,12
 691 -76 691 -76 833 -46 c 1,13,-1
 833 -250 l 1,14,-1
 130 -250 l 1,15,16
 160 -104 160 -104 160 50 c 2,17,-1
 160 1460 l 2,18,19
 160 1614 160 1614 130 1760 c 1,0,-1
EndSplineSet
Validated: 1
EndChar

StartChar: backslash
Encoding: 92 92 61
Width: 1246
GlyphClass: 2
Flags: W
DStem2: 472 1405 164 1431 0.417928 -0.90848<-296.024 1602.82>
LayerCount: 2
Fore
SplineSet
1236 -180 m 1,0,1
 874 -180 l 1,2,3
 831 -19 831 -19 774 105 c 2,4,-1
 164 1431 l 2,5,6
 103 1563 103 1563 10 1690 c 1,7,-1
 372 1690 l 1,8,9
 409 1542 409 1542 472 1405 c 2,10,-1
 1082 79 l 18,11,12
 1138 -42 1138 -42 1236 -180 c 1,0,1
EndSplineSet
Validated: 1
EndChar

StartChar: bracketright
Encoding: 93 93 62
Width: 843
GlyphClass: 2
Flags: W
HStem: -250 174<14.4414 359.875> 1586 174<14.6875 359.094>
VStem: 363 320<-73.8047 1583.8>
LayerCount: 2
Fore
SplineSet
713 1760 m 1,0,1
 683 1614 683 1614 683 1460 c 2,2,-1
 683 50 l 2,3,4
 683 -104 683 -104 713 -250 c 1,5,-1
 10 -250 l 1,6,-1
 10 -46 l 1,7,8
 152 -76 152 -76 310 -76 c 2,9,-1
 355 -76 l 1,10,11
 363 -19 363 -19 363 50 c 2,12,-1
 363 1460 l 2,13,14
 363 1528 363 1528 353 1586 c 1,15,-1
 310 1586 l 2,16,17
 160 1586 160 1586 10 1556 c 1,18,-1
 10 1760 l 1,19,-1
 713 1760 l 1,0,1
EndSplineSet
Validated: 1
EndChar

StartChar: asciicircum
Encoding: 94 94 63
Width: 1093
GlyphClass: 2
Flags: W
HStem: 1150 380<361.994 442.854 651.27 732.195>
LayerCount: 2
Fore
SplineSet
374 1530 m 1,0,-1
 719 1530 l 1,1,2
 783 1302 783 1302 983 1160 c 1,3,-1
 983 1150 l 1,4,-1
 687 1150 l 1,5,6
 586 1264 586 1264 546 1389 c 1,7,8
 502 1251 502 1251 406 1150 c 1,9,-1
 110 1150 l 1,10,-1
 110 1160 l 1,11,12
 317 1311 317 1311 374 1530 c 1,0,-1
EndSplineSet
Validated: 1
EndChar

StartChar: underscore
Encoding: 95 95 64
Width: 1173
GlyphClass: 2
Flags: W
HStem: -244 174<114.688 1058.25>
LayerCount: 2
Fore
SplineSet
110 -40 m 1,0,1
 260 -70 260 -70 410 -70 c 2,2,-1
 763 -70 l 2,3,4
 911 -70 911 -70 1063 -40 c 1,5,-1
 1063 -274 l 1,6,7
 912 -244 912 -244 763 -244 c 2,8,-1
 410 -244 l 2,9,10
 260 -244 260 -244 110 -274 c 1,11,-1
 110 -40 l 1,0,1
EndSplineSet
Validated: 1
EndChar

StartChar: grave
Encoding: 96 96 65
Width: 493
GlyphClass: 2
Flags: W
HStem: 1180 350<225.189 316>
VStem: 20 453
LayerCount: 2
Fore
SplineSet
20 1530 m 1,0,-1
 316 1530 l 1,1,2
 316 1346 316 1346 473 1190 c 1,3,-1
 473 1180 l 1,4,-1
 276 1180 l 1,5,6
 107 1314 107 1314 20 1520 c 1,7,-1
 20 1530 l 1,0,-1
EndSplineSet
Validated: 1
EndChar

StartChar: a
Encoding: 97 97 66
Width: 1388
GlyphClass: 2
Flags: W
HStem: -20 153<555.037 835.217> 0 21G<905 1256> 967 153<554.568 837.128>
VStem: 60 330<323.81 775.773> 933 295<239.789 863.378>
LayerCount: 2
Fore
SplineSet
1256 0 m 1,0,-1
 905 0 l 1,1,2
 917 28 917 28 921 61 c 1,3,4
 814 -20 814 -20 636 -20 c 0,5,6
 394 -20 394 -20 228 136 c 0,7,8
 60 294 60 294 60 550 c 128,-1,9
 60 806 60 806 228 964 c 0,10,11
 394 1120 394 1120 636 1120 c 0,12,13
 791 1120 791 1120 911 1044 c 1,14,15
 908 1062 908 1062 905 1081 c 1,16,-1
 1255 1151 l 1,17,18
 1228 999 1228 999 1228 859 c 2,19,-1
 1228 294 l 2,20,21
 1228 150 1228 150 1256 0 c 1,0,-1
704 133 m 0,22,23
 819 133 819 133 883 230 c 0,24,25
 933 304 933 304 933 404 c 2,26,-1
 933 696 l 2,27,28
 933 802 933 802 883 874 c 0,29,30
 818 967 818 967 704 967 c 0,31,32
 570 967 570 967 481 852 c 0,33,34
 390 735 390 735 390 550 c 0,35,36
 390 363 390 363 481 248 c 128,-1,37
 572 133 572 133 704 133 c 0,22,23
EndSplineSet
Validated: 1
EndChar

StartChar: b
Encoding: 98 98 67
Width: 1388
GlyphClass: 2
Flags: W
HStem: -20 153<553.224 832.963> 0 21G<132 483> 967 153<550.775 833.432> 1541 20G<382 468.5>
VStem: 160 295<239.789 864.867 1037 1486.59> 998 330<323.81 775.773>
LayerCount: 2
Fore
SplineSet
132 0 m 1,0,1
 160 150 160 150 160 294 c 2,2,-1
 160 1195 l 2,3,4
 160 1350 160 1350 132 1491 c 1,5,-1
 482 1561 l 1,6,7
 455 1430 455 1430 455 1269 c 2,8,-1
 455 1037 l 1,9,10
 571 1120 571 1120 752 1120 c 0,11,12
 994 1120 994 1120 1160 964 c 0,13,14
 1328 806 1328 806 1328 550 c 128,-1,15
 1328 294 1328 294 1160 136 c 0,16,17
 994 -20 994 -20 752 -20 c 0,18,19
 574 -20 574 -20 467 61 c 1,20,21
 471 28 471 28 483 0 c 1,22,-1
 132 0 l 1,0,1
684 133 m 0,23,24
 816 133 816 133 907 248 c 128,-1,25
 998 363 998 363 998 550 c 0,26,27
 998 735 998 735 907 852 c 0,28,29
 818 967 818 967 684 967 c 0,30,31
 570 967 570 967 505 874 c 0,32,33
 455 802 455 802 455 696 c 2,34,-1
 455 404 l 2,35,36
 455 304 455 304 505 230 c 0,37,38
 571 133 571 133 684 133 c 0,23,24
EndSplineSet
Validated: 1
EndChar

StartChar: c
Encoding: 99 99 68
Width: 1238
GlyphClass: 2
Flags: W
HStem: -20 154<575.165 954.968> 966 154<576.016 930.588>
VStem: 60 338<324.039 776.586>
LayerCount: 2
Fore
SplineSet
734 -20 m 0,0,1
 417 -20 417 -20 238 141 c 0,2,3
 60 302 60 302 60 550 c 0,4,5
 60 800 60 800 240 960 c 0,6,7
 421 1120 421 1120 734 1120 c 0,8,9
 980 1120 980 1120 1163 1001 c 1,10,-1
 1163 701 l 1,11,-1
 1153 701 l 1,12,13
 976 966 976 966 765 966 c 0,14,15
 588 966 588 966 491 852 c 0,16,17
 398 743 398 743 398 550 c 128,-1,18
 398 357 398 357 491 248 c 0,19,20
 588 134 588 134 765 134 c 0,21,22
 948 134 948 134 1063 265 c 0,23,24
 1131 342 1131 342 1168 399 c 1,25,-1
 1178 399 l 1,26,-1
 1178 141 l 1,27,28
 984 -20 984 -20 734 -20 c 0,0,1
EndSplineSet
Validated: 1
EndChar

StartChar: d
Encoding: 100 100 69
Width: 1388
GlyphClass: 2
Flags: W
HStem: -20 153<555.037 835.217> 0 21G<905 1256> 967 153<554.568 837.225> 1541 20G<1155 1241.5>
VStem: 60 330<323.81 775.773> 933 295<239.789 864.867 1037 1486.59>
LayerCount: 2
Fore
SplineSet
1256 0 m 1,0,1
 905 0 l 1,2,3
 917 28 917 28 921 61 c 1,4,5
 814 -20 814 -20 636 -20 c 0,6,7
 394 -20 394 -20 228 136 c 0,8,9
 60 294 60 294 60 550 c 128,-1,10
 60 806 60 806 228 964 c 0,11,12
 394 1120 394 1120 636 1120 c 0,13,14
 817 1120 817 1120 933 1037 c 1,15,-1
 933 1195 l 2,16,17
 933 1350 933 1350 905 1491 c 1,18,-1
 1255 1561 l 1,19,20
 1228 1430 1228 1430 1228 1269 c 2,21,-1
 1228 294 l 2,22,23
 1228 150 1228 150 1256 0 c 1,0,1
704 133 m 0,24,25
 819 133 819 133 883 230 c 0,26,27
 933 304 933 304 933 404 c 2,28,-1
 933 696 l 2,29,30
 933 802 933 802 883 874 c 0,31,32
 818 967 818 967 704 967 c 0,33,34
 570 967 570 967 481 852 c 0,35,36
 390 735 390 735 390 550 c 0,37,38
 390 363 390 363 481 248 c 128,-1,39
 572 133 572 133 704 133 c 0,24,25
EndSplineSet
Validated: 1
EndChar

StartChar: e
Encoding: 101 101 70
Width: 1318
GlyphClass: 2
Flags: W
HStem: -20 154<568.094 941.221> 473 156<399 915> 967 153<536.948 802.456>
LayerCount: 2
Fore
SplineSet
724 -20 m 0,0,1
 417 -19 417 -19 238 141 c 0,2,3
 60 301 60 301 60 551 c 128,-1,4
 60 801 60 801 240 960 c 0,5,6
 422 1120 422 1120 674 1120 c 0,7,8
 982 1120 982 1120 1137 921 c 0,9,10
 1258 767 1258 767 1258 526 c 1,11,-1
 1208 473 l 1,12,-1
 399 473 l 1,13,14
 413 327 413 327 483 246 c 0,15,16
 579 134 579 134 755 134 c 0,17,18
 937 134 937 134 1053 265 c 0,19,20
 1118 338 1118 338 1158 399 c 1,21,-1
 1168 399 l 1,22,-1
 1168 141 l 1,23,24
 974 -20 974 -20 724 -20 c 0,0,1
399 629 m 1,25,-1
 915 629 l 1,26,27
 905 775 905 775 865 846 c 0,28,29
 797 967 797 967 674 967 c 0,30,31
 549 967 549 967 471 853 c 0,32,33
 410 763 410 763 399 629 c 1,25,-1
EndSplineSet
Validated: 1
EndChar

StartChar: f
Encoding: 102 102 71
Width: 920
GlyphClass: 2
Flags: W
HStem: 0 21G<172 523> 754 158<52.2798 200 495 780.471> 1395 135<577.363 823.77>
VStem: 200 295<4.7168 754 912 1306.06> 890 10<1246 1255.17>
LayerCount: 2
Fore
SplineSet
172 0 m 1,0,1
 200 150 200 150 200 294 c 2,2,-1
 200 754 l 1,3,-1
 190 754 l 2,4,5
 123 754 123 754 50 728 c 1,6,-1
 50 938 l 1,7,8
 123 912 123 912 190 912 c 2,9,-1
 200 912 l 1,10,-1
 200 1064 l 2,11,12
 200 1310 200 1310 309 1414 c 0,13,14
 429 1530 429 1530 673 1530 c 0,15,16
 806 1530 806 1530 900 1511 c 1,17,-1
 900 1246 l 1,18,-1
 890 1246 l 1,19,20
 835 1395 835 1395 699 1395 c 0,21,22
 615 1395 615 1395 562 1338 c 0,23,24
 495 1267 495 1267 495 1095 c 2,25,-1
 495 912 l 1,26,-1
 505 912 l 2,27,28
 641 912 641 912 785 940 c 1,29,-1
 785 726 l 1,30,31
 640 754 640 754 505 754 c 2,32,-1
 495 754 l 1,33,-1
 495 294 l 2,34,35
 495 151 495 151 523 0 c 1,36,-1
 172 0 l 1,0,1
EndSplineSet
Validated: 1
EndChar

StartChar: g
Encoding: 103 103 72
Width: 1387
GlyphClass: 2
Flags: W
HStem: -429 153<414.11 781.12> -20 153<555.037 827.109> 967 153<554.568 837.128>
VStem: 60 330<323.81 775.773> 933 295<-103.716 105 239.352 863.378>
LayerCount: 2
Fore
SplineSet
636 -20 m 0,0,1
 394 -20 394 -20 228 136 c 0,2,3
 60 294 60 294 60 550 c 128,-1,4
 60 806 60 806 228 964 c 0,5,6
 394 1120 394 1120 636 1120 c 0,7,8
 791 1120 791 1120 911 1044 c 1,9,10
 908 1062 908 1062 905 1081 c 1,11,-1
 1255 1151 l 1,12,13
 1228 999 1228 999 1228 859 c 2,14,-1
 1228 159 l 2,15,16
 1228 -94 1228 -94 1105 -240 c 0,17,18
 946 -429 946 -429 686 -429 c 0,19,20
 429 -429 429 -429 244 -342 c 1,21,-1
 244 -48 l 1,22,-1
 254 -48 l 1,23,24
 293 -142 293 -142 364 -199 c 0,25,26
 460 -276 460 -276 609 -276 c 0,27,28
 764 -276 764 -276 849 -176 c 0,29,30
 923 -88 923 -88 927 105 c 1,31,32
 818 -20 818 -20 636 -20 c 0,0,1
704 133 m 0,33,34
 819 133 819 133 883 230 c 0,35,36
 933 304 933 304 933 404 c 2,37,-1
 933 696 l 2,38,39
 933 802 933 802 883 874 c 0,40,41
 818 967 818 967 704 967 c 0,42,43
 570 967 570 967 481 852 c 0,44,45
 390 735 390 735 390 550 c 0,46,47
 390 363 390 363 481 248 c 128,-1,48
 572 133 572 133 704 133 c 0,33,34
EndSplineSet
Validated: 1
EndChar

StartChar: h
Encoding: 104 104 73
Width: 1381
GlyphClass: 2
Flags: W
HStem: 0 21G<132 483 893 1249> 955 165<579.362 820.748> 1541 20G<382 468.5>
VStem: 160 295<4.68604 845.094 989 1486.19> 921 300<4.7168 845.73>
LayerCount: 2
Fore
SplineSet
132 0 m 1,0,1
 160 147 160 147 160 294 c 2,2,-1
 160 1195 l 2,3,4
 160 1337 160 1337 132 1491 c 1,5,-1
 482 1561 l 1,6,7
 455 1409 455 1409 455 1269 c 2,8,-1
 455 989 l 1,9,10
 583 1120 583 1120 804 1120 c 0,11,12
 1054 1120 1054 1120 1160 941 c 0,13,14
 1221 838 1221 838 1221 638 c 2,15,-1
 1221 294 l 2,16,17
 1221 151 1221 151 1249 0 c 1,18,-1
 893 0 l 1,19,20
 921 151 921 151 921 294 c 2,21,-1
 921 634 l 2,22,23
 921 789 921 789 866 864 c 0,24,25
 798 955 798 955 689 955 c 0,26,27
 579 955 579 955 513 866 c 0,28,29
 455 787 455 787 455 634 c 2,30,-1
 455 294 l 2,31,32
 455 150 455 150 483 0 c 1,33,-1
 132 0 l 1,0,1
EndSplineSet
Validated: 1
EndChar

StartChar: i
Encoding: 105 105 74
Width: 610
GlyphClass: 2
Flags: W
HStem: 0 21G<132 483> 1217 370<186.14 423.86>
VStem: 123 364<452.906 1083.8 1279.58 1524.42> 160 295<4.68604 1076.19>
LayerCount: 2
Fore
SplineSet
305 1587 m 128,-1,1
 381 1587 381 1587 434 1533 c 128,-1,2
 487 1479 487 1479 487 1402 c 128,-1,3
 487 1325 487 1325 434 1271 c 128,-1,4
 381 1217 381 1217 305 1217 c 128,-1,5
 229 1217 229 1217 176 1271 c 128,-1,6
 123 1325 123 1325 123 1402 c 128,-1,7
 123 1479 123 1479 176 1533 c 128,-1,0
 229 1587 229 1587 305 1587 c 128,-1,1
132 0 m 1,8,9
 160 147 160 147 160 294 c 2,10,-1
 160 785 l 2,11,12
 160 927 160 927 132 1081 c 1,13,-1
 482 1151 l 1,14,15
 455 999 455 999 455 859 c 2,16,-1
 455 294 l 2,17,18
 455 150 455 150 483 0 c 1,19,-1
 132 0 l 1,8,9
EndSplineSet
Validated: 1
EndChar

StartChar: j
Encoding: 106 106 75
Width: 610
GlyphClass: 2
Flags: W
HStem: -430 10<-20 -14.4189> 1217 370<186.14 423.86>
VStem: 123 364<453.453 1083.8 1279.58 1524.42> 160 295<-235.212 1076.19>
LayerCount: 2
Fore
SplineSet
-20 -430 m 1,0,-1
 -20 -420 l 1,1,2
 160 -337 160 -337 160 -36 c 2,3,-1
 160 785 l 2,4,5
 160 927 160 927 132 1081 c 1,6,-1
 482 1151 l 1,7,8
 455 999 455 999 455 859 c 2,9,-1
 455 -36 l 2,10,11
 455 -430 455 -430 -20 -430 c 1,0,-1
305 1587 m 128,-1,13
 381 1587 381 1587 434 1533 c 128,-1,14
 487 1479 487 1479 487 1402 c 128,-1,15
 487 1325 487 1325 434 1271 c 128,-1,16
 381 1217 381 1217 305 1217 c 128,-1,17
 229 1217 229 1217 176 1271 c 128,-1,18
 123 1325 123 1325 123 1402 c 128,-1,19
 123 1479 123 1479 176 1533 c 128,-1,12
 229 1587 229 1587 305 1587 c 128,-1,13
EndSplineSet
Validated: 1
EndChar

StartChar: k
Encoding: 107 107 76
Width: 1341
GlyphClass: 2
Flags: W
HStem: 0 21G<132 483 820.5 1336> 1080 20G<782 1183> 1541 20G<382 468.5>
VStem: 160 295<4.68604 425 694 1486.19>
DStem2: 455 694 660 615 0.719519 0.694473<92.6381 540.155> 660 615 455 425 0.72325 -0.690587<0 563.709>
LayerCount: 2
Fore
SplineSet
132 0 m 1,0,1
 160 147 160 147 160 294 c 2,2,-1
 160 1195 l 2,3,4
 160 1337 160 1337 132 1491 c 1,5,-1
 482 1561 l 1,6,7
 455 1409 455 1409 455 1269 c 2,8,-1
 455 694 l 1,9,-1
 633 867 l 2,10,11
 744 975 744 975 820 1100 c 1,12,-1
 1183 1100 l 1,13,14
 1063 1004 1063 1004 976 920 c 2,15,-1
 660 615 l 1,16,-1
 1125 171 l 2,17,18
 1226 75 1226 75 1336 0 c 1,19,-1
 858 0 l 1,20,21
 783 116 783 116 664 228 c 2,22,-1
 455 425 l 1,23,-1
 455 294 l 2,24,25
 455 150 455 150 483 0 c 1,26,-1
 132 0 l 1,0,1
EndSplineSet
Validated: 1
EndChar

StartChar: l
Encoding: 108 108 77
Width: 615
GlyphClass: 2
Flags: W
HStem: 0 21G<132 483> 1541 20G<382 468.5>
VStem: 160 295<4.68604 1486.19>
LayerCount: 2
Fore
SplineSet
132 0 m 1,0,1
 160 147 160 147 160 294 c 6,2,-1
 160 1195 l 2,3,4
 160 1337 160 1337 132 1491 c 1,5,-1
 482 1561 l 1,6,7
 455 1409 455 1409 455 1269 c 2,8,-1
 455 294 l 2,9,10
 455 150 455 150 483 0 c 1,11,-1
 132 0 l 1,0,1
EndSplineSet
Validated: 1
EndChar

StartChar: m
Encoding: 109 109 78
Width: 2147
GlyphClass: 2
Flags: W
HStem: 0 21G<132 483 893 1249 1659 2015> 955 165<576.491 820.712 1320.55 1588>
VStem: 160 295<4.68604 841.875> 921 300<4.68604 846.318> 1687 300<4.68604 850.578>
LayerCount: 2
Fore
SplineSet
132 0 m 1,0,1
 160 147 160 147 160 294 c 2,2,-1
 160 786 l 2,3,4
 160 921 160 921 132 1081 c 1,5,-1
 482 1151 l 1,6,7
 465 1071 465 1071 461 995 c 1,8,9
 583 1120 583 1120 804 1120 c 0,10,11
 1053 1120 1053 1120 1148 945 c 1,12,13
 1284 1120 1284 1120 1570 1120 c 0,14,15
 1820 1120 1820 1120 1926 941 c 0,16,17
 1987 839 1987 839 1987 638 c 2,18,-1
 1987 294 l 2,19,20
 1987 150 1987 150 2015 0 c 1,21,-1
 1659 0 l 1,22,23
 1687 147 1687 147 1687 294 c 2,24,-1
 1687 638 l 2,25,26
 1687 793 1687 793 1632 868 c 0,27,28
 1564 959 1564 959 1455 959 c 0,29,30
 1345 959 1345 959 1279 870 c 0,31,32
 1221 791 1221 791 1221 638 c 2,33,-1
 1221 294 l 2,34,35
 1221 150 1221 150 1249 0 c 1,36,-1
 898 0 l 1,37,-1
 893 0 l 1,38,39
 921 147 921 147 921 294 c 2,40,-1
 921 634 l 2,41,42
 921 789 921 789 866 864 c 0,43,44
 798 955 798 955 689 955 c 0,45,46
 579 955 579 955 513 866 c 0,47,48
 455 787 455 787 455 634 c 2,49,-1
 455 294 l 2,50,51
 455 150 455 150 483 0 c 1,52,-1
 132 0 l 1,0,1
EndSplineSet
Validated: 1
EndChar

StartChar: n
Encoding: 110 110 79
Width: 1381
GlyphClass: 2
Flags: W
HStem: 0 21G<132 483 893 1249> 955 165<576.491 820.748>
VStem: 160 295<4.68604 841.875> 921 300<4.68604 846.206>
LayerCount: 2
Fore
SplineSet
132 0 m 1,0,1
 160 147 160 147 160 294 c 2,2,-1
 160 786 l 2,3,4
 160 921 160 921 132 1081 c 1,5,-1
 482 1151 l 1,6,7
 465 1071 465 1071 461 995 c 1,8,9
 583 1120 583 1120 804 1120 c 0,10,11
 1054 1120 1054 1120 1160 941 c 0,12,13
 1221 839 1221 839 1221 638 c 2,14,-1
 1221 294 l 2,15,16
 1221 150 1221 150 1249 0 c 1,17,-1
 893 0 l 1,18,19
 921 147 921 147 921 294 c 2,20,-1
 921 634 l 2,21,22
 921 789 921 789 866 864 c 0,23,24
 798 955 798 955 689 955 c 0,25,26
 579 955 579 955 513 866 c 0,27,28
 455 787 455 787 455 634 c 2,29,-1
 455 294 l 2,30,31
 455 150 455 150 483 0 c 1,32,-1
 132 0 l 1,0,1
EndSplineSet
Validated: 1
EndChar

StartChar: o
Encoding: 111 111 80
Width: 1368
GlyphClass: 2
Flags: W
HStem: -20 155<545.274 825.966> 965 155<542.012 825.825>
VStem: 60 330<324.057 775.565> 978 330<325.251 776.539>
LayerCount: 2
Fore
SplineSet
683 -20 m 128,-1,1
 418 -20 418 -20 238 142 c 0,2,3
 60 302 60 302 60 550 c 0,4,5
 60 800 60 800 240 960 c 0,6,7
 421 1120 421 1120 683 1120 c 0,8,9
 950 1120 950 1120 1130 959 c 0,10,11
 1308 799 1308 799 1308 550 c 128,-1,12
 1308 301 1308 301 1128 141 c 0,13,0
 948 -20 948 -20 683 -20 c 128,-1,1
683 135 m 0,14,15
 811 135 811 135 897 248 c 0,16,17
 978 354 978 354 978 550 c 0,18,19
 978 749 978 749 892 857 c 128,-1,20
 806 965 806 965 682.5 965 c 128,-1,21
 559 965 559 965 471 852 c 0,22,23
 390 748 390 748 390 550 c 128,-1,24
 390 352 390 352 476 243 c 0,25,26
 562 135 562 135 683 135 c 0,14,15
EndSplineSet
Validated: 1
EndChar

StartChar: p
Encoding: 112 112 81
Width: 1388
GlyphClass: 2
Flags: W
HStem: -410 21G<132 483> -20 153<552.725 832.963> 967 153<550.508 833.432>
VStem: 160 295<-405.314 71 239.352 864.867> 998 330<323.81 775.773>
LayerCount: 2
Fore
SplineSet
684 133 m 0,0,1
 816 133 816 133 907 248 c 128,-1,2
 998 363 998 363 998 550 c 0,3,4
 998 735 998 735 907 852 c 0,5,6
 818 967 818 967 684 967 c 0,7,8
 570 967 570 967 505 874 c 0,9,10
 455 802 455 802 455 696 c 2,11,-1
 455 404 l 2,12,13
 455 304 455 304 505 230 c 0,14,15
 571 133 571 133 684 133 c 0,0,1
752 -20 m 0,16,17
 573 -20 573 -20 455 71 c 1,18,-1
 455 -116 l 2,19,20
 455 -263 455 -263 483 -410 c 1,21,-1
 132 -410 l 1,22,23
 160 -260 160 -260 160 -116 c 2,24,-1
 160 785 l 2,25,26
 160 927 160 927 132 1081 c 1,27,-1
 482 1151 l 1,28,29
 470 1091 470 1091 465 1037 c 1,30,31
 599 1120 599 1120 752 1120 c 0,32,33
 994 1120 994 1120 1160 964 c 0,34,35
 1328 806 1328 806 1328 550 c 128,-1,36
 1328 294 1328 294 1160 136 c 0,37,38
 994 -20 994 -20 752 -20 c 0,16,17
EndSplineSet
Validated: 1
EndChar

StartChar: q
Encoding: 113 113 82
Width: 1388
GlyphClass: 2
Flags: W
HStem: -410 21G<905 1256> -20 153<555.037 835.715> 967 153<554.568 837.128>
VStem: 60 330<323.81 775.773> 933 295<-405.314 71 239.352 863.378>
LayerCount: 2
Fore
SplineSet
704 133 m 0,0,1
 819 133 819 133 883 230 c 0,2,3
 933 304 933 304 933 404 c 2,4,-1
 933 696 l 2,5,6
 933 802 933 802 883 874 c 0,7,8
 818 967 818 967 704 967 c 0,9,10
 570 967 570 967 481 852 c 0,11,12
 390 735 390 735 390 550 c 0,13,14
 390 363 390 363 481 248 c 128,-1,15
 572 133 572 133 704 133 c 0,0,1
636 -20 m 0,16,17
 394 -20 394 -20 228 136 c 0,18,19
 60 294 60 294 60 550 c 128,-1,20
 60 806 60 806 228 964 c 0,21,22
 394 1120 394 1120 636 1120 c 0,23,24
 791 1120 791 1120 911 1044 c 1,25,26
 910 1063 910 1063 905 1081 c 1,27,-1
 1255 1151 l 1,28,29
 1228 999 1228 999 1228 859 c 2,30,-1
 1228 -116 l 2,31,32
 1228 -260 1228 -260 1256 -410 c 1,33,-1
 905 -410 l 1,34,35
 933 -263 933 -263 933 -116 c 2,36,-1
 933 71 l 1,37,38
 815 -20 815 -20 636 -20 c 0,16,17
EndSplineSet
Validated: 1
EndChar

StartChar: r
Encoding: 114 114 83
Width: 917
GlyphClass: 2
Flags: W
HStem: 0 21G<132 483> 955 165<569.875 821.469>
VStem: 160 295<4.68604 841.16> 897 10<808 817.044>
LayerCount: 2
Fore
SplineSet
132 0 m 1,0,1
 160 147 160 147 160 294 c 2,2,-1
 160 786 l 2,3,4
 160 933 160 933 132 1081 c 1,5,-1
 482 1151 l 1,6,7
 465 1071 465 1071 461 995 c 1,8,9
 583 1120 583 1120 769 1120 c 0,10,11
 850 1120 850 1120 907 1090 c 1,12,-1
 907 808 l 1,13,-1
 897 808 l 1,14,15
 830 955 830 955 689 955 c 0,16,17
 569 955 569 955 513 866 c 0,18,19
 454 772 454 772 454 634 c 2,20,-1
 455 294 l 2,21,22
 455 150 455 150 483 0 c 1,23,-1
 132 0 l 1,0,1
EndSplineSet
Validated: 1
EndChar

StartChar: s
Encoding: 115 115 84
Width: 913
GlyphClass: 2
Flags: W
HStem: -20 154<223.775 522.675> 976 144<435.511 635.173>
VStem: 120 291<790.824 955.876> 576 297<188.075 398.516>
DStem2: 504 750 330 538 0.841997 -0.539483<-133.513 282.645>
LayerCount: 2
Fore
SplineSet
424 -20 m 0,0,1
 217 -20 217 -20 40 88 c 1,2,-1
 40 400 l 1,3,-1
 50 400 l 1,4,5
 101 287 101 287 175 216 c 0,6,7
 260 134 260 134 386 134 c 0,8,9
 485 134 485 134 535 190 c 0,10,11
 576 236 576 236 576 299 c 0,12,13
 576 381 576 381 471 448 c 2,14,-1
 330 538 l 2,15,16
 120 672 120 672 120 839 c 0,17,18
 120 965 120 965 233 1052 c 0,19,20
 322 1120 322 1120 464 1120 c 128,-1,21
 606 1120 606 1120 742 1074 c 1,22,-1
 742 816 l 1,23,-1
 732 816 l 1,24,25
 637 976 637 976 523 976 c 0,26,27
 474 976 474 976 445 954 c 0,28,29
 411 928 411 928 411 885 c 0,30,31
 411 810 411 810 504 750 c 2,32,-1
 671 643 l 2,33,34
 873 514 873 514 873 355 c 0,35,36
 873 186 873 186 744 82 c 0,37,38
 617 -20 617 -20 424 -20 c 0,0,1
EndSplineSet
Validated: 1
EndChar

StartChar: t
Encoding: 116 116 85
Width: 895
GlyphClass: 2
Flags: W
HStem: 0 21G<272 623> 913 159<14.4365 300 595 880.471> 1080 20G<10 80.5 813 885> 1530 20G<469.826 608.5>
VStem: 300 295<4.68604 913 1072 1500.14>
LayerCount: 2
Fore
SplineSet
272 0 m 1,0,1
 300 149 300 149 300 294 c 2,2,-1
 300 913 l 1,3,-1
 290 913 l 2,4,5
 152 913 152 913 10 885 c 1,6,-1
 10 1100 l 1,7,8
 151 1072 151 1072 290 1072 c 2,9,-1
 300 1072 l 1,10,-1
 300 1208 l 2,11,12
 300 1381 300 1381 272 1504 c 1,13,-1
 622 1550 l 1,14,15
 595 1395 595 1395 595 1259 c 2,16,-1
 595 1072 l 1,17,-1
 605 1072 l 2,18,19
 741 1072 741 1072 885 1100 c 1,20,-1
 885 885 l 1,21,22
 740 913 740 913 605 913 c 2,23,-1
 595 913 l 1,24,-1
 595 294 l 2,25,26
 595 150 595 150 623 0 c 1,27,-1
 272 0 l 1,0,1
EndSplineSet
Validated: 1
EndChar

StartChar: u
Encoding: 117 117 86
Width: 1381
GlyphClass: 2
Flags: W
HStem: -20 165<560.071 804.509> 0 21G<898 1249>
VStem: 160 300<253.286 1076.19> 926 295<257.906 1076.19>
LayerCount: 2
Fore
SplineSet
1249 0 m 1,0,-1
 898 0 l 1,1,2
 914 51 914 51 920 105 c 1,3,4
 798 -20 798 -20 577 -20 c 0,5,6
 321 -20 321 -20 223 161 c 0,7,8
 160 277 160 277 160 462 c 2,9,-1
 160 785 l 2,10,11
 160 927 160 927 132 1081 c 1,12,-1
 487 1151 l 1,13,14
 460 999 460 999 460 859 c 2,15,-1
 460 466 l 2,16,17
 460 310 460 310 515 236 c 0,18,19
 583 145 583 145 692 145 c 0,20,21
 802 145 802 145 868 234 c 0,22,23
 926 313 926 313 926 466 c 2,24,-1
 926 785 l 2,25,26
 926 927 926 927 898 1081 c 1,27,-1
 1248 1151 l 1,28,29
 1221 998 1221 998 1221 859 c 2,30,-1
 1221 294 l 2,31,32
 1221 150 1221 150 1249 0 c 1,0,-1
EndSplineSet
Validated: 1
EndChar

StartChar: v
Encoding: 118 118 87
Width: 1290
GlyphClass: 2
Flags: W
HStem: 0 21G<491.5 804.5> 1080 20G<5 410.5 969 1285>
DStem2: 489 816 149 851 0.415494 -0.909596<-294.135 481.243> 691 374 886 284 0.410164 0.912012<0 778.906>
LayerCount: 2
Fore
SplineSet
506 0 m 1,0,1
 477 132 477 132 408 284 c 2,2,-1
 149 851 l 2,3,4
 99 961 99 961 5 1100 c 1,5,-1
 391 1100 l 1,6,7
 430 945 430 945 489 816 c 2,8,-1
 691 374 l 1,9,-1
 889 816 l 2,10,11
 951 954 951 954 987 1100 c 1,12,-1
 1285 1100 l 1,13,14
 1194 969 1194 969 1141 851 c 2,15,-1
 886 284 l 2,16,17
 821 139 821 139 788 0 c 1,18,-1
 506 0 l 1,0,1
EndSplineSet
Validated: 1
EndChar

StartChar: w
Encoding: 119 119 88
Width: 1791
GlyphClass: 2
Flags: W
HStem: 0 21G<378.5 708.5 1103 1414> 1080 20G<10 383 790.5 1071 1479 1781>
VStem: 388 312<0 208.954> 800 262<887.272 1100> 1113 290<0 211.38>
DStem2: 442 809 128 835 0.329732 -0.944075<-292.594 452.25> 591 382 768 291 0.313558 0.949569<0 390.306> 1130 809 900 691 0.330153 -0.943927<35.4482 451.306> 1279 383 1471 291 0.312559 0.949899<0 742.182>
LayerCount: 2
Fore
SplineSet
388 0 m 1,0,1
 369 145 369 145 318 291 c 2,2,-1
 128 835 l 2,3,4
 82 967 82 967 10 1100 c 1,5,-1
 374 1100 l 1,6,7
 392 952 392 952 442 809 c 2,8,-1
 591 382 l 1,9,-1
 732 809 l 2,10,11
 781 957 781 957 800 1100 c 1,12,-1
 1062 1100 l 1,13,14
 1080 952 1080 952 1130 809 c 2,15,-1
 1279 383 l 1,16,-1
 1419 809 l 2,17,18
 1470 964 1470 964 1488 1100 c 1,19,-1
 1781 1100 l 1,20,21
 1692 963 1692 963 1650 835 c 2,22,-1
 1471 291 l 2,23,24
 1425 151 1425 151 1403 0 c 1,25,-1
 1113 0 l 1,26,27
 1093 151 1093 151 1043 291 c 2,28,-1
 900 691 l 1,29,-1
 768 291 l 2,30,31
 717 136 717 136 700 0 c 1,32,-1
 388 0 l 1,0,1
EndSplineSet
Validated: 1
EndChar

StartChar: x
Encoding: 120 120 89
Width: 1195
GlyphClass: 2
Flags: W
HStem: 0 21G<12 382 745 1185> 1080 20G<10 448 812 1184>
DStem2: 564 836 191 883 0.578493 -0.815688<-295.123 97.6506 406.525 798.564> 441 519 506 256 0.607727 0.794146<-464.511 -58.7556 296.996 702.861>
LayerCount: 2
Fore
SplineSet
12 0 m 1,0,1
 126 105 126 105 202 205 c 2,2,-1
 441 519 l 1,3,-1
 191 883 l 2,4,5
 119 988 119 988 10 1100 c 1,6,-1
 418 1100 l 1,7,8
 478 959 478 959 564 836 c 2,9,-1
 620 756 l 1,10,-1
 687 844 l 2,11,12
 778 964 778 964 846 1100 c 1,13,-1
 1184 1100 l 1,14,15
 1077 1003 1077 1003 995 895 c 2,16,-1
 755 579 l 1,17,-1
 1003 217 l 2,18,19
 1081 103 1081 103 1185 0 c 1,20,-1
 773 0 l 1,21,22
 717 127 717 127 627 263 c 2,23,-1
 573 344 l 1,24,-1
 506 256 l 2,25,26
 417 139 417 139 347 0 c 1,27,-1
 12 0 l 1,0,1
EndSplineSet
Validated: 1
EndChar

StartChar: y
Encoding: 121 121 90
Width: 1381
GlyphClass: 2
Flags: W
HStem: -429 153<407.199 774.45> -20 165<559.949 804.509>
VStem: 160 300<254.031 1076.19> 926 295<-103.716 105 254.906 1076.56>
LayerCount: 2
Fore
SplineSet
577 -20 m 0,0,1
 317 -20 317 -20 220 160 c 0,2,3
 160 270 160 270 160 462 c 2,4,-1
 160 785 l 2,5,6
 160 927 160 927 132 1081 c 1,7,-1
 487 1151 l 1,8,9
 460 999 460 999 460 859 c 2,10,-1
 460 466 l 2,11,12
 460 310 460 310 515 236 c 0,13,14
 583 145 583 145 692 145 c 0,15,16
 802 145 802 145 868 234 c 0,17,18
 926 313 926 313 926 466 c 2,19,-1
 926 785 l 2,20,21
 926 939 926 939 898 1081 c 1,22,-1
 1248 1151 l 1,23,24
 1221 998 1221 998 1221 859 c 2,25,-1
 1221 159 l 2,26,27
 1221 -94 1221 -94 1098 -240 c 0,28,29
 939 -429 939 -429 680 -429 c 0,30,31
 422 -429 422 -429 237 -342 c 1,32,-1
 237 -48 l 1,33,-1
 247 -48 l 1,34,35
 286 -142 286 -142 357 -199 c 0,36,37
 453 -276 453 -276 602 -276 c 0,38,39
 757 -276 757 -276 842 -176 c 0,40,41
 916 -89 916 -89 920 105 c 1,42,43
 798 -20 798 -20 577 -20 c 0,0,1
EndSplineSet
Validated: 1
EndChar

StartChar: z
Encoding: 122 122 91
Width: 1097
GlyphClass: 2
Flags: W
HStem: 0 154<411 1062.5> 946 154<147.993 688>
DStem2: 688 946 411 154 0.619644 0.784883<-792.743 -0.595439>
LayerCount: 2
Fore
SplineSet
76 0 m 1,0,-1
 20 154 l 1,1,2
 137 248 137 248 208 338 c 2,3,-1
 688 946 l 1,4,-1
 434 946 l 2,5,6
 303 946 303 946 143 918 c 1,7,-1
 143 1100 l 1,8,-1
 1027 1100 l 1,9,-1
 1077 946 l 1,10,11
 981 876 981 876 891 762 c 2,12,-1
 411 154 l 1,13,-1
 776 154 l 2,14,15
 923 154 923 154 1067 182 c 1,16,-1
 1067 0 l 1,17,-1
 76 0 l 1,0,-1
EndSplineSet
Validated: 1
EndChar

StartChar: braceleft
Encoding: 123 123 92
Width: 895
GlyphClass: 2
Flags: W
HStem: -246 10<779.419 785> 1750 10<779.419 785>
VStem: 110 209<647.5 866.5> 290 315<-68.7456 624.367 889.633 1582.75>
LayerCount: 2
Fore
SplineSet
785 1760 m 1,0,-1
 785 1750 l 1,1,2
 605 1667 605 1667 605 1406 c 2,3,-1
 605 1066 l 2,4,5
 605 792 605 792 319 757 c 1,6,7
 605 722 605 722 605 448 c 2,8,-1
 605 108 l 2,9,10
 605 -153 605 -153 785 -236 c 1,11,-1
 785 -246 l 1,12,13
 290 -246 290 -246 290 108 c 2,14,-1
 290 448 l 2,15,16
 290 668 290 668 110 752 c 1,17,-1
 110 762 l 1,18,19
 290 846 290 846 290 1066 c 2,20,-1
 290 1406 l 2,21,22
 290 1760 290 1760 785 1760 c 1,0,-1
EndSplineSet
Validated: 1
EndChar

StartChar: bar
Encoding: 124 124 93
Width: 700
GlyphClass: 2
Flags: W
VStem: 210 280<-175.312 1685.31>
LayerCount: 2
Fore
SplineSet
180 -180 m 1,0,1
 210 -30 210 -30 210 120 c 2,2,-1
 210 1390 l 2,3,4
 210 1540 210 1540 180 1690 c 1,5,-1
 520 1690 l 1,6,7
 490 1540 490 1540 490 1390 c 2,8,-1
 490 120 l 2,9,10
 490 -30 490 -30 520 -180 c 1,11,-1
 180 -180 l 1,0,1
EndSplineSet
Validated: 1
EndChar

StartChar: braceright
Encoding: 125 125 94
Width: 895
GlyphClass: 2
Flags: W
HStem: -246 10<110 115.581> 1750 10<110 115.581>
VStem: 290 315<-68.7456 624.367 889.633 1582.75> 576 209<647.5 866.5>
LayerCount: 2
Fore
SplineSet
110 1760 m 1,0,1
 605 1760 605 1760 605 1406 c 2,2,-1
 605 1066 l 2,3,4
 605 846 605 846 785 762 c 1,5,-1
 785 752 l 1,6,7
 605 668 605 668 605 448 c 2,8,-1
 605 108 l 2,9,10
 605 -246 605 -246 110 -246 c 1,11,-1
 110 -236 l 1,12,13
 290 -153 290 -153 290 108 c 2,14,-1
 290 448 l 2,15,16
 290 722 290 722 576 757 c 1,17,18
 290 792 290 792 290 1066 c 2,19,-1
 290 1406 l 2,20,21
 290 1667 290 1667 110 1750 c 1,22,-1
 110 1760 l 1,0,1
EndSplineSet
Validated: 1
EndChar

StartChar: asciitilde
Encoding: 126 126 95
Width: 1126
GlyphClass: 2
Flags: W
HStem: 520 228<684.389 924.089> 728 228<201.473 441.611>
VStem: 110 10<520 539.043> 1006 10<936.957 956>
DStem2: 551 880 575 596 0.833975 -0.551803<-109.757 286.484>
LayerCount: 2
Fore
SplineSet
110 887 m 1,0,1
 197 956 197 956 328 956 c 0,2,3
 436 956 436 956 551 880 c 2,4,-1
 684 792 l 2,5,6
 751 748 751 748 809 748 c 272,7,8
 960 748 960 748 1006 956 c 1,9,-1
 1016 956 l 1,10,-1
 1016 589 l 1,11,12
 934 520 934 520 798 520 c 0,13,14
 690 520 690 520 575 596 c 2,15,-1
 442 684 l 2,16,17
 375 728 375 728 317 728 c 272,18,19
 166 728 166 728 120 520 c 1,20,-1
 110 520 l 1,21,-1
 110 887 l 1,0,1
EndSplineSet
Validated: 1
EndChar

StartChar: exclamdown
Encoding: 161 161 97
Width: 744
GlyphClass: 2
Flags: W
HStem: -409 21G<165 579> 750 370<254.14 491.86>
VStem: 191 364<812.578 1057.42> 205 334<-404.436 435.768> 225 294<106.232 651>
LayerCount: 2
Fore
SplineSet
579 -409 m 1,0,-1
 165 -409 l 1,1,2
 201 -263 201 -263 205 -109 c 2,3,-1
 225 651 l 1,4,-1
 519 651 l 1,5,-1
 539 -109 l 2,6,7
 543 -263 543 -263 579 -409 c 1,0,-1
373 1120 m 128,-1,9
 449 1120 449 1120 502 1066 c 128,-1,10
 555 1012 555 1012 555 935 c 128,-1,11
 555 858 555 858 502 804 c 128,-1,12
 449 750 449 750 373 750 c 128,-1,13
 297 750 297 750 244 804 c 128,-1,14
 191 858 191 858 191 935 c 128,-1,15
 191 1012 191 1012 244 1066 c 128,-1,8
 297 1120 297 1120 373 1120 c 128,-1,9
EndSplineSet
Validated: 1
EndChar

StartChar: cent
Encoding: 162 162 98
Width: 1238
GlyphClass: 2
Flags: W
HStem: -15 152<819 956.994> 962 154<819 935.523>
VStem: 60 330<324.039 776.586> 669 150<-180 -15 143 957 1114.88 1280>
LayerCount: 2
Fore
SplineSet
669 -18 m 1,0,1
 398 -3 398 -3 238 141 c 0,2,3
 60 302 60 302 60 550 c 0,4,5
 60 800 60 800 240 960 c 0,6,7
 402 1103 402 1103 669 1118 c 1,8,-1
 669 1280 l 1,9,-1
 819 1280 l 1,10,-1
 819 1116 l 1,11,12
 1012 1099 1012 1099 1163 1001 c 1,13,-1
 1163 701 l 1,14,-1
 1153 701 l 1,15,16
 999 932 999 932 819 962 c 1,17,-1
 819 137 l 1,18,19
 965 154 965 154 1063 265 c 0,20,21
 1131 342 1131 342 1168 399 c 1,22,-1
 1178 399 l 1,23,-1
 1178 141 l 1,24,25
 1018 8 1018 8 819 -15 c 1,26,-1
 819 -180 l 1,27,-1
 669 -180 l 1,28,-1
 669 -18 l 1,0,1
669 143 m 1,29,-1
 669 957 l 1,30,31
 553 934 553 934 483 852 c 0,32,33
 390 743 390 743 390 550 c 128,-1,34
 390 357 390 357 483 248 c 0,35,36
 553 166 553 166 669 143 c 1,29,-1
EndSplineSet
Validated: 1
EndChar

StartChar: sterling
Encoding: 163 163 99
Width: 1125
GlyphClass: 2
Flags: W
HStem: 0 174<482.052 1060.56> 754 158<12.2798 160 480 815.471> 1370 160<593.007 877.594>
VStem: 160 320<176.01 754 912 1248.57> 950 10<1221 1230.17>
LayerCount: 2
Fore
SplineSet
132 0 m 1,0,1
 160 150 160 150 160 294 c 2,2,-1
 160 754 l 1,3,-1
 150 754 l 2,4,5
 83 754 83 754 10 728 c 1,6,-1
 10 938 l 1,7,8
 83 912 83 912 150 912 c 2,9,-1
 160 912 l 1,10,-1
 160 1014 l 2,11,12
 160 1261 160 1261 294 1389 c 0,13,14
 440 1530 440 1530 708 1530 c 0,15,16
 866 1530 866 1530 960 1511 c 1,17,-1
 960 1221 l 1,18,-1
 950 1221 l 1,19,20
 895 1370 895 1370 734 1370 c 0,21,22
 630 1370 630 1370 563 1302 c 0,23,24
 480 1221 480 1221 480 1045 c 2,25,-1
 480 912 l 1,26,-1
 540 912 l 2,27,28
 676 912 676 912 820 940 c 1,29,-1
 820 726 l 1,30,31
 675 754 675 754 540 754 c 2,32,-1
 480 754 l 1,33,-1
 480 294 l 2,34,35
 480 235 480 235 485 174 c 1,36,-1
 765 174 l 2,37,38
 923 174 923 174 1065 204 c 1,39,-1
 1065 0 l 1,40,-1
 132 0 l 1,0,1
EndSplineSet
Validated: 1
EndChar

StartChar: currency
Encoding: 164 164 100
Width: 1593
GlyphClass: 2
Flags: W
HStem: 191 155<664.464 947.043> 1176 155<665.359 946.079>
VStem: 182 330<535.244 985.208> 1100 330<534.161 987.8>
DStem2: 289 1440 110 1261 0.704154 -0.710047<1.05476 255.887 1442.76 1695.66> 111 234 289 56 0.703857 0.710342<0 270.08 1456.49 1693.8>
LayerCount: 2
Fore
SplineSet
805 346 m 0,0,1
 933 346 933 346 1019 459 c 0,2,3
 1100 565 1100 565 1100 761 c 0,4,5
 1100 960 1100 960 1014 1068 c 128,-1,6
 928 1176 928 1176 804.5 1176 c 128,-1,7
 681 1176 681 1176 593 1063 c 0,8,9
 512 959 512 959 512 761 c 128,-1,10
 512 563 512 563 598 454 c 0,11,12
 684 346 684 346 805 346 c 0,0,1
289 1440 m 1,13,-1
 476 1252 l 1,14,15
 620 1331 620 1331 805 1331 c 0,16,17
 985 1331 985 1331 1126 1258 c 1,18,-1
 1305 1439 l 1,19,-1
 1482 1260 l 1,20,-1
 1321 1096 l 1,21,22
 1430 956 1430 956 1430 761 c 0,23,24
 1430 557 1430 557 1309 412 c 1,25,-1
 1483 236 l 1,26,-1
 1305 56 l 1,27,-1
 1107 256 l 1,28,29
 973 191 973 191 805 191 c 0,30,31
 631 191 631 191 493 261 c 1,32,-1
 289 56 l 1,33,-1
 111 234 l 1,34,-1
 296 421 l 1,35,36
 182 563 182 563 182 761 c 0,37,38
 182 949 182 949 284 1086 c 1,39,-1
 110 1261 l 1,40,-1
 289 1440 l 1,13,-1
EndSplineSet
Validated: 1
EndChar

StartChar: yen
Encoding: 165 165 101
Width: 1453
GlyphClass: 2
Flags: W
HStem: 0 21G<535 915> 351 164<253.688 565 885 1197.25> 1490 20G<5 444 1082 1448>
VStem: 565 320<4.6875 351 515 629>
DStem2: 552 1237 185 1268 0.515893 -0.856653<-296.33 314.386> 771 871 996 814 0.514101 0.85773<66.7821 719.04>
LayerCount: 2
Fore
SplineSet
535 0 m 1,0,1
 565 150 565 150 565 300 c 2,2,-1
 565 351 l 1,3,-1
 549 351 l 2,4,5
 399 351 399 351 249 321 c 1,6,-1
 249 545 l 1,7,8
 399 515 399 515 549 515 c 2,9,-1
 565 515 l 1,10,-1
 565 637 l 1,11,-1
 559 647 l 1,12,-1
 549 647 l 2,13,14
 399 647 399 647 249 617 c 1,15,-1
 249 841 l 1,16,17
 354 820 354 820 459 814 c 1,18,-1
 185 1268 l 2,19,20
 103 1404 103 1404 5 1510 c 1,21,-1
 423 1510 l 1,22,23
 465 1383 465 1383 552 1237 c 2,24,-1
 771 871 l 1,25,-1
 985 1237 l 2,26,27
 1050 1347 1050 1347 1114 1510 c 1,28,-1
 1448 1510 l 1,29,30
 1349 1403 1349 1403 1268 1268 c 2,31,-1
 996 814 l 1,32,33
 1098 820 1098 820 1202 841 c 1,34,-1
 1202 617 l 1,35,36
 1051 647 1051 647 902 647 c 2,37,-1
 896 647 l 1,38,-1
 885 629 l 1,39,-1
 885 515 l 1,40,-1
 902 515 l 2,41,42
 1050 515 1050 515 1202 545 c 1,43,-1
 1202 321 l 1,44,45
 1051 351 1051 351 902 351 c 2,46,-1
 885 351 l 1,47,-1
 885 300 l 2,48,49
 885 148 885 148 915 0 c 1,50,-1
 535 0 l 1,0,1
EndSplineSet
Validated: 1
EndChar

StartChar: brokenbar
Encoding: 166 166 102
Width: 700
GlyphClass: 2
Flags: W
VStem: 210 280<-176.312 642.312 866.688 1685.31>
LayerCount: 2
Fore
SplineSet
180 -181 m 1,0,1
 210 -31 210 -31 210 119 c 2,2,-1
 210 347 l 2,3,4
 210 497 210 497 180 647 c 1,5,-1
 520 647 l 1,6,7
 490 497 490 497 490 347 c 2,8,-1
 490 119 l 2,9,10
 490 -31 490 -31 520 -181 c 1,11,-1
 180 -181 l 1,0,1
180 1690 m 1,12,-1
 520 1690 l 1,13,14
 490 1540 490 1540 490 1390 c 2,15,-1
 490 1162 l 2,16,17
 490 1012 490 1012 520 862 c 1,18,-1
 180 862 l 1,19,20
 210 1012 210 1012 210 1162 c 2,21,-1
 210 1390 l 2,22,23
 210 1540 210 1540 180 1690 c 1,12,-1
EndSplineSet
Validated: 1
EndChar

StartChar: section
Encoding: 167 167 103
Width: 1051
GlyphClass: 2
Flags: W
HStem: -20 144<348.144 557.497> 1386 144<493.503 702.856>
VStem: 110 277<686.527 893.693> 206 262<1216.87 1366.01> 583 262<143.994 293.129> 664 277<616.307 823.473>
DStem2: 500 630 306 451 0.841997 -0.539483<-155.564 284.883> 745 1059 410 970 0.841997 -0.539483<-351.663 88.7845>
LayerCount: 2
Fore
SplineSet
517 -20 m 0,0,1
 377 -20 377 -20 241 26 c 1,2,-1
 241 284 l 1,3,-1
 251 284 l 1,4,5
 346 124 346 124 464 124 c 0,6,7
 519 124 519 124 548 146 c 0,8,9
 583 173 583 173 583 217 c 0,10,11
 583 274 583 274 473 344 c 2,12,-1
 306 451 l 2,13,14
 110 577 110 577 110 745 c 0,15,16
 110 901 110 901 220 1002 c 1,17,-1
 422 870 l 1,18,19
 387 834 387 834 387 778 c 0,20,21
 387 702 387 702 500 630 c 2,22,-1
 641 540 l 2,23,24
 845 410 845 410 845 248 c 0,25,26
 845 123 845 123 743 45 c 0,27,28
 658 -20 658 -20 517 -20 c 0,0,1
534 1530 m 0,29,30
 674 1530 674 1530 810 1484 c 1,31,-1
 810 1226 l 1,32,-1
 800 1226 l 1,33,34
 705 1386 705 1386 587 1386 c 0,35,36
 532 1386 532 1386 503 1364 c 0,37,38
 468 1337 468 1337 468 1293 c 0,39,40
 468 1236 468 1236 578 1166 c 2,41,-1
 745 1059 l 2,42,43
 941 933 941 933 941 765 c 0,44,45
 941 609 941 609 831 508 c 1,46,-1
 629 640 l 1,47,48
 664 676 664 676 664 732 c 0,49,50
 664 808 664 808 551 880 c 2,51,-1
 410 970 l 2,52,53
 206 1100 206 1100 206 1262 c 0,54,55
 206 1387 206 1387 308 1465 c 0,56,57
 393 1530 393 1530 534 1530 c 0,29,30
EndSplineSet
Validated: 1
EndChar

StartChar: dieresis
Encoding: 168 168 104
Width: 698
GlyphClass: 2
Flags: W
HStem: 1216 314<66.4111 283.589 414.411 631.589>
VStem: 20 310<1262.93 1482.56> 368 310<1262.93 1482.56>
LayerCount: 2
Fore
SplineSet
523 1530 m 128,-1,1
 588 1530 588 1530 633 1484 c 128,-1,2
 678 1438 678 1438 678 1372.5 c 128,-1,3
 678 1307 678 1307 633 1261.5 c 128,-1,4
 588 1216 588 1216 523 1216 c 128,-1,5
 458 1216 458 1216 413 1261.5 c 128,-1,6
 368 1307 368 1307 368 1372.5 c 128,-1,7
 368 1438 368 1438 413 1484 c 128,-1,0
 458 1530 458 1530 523 1530 c 128,-1,1
175 1530 m 128,-1,9
 240 1530 240 1530 285 1484 c 128,-1,10
 330 1438 330 1438 330 1372.5 c 128,-1,11
 330 1307 330 1307 285 1261.5 c 128,-1,12
 240 1216 240 1216 175 1216 c 128,-1,13
 110 1216 110 1216 65 1261.5 c 128,-1,14
 20 1307 20 1307 20 1372.5 c 128,-1,15
 20 1438 20 1438 65 1484 c 128,-1,8
 110 1530 110 1530 175 1530 c 128,-1,9
EndSplineSet
Validated: 1
EndChar

StartChar: copyright
Encoding: 169 169 105
Width: 1321
GlyphClass: 2
Flags: W
HStem: 386 73<474.363 838.202> 536 126<563.035 851.673> 1244 128<562.151 847.801> 1453 77<476.855 844.866>
VStem: 110 74<768.815 1151.31> 240 211<781.97 1127.64> 1136 75<757.376 1158.43>
LayerCount: 2
Fore
SplineSet
661 1530 m 0,0,1
 903 1530 903 1530 1059 1357 c 0,2,3
 1211 1188 1211 1188 1211 953 c 0,4,5
 1211 701 1211 701 1050 549 c 0,6,7
 879 386 879 386 659 386 c 0,8,9
 436 386 436 386 271 549 c 0,10,11
 110 708 110 708 110 953 c 0,12,13
 110 1197 110 1197 268 1362 c 0,14,15
 429 1530 429 1530 661 1530 c 0,0,1
659 1453 m 0,16,17
 469 1453 469 1453 327 1312 c 0,18,19
 184 1170 184 1170 184 953 c 0,20,21
 184 760 184 760 324 605 c 0,22,23
 455 459 455 459 661 459 c 0,24,25
 852 459 852 459 997 605 c 0,26,27
 1136 745 1136 745 1136 953 c 0,28,29
 1136 1174 1136 1174 999 1309 c 0,30,31
 853 1453 853 1453 659 1453 c 0,16,17
974 835 m 1,32,-1
 984 835 l 1,33,-1
 984 650 l 1,34,35
 849 536 849 536 665 536 c 0,36,37
 478 536 478 536 358 661 c 0,38,39
 240 784 240 784 240 956 c 0,40,41
 240 1126 240 1126 358 1246 c 0,42,43
 483 1372 483 1372 655 1372 c 0,44,45
 816 1372 816 1372 945 1295 c 1,46,-1
 945 1079 l 1,47,-1
 935 1079 l 1,48,49
 914 1122 914 1122 893 1151 c 0,50,51
 827 1244 827 1244 717 1244 c 0,52,53
 590 1244 590 1244 517 1159 c 0,54,55
 451 1082 451 1082 451 953 c 0,56,57
 451 834 451 834 517.5 748 c 128,-1,58
 584 662 584 662 727 662 c 0,59,60
 853 662 853 662 974 835 c 1,32,-1
EndSplineSet
Validated: 1
EndChar

StartChar: ordfeminine
Encoding: 170 170 106
Width: 700
GlyphClass: 2
Flags: W
HStem: 693 132<24.6948 675.244> 934 86<267.661 386.339> 1256 93<259.728 394.521> 1322 144<118 166.542> 1427 103<187.642 387.249>
VStem: 51 190<1043.53 1242.21> 413 183<1053.22 1242.46>
LayerCount: 2
Fore
SplineSet
327 1020 m 128,-1,1
 366 1020 366 1020 387 1052 c 0,2,3
 413 1091 413 1091 413 1139 c 0,4,5
 413 1186 413 1186 387 1223 c 0,6,7
 364 1256 364 1256 327 1256 c 128,-1,8
 290 1256 290 1256 267 1223 c 0,9,10
 241 1186 241 1186 241 1139 c 0,11,12
 241 1091 241 1091 267 1052 c 0,13,0
 288 1020 288 1020 327 1020 c 128,-1,1
20 855 m 1,14,15
 170 825 170 825 350 825 c 0,16,17
 528 825 528 825 680 855 c 1,18,-1
 680 663 l 1,19,20
 530 693 530 693 350 693 c 128,-1,21
 170 693 170 693 20 663 c 1,22,-1
 20 855 l 1,14,15
614 934 m 1,23,-1
 393 934 l 1,24,25
 347 924 347 924 295 924 c 0,26,27
 192 924 192 924 121 986 c 0,28,29
 51 1047 51 1047 51 1139 c 0,30,31
 51 1265 51 1265 175 1322 c 24,32,33
 234 1349 234 1349 297 1349 c 0,34,35
 358 1349 358 1349 405 1337 c 1,36,37
 399 1365 399 1365 390 1380 c 0,38,39
 360 1427 360 1427 299 1427 c 0,40,41
 217 1427 217 1427 142 1339 c 0,42,43
 137 1333 137 1333 128 1322 c 1,44,-1
 118 1322 l 1,45,-1
 118 1466 l 1,46,47
 226 1530 226 1530 361 1530 c 0,48,49
 500 1530 500 1530 564 1431 c 0,50,51
 596 1381 596 1381 596 1273 c 2,52,-1
 596 1101 l 2,53,54
 596 1026 596 1026 614 934 c 1,23,-1
EndSplineSet
Validated: 1
EndChar

StartChar: guillemotleft
Encoding: 171 171 107
Width: 1396
GlyphClass: 2
Flags: W
VStem: 60 280<607 887> 545 280<607 887>
DStem2: 60 747 554 1041 0.588499 0.808498<164.78 614.608> 340 747 246 487 0.588499 -0.808498<0 449.828> 545 747 1039 1041 0.588499 0.808498<164.78 614.608> 825 747 731 487 0.588499 -0.808498<0 449.828>
LayerCount: 2
Fore
SplineSet
879 1270 m 1,0,-1
 1236 1270 l 1,1,2
 1119 1151 1119 1151 1039 1041 c 2,3,-1
 825 747 l 1,4,-1
 1039 453 l 2,5,6
 1117 346 1117 346 1236 224 c 1,7,-1
 879 224 l 1,8,9
 816 368 816 368 731 487 c 2,10,-1
 545 747 l 1,11,-1
 731 1007 l 2,12,13
 816 1126 816 1126 879 1270 c 1,0,-1
394 1270 m 1,14,-1
 751 1270 l 1,15,16
 634 1151 634 1151 554 1041 c 2,17,-1
 340 747 l 1,18,-1
 554 453 l 2,19,20
 632 346 632 346 751 224 c 1,21,-1
 394 224 l 1,22,23
 331 368 331 368 246 487 c 2,24,-1
 60 747 l 1,25,-1
 246 1007 l 2,26,27
 331 1126 331 1126 394 1270 c 1,14,-1
EndSplineSet
Validated: 1
EndChar

StartChar: logicalnot
Encoding: 172 172 108
Width: 1173
GlyphClass: 2
Flags: W
HStem: 642 204<114.688 854.602>
VStem: 829 234<342 637.066> 859 204<346.441 642>
LayerCount: 2
Fore
SplineSet
110 876 m 1,0,1
 260 846 260 846 410 846 c 2,2,-1
 763 846 l 2,3,4
 908 846 908 846 1063 876 c 1,5,-1
 1063 342 l 1,6,-1
 829 342 l 1,7,8
 859 484 859 484 859 642 c 1,9,-1
 410 642 l 2,10,11
 260 642 260 642 110 612 c 1,12,-1
 110 876 l 1,0,1
EndSplineSet
Validated: 1
EndChar

StartChar: uni00AD
Encoding: 173 173 109
Width: 1173
GlyphClass: 2
Flags: W
HStem: 642 204<114.688 1058.25>
LayerCount: 2
Fore
SplineSet
110 876 m 1,0,1
 260 846 260 846 410 846 c 2,2,-1
 763 846 l 2,3,4
 911 846 911 846 1063 876 c 1,5,-1
 1063 612 l 1,6,7
 912 642 912 642 763 642 c 2,8,-1
 410 642 l 2,9,10
 260 642 260 642 110 612 c 1,11,-1
 110 876 l 1,0,1
EndSplineSet
Validated: 1
EndChar

StartChar: registered
Encoding: 174 174 110
Width: 1321
GlyphClass: 2
Flags: W
HStem: 386 73<474.363 837.983> 1245 128<627.083 712.451> 1453 77<476.855 844.866>
VStem: 110 74<768.815 1151.31> 427 200<555.244 857 984 1244.09> 747 209<1013.2 1213.4> 1136 75<756.668 1158.43>
DStem2: 834 904 639 857 0.555726 -0.831366<-2.49634 280.355>
LayerCount: 2
Fore
SplineSet
627 984 m 1,0,-1
 637 984 l 2,1,2
 683 984 683 984 716 1019 c 0,3,4
 747 1052 747 1052 747 1114 c 128,-1,5
 747 1176 747 1176 713.5 1210 c 128,-1,6
 680 1244 680 1244 637 1245 c 2,7,-1
 629 1245 l 1,8,9
 627 1216 627 1216 627 1190 c 2,10,-1
 627 984 l 1,0,-1
659 1453 m 0,11,12
 469 1453 469 1453 327 1312 c 0,13,14
 184 1170 184 1170 184 953 c 0,15,16
 184 760 184 760 324 605 c 0,17,18
 455 459 455 459 661 459 c 0,19,20
 813 459 813 459 937 552 c 1,21,-1
 817 552 l 1,22,23
 785 640 785 640 742 704 c 2,24,-1
 639 857 l 1,25,-1
 627 857 l 1,26,-1
 627 734 l 2,27,28
 627 655 627 655 649 552 c 1,29,-1
 405 552 l 1,30,31
 427 656 427 656 427 735 c 2,32,-1
 427 1190 l 2,33,34
 427 1270 427 1270 405 1373 c 1,35,-1
 637 1373 l 2,36,37
 790 1373 790 1373 874 1299 c 0,38,39
 956 1226 956 1226 956 1120.5 c 128,-1,40
 956 1015 956 1015 872 933 c 0,41,42
 854 916 854 916 834 904 c 1,43,-1
 959 717 l 2,44,45
 985 679 985 679 1024 634 c 1,46,47
 1136 766 1136 766 1136 953 c 0,48,49
 1136 1174 1136 1174 999 1309 c 0,50,51
 853 1453 853 1453 659 1453 c 0,11,12
661 1530 m 0,52,53
 903 1530 903 1530 1059 1357 c 0,54,55
 1211 1188 1211 1188 1211 953 c 0,56,57
 1211 701 1211 701 1050 549 c 0,58,59
 879 386 879 386 659 386 c 0,60,61
 436 386 436 386 271 549 c 0,62,63
 110 708 110 708 110 953 c 0,64,65
 110 1197 110 1197 268 1362 c 0,66,67
 429 1530 429 1530 661 1530 c 0,52,53
EndSplineSet
Validated: 1
EndChar

StartChar: macron
Encoding: 175 175 111
Width: 700
GlyphClass: 2
Flags: W
HStem: 1281 167<24.6948 675.244>
VStem: 20 660
LayerCount: 2
Fore
SplineSet
20 1478 m 1,0,1
 170 1448 170 1448 350 1448 c 0,2,3
 528 1448 528 1448 680 1478 c 1,4,-1
 680 1251 l 1,5,6
 530 1281 530 1281 350 1281 c 128,-1,7
 170 1281 170 1281 20 1251 c 1,8,-1
 20 1478 l 1,0,1
EndSplineSet
Validated: 1
EndChar

StartChar: degree
Encoding: 176 176 112
Width: 654
GlyphClass: 2
Flags: W
HStem: 926 136<237.083 415.843> 1394 136<236.283 415.987>
VStem: 20 176<1107.33 1349.49> 456 178<1107.07 1349.61>
LayerCount: 2
Fore
SplineSet
327 1530 m 0,0,1
 459 1530 459 1530 542 1450 c 0,2,3
 634 1361 634 1361 634 1228.5 c 128,-1,4
 634 1096 634 1096 542 1006 c 0,5,6
 459 926 459 926 327 926 c 0,7,8
 193 926 193 926 112 1007 c 0,9,10
 20 1096 20 1096 20 1228 c 0,11,12
 20 1361 20 1361 112 1450 c 0,13,14
 198 1530 198 1530 327 1530 c 0,0,1
326 1394 m 0,15,16
 270 1394 270 1394 234 1347 c 0,17,18
 197 1300 197 1300 196 1229 c 0,19,20
 196 1153 196 1153 234 1110 c 0,21,22
 276 1062 276 1062 326 1062 c 0,23,24
 381 1062 381 1062 418.5 1109.5 c 128,-1,25
 456 1157 456 1157 456 1229 c 0,26,27
 456 1304 456 1304 419 1347 c 0,28,29
 378 1394 378 1394 326 1394 c 0,15,16
EndSplineSet
Validated: 1
EndChar

StartChar: plusminus
Encoding: 177 177 113
Width: 1173
GlyphClass: 2
Flags: W
HStem: 180 204<114.688 1058.25> 794 204<114.688 484 688 1058.25>
VStem: 484 204<424.995 794 998 1367.07>
LayerCount: 2
Fore
SplineSet
110 414 m 1,0,1
 260 384 260 384 410 384 c 2,2,-1
 763 384 l 2,3,4
 911 384 911 384 1063 414 c 1,5,-1
 1063 150 l 1,6,7
 912 180 912 180 763 180 c 2,8,-1
 410 180 l 2,9,10
 260 180 260 180 110 150 c 1,11,-1
 110 414 l 1,0,1
454 1372 m 1,12,-1
 718 1372 l 1,13,14
 688 1214 688 1214 688 1072 c 2,15,-1
 688 998 l 1,16,-1
 763 998 l 2,17,18
 911 998 911 998 1063 1028 c 1,19,-1
 1063 764 l 1,20,21
 912 794 912 794 763 794 c 2,22,-1
 688 794 l 1,23,-1
 688 720 l 2,24,25
 688 580 688 580 718 420 c 1,26,-1
 454 420 l 1,27,28
 484 572 484 572 484 720 c 2,29,-1
 484 794 l 1,30,-1
 410 794 l 2,31,32
 260 794 260 794 110 764 c 1,33,-1
 110 1028 l 1,34,35
 260 998 260 998 410 998 c 2,36,-1
 484 998 l 1,37,-1
 484 1072 l 2,38,39
 484 1228 484 1228 454 1372 c 1,12,-1
EndSplineSet
Validated: 1
EndChar

StartChar: uni00B2
Encoding: 178 178 114
Width: 635
GlyphClass: 2
Flags: W
HStem: 828 143<245 611.967> 1511 127<141.927 366.682>
VStem: 65 10<1369 1377.74> 397 215<1278.37 1478.57>
LayerCount: 2
Fore
SplineSet
311.5 1638 m 128,-1,1
 443 1638 443 1638 527.5 1570 c 128,-1,2
 612 1502 612 1502 612 1386 c 0,3,4
 612 1231 612 1231 405 1109 c 0,5,6
 289 1041 289 1041 245 971 c 1,7,-1
 415 971 l 2,8,9
 518 971 518 971 615 999 c 1,10,-1
 615 828 l 1,11,-1
 20 828 l 1,12,13
 49 1038 49 1038 295 1224 c 0,14,15
 397 1301 397 1301 397 1386 c 0,16,17
 397 1440 397 1440 364 1474 c 0,18,19
 326 1511 326 1511 261 1511 c 0,20,21
 138 1511 138 1511 75 1369 c 1,22,-1
 65 1369 l 1,23,-1
 65 1569 l 1,24,0
 180 1638 180 1638 311.5 1638 c 128,-1,1
EndSplineSet
Validated: 1
EndChar

StartChar: uni00B3
Encoding: 179 179 115
Width: 611
GlyphClass: 2
Flags: W
HStem: 827 128<106.863 339.349> 1510 128<69.1865 310>
VStem: 20 10<1089.2 1098> 372 219<989.305 1201.13>
LayerCount: 2
Fore
SplineSet
66 1638 m 1,0,-1
 530 1638 l 1,1,-1
 548 1533 l 1,2,3
 491 1480 491 1480 442 1412 c 2,4,-1
 385 1333 l 1,5,6
 457 1317 457 1317 504 1281 c 0,7,8
 591 1214 591 1214 591 1102 c 0,9,10
 591 988 591 988 502 908 c 0,11,12
 412 827 412 827 252 827 c 0,13,14
 135 827 135 827 20 897 c 1,15,-1
 20 1098 l 1,16,-1
 30 1098 l 1,17,18
 100 955 100 955 237 955 c 24,19,20
 303 955 303 955 339 993 c 0,21,22
 372 1028 372 1028 372 1099 c 0,23,24
 372 1234 372 1234 203 1234 c 1,25,-1
 155 1300 l 1,26,-1
 310 1510 l 1,27,-1
 266 1510 l 2,28,29
 168 1510 168 1510 66 1482 c 1,30,-1
 66 1638 l 1,0,-1
EndSplineSet
Validated: 1
EndChar

StartChar: acute
Encoding: 180 180 116
Width: 493
GlyphClass: 2
Flags: W
HStem: 1180 350<177 267.811>
VStem: 20 453
LayerCount: 2
Fore
SplineSet
473 1530 m 1,0,-1
 473 1520 l 1,1,2
 386 1314 386 1314 217 1180 c 1,3,-1
 20 1180 l 1,4,-1
 20 1190 l 1,5,6
 177 1346 177 1346 177 1530 c 1,7,-1
 473 1530 l 1,0,-1
EndSplineSet
Validated: 1
EndChar

StartChar: uni00B5
Encoding: 181 181 117
Width: 1381
GlyphClass: 2
Flags: W
HStem: -410 21G<132 483> -20 165<559.822 804.509> 0 21G<898 1249>
VStem: 160 300<-405.314 -8 253.168 1076.19> 926 295<257.906 1076.19>
LayerCount: 2
Fore
SplineSet
1249 0 m 1,0,-1
 898 0 l 1,1,2
 914 51 914 51 920 105 c 1,3,4
 798 -20 798 -20 577 -20 c 0,5,6
 511 -20 511 -20 455 -8 c 1,7,-1
 455 -116 l 2,8,9
 455 -260 455 -260 483 -410 c 1,10,-1
 132 -410 l 1,11,12
 160 -263 160 -263 160 -116 c 2,13,-1
 160 785 l 2,14,15
 160 927 160 927 132 1081 c 1,16,-1
 487 1151 l 1,17,18
 460 999 460 999 460 859 c 2,19,-1
 460 466 l 2,20,21
 460 310 460 310 515 236 c 0,22,23
 583 145 583 145 692 145 c 0,24,25
 802 145 802 145 868 234 c 0,26,27
 926 313 926 313 926 466 c 2,28,-1
 926 785 l 2,29,30
 926 927 926 927 898 1081 c 1,31,-1
 1248 1151 l 1,32,33
 1221 998 1221 998 1221 859 c 2,34,-1
 1221 294 l 2,35,36
 1221 150 1221 150 1249 0 c 1,0,-1
EndSplineSet
Validated: 1
EndChar

StartChar: paragraph
Encoding: 182 182 118
Width: 1153
GlyphClass: 2
Flags: W
HStem: 0 21G<643 801 867 1023> 1382 128<801 867>
VStem: 110 691<912.412 1288.65> 673 128<4.53271 692> 867 126<4.50195 1381.98>
LayerCount: 2
Fore
SplineSet
1023 0 m 1,0,-1
 867 0 l 1,1,-1
 867 1382 l 1,2,-1
 801 1382 l 1,3,-1
 801 0 l 1,4,-1
 643 0 l 1,5,6
 673 145 673 145 673 296 c 2,7,-1
 673 692 l 1,8,9
 620 683 620 683 567 683 c 0,10,11
 355 683 355 683 232 806 c 0,12,13
 110 926 110 926 110 1100 c 128,-1,14
 110 1274 110 1274 232 1397 c 128,-1,15
 354 1520 354 1520 567 1520 c 0,16,17
 623 1520 623 1520 674 1510 c 1,18,-1
 1023 1510 l 1,19,20
 993 1365 993 1365 993 1214 c 2,21,-1
 993 296 l 2,22,23
 993 144 993 144 1023 0 c 1,0,-1
EndSplineSet
Validated: 1
EndChar

StartChar: periodcentered
Encoding: 183 183 119
Width: 404
GlyphClass: 2
Flags: W
HStem: 569 370<83.1396 320.86>
VStem: 20 364<631.578 876.422>
LayerCount: 2
Fore
SplineSet
202 939 m 132,-1,1
 278 939 278 939 331 885 c 132,-1,2
 384 831 384 831 384 754 c 132,-1,3
 384 677 384 677 331 623 c 132,-1,4
 278 569 278 569 202 569 c 132,-1,5
 126 569 126 569 73 623 c 132,-1,6
 20 677 20 677 20 754 c 132,-1,7
 20 831 20 831 73 885 c 132,-1,0
 126 939 126 939 202 939 c 132,-1,1
EndSplineSet
Validated: 1
EndChar

StartChar: cedilla
Encoding: 184 184 120
Width: 411
GlyphClass: 2
Flags: W
HStem: -486 189<20 155.411> -153 153<91 160.708>
VStem: 91 174<-90.5664 0> 166 225<-281.174 -162.321>
LayerCount: 2
Fore
SplineSet
91 0 m 1,0,-1
 265 0 l 1,1,-1
 265 -67 l 1,2,3
 391 -123 391 -123 391 -252 c 0,4,5
 391 -486 391 -486 20 -486 c 1,6,-1
 20 -297 l 1,7,8
 166 -297 166 -297 166 -224 c 0,9,10
 166 -168 166 -168 91 -153 c 1,11,-1
 91 0 l 1,0,-1
EndSplineSet
Validated: 1
EndChar

StartChar: uni00B9
Encoding: 185 185 121
Width: 463
GlyphClass: 2
Flags: W
VStem: 180 200<830.967 1419>
LayerCount: 2
Fore
SplineSet
403 1661 m 1,0,1
 380 1587 380 1587 380 1486 c 2,2,-1
 380 1011 l 2,3,4
 380 923 380 923 403 828 c 1,5,-1
 157 828 l 1,6,7
 180 918 180 918 180 1011 c 2,8,-1
 180 1419 l 1,9,-1
 114 1356 l 1,10,-1
 20 1465 l 1,11,-1
 183 1618 l 1,12,-1
 403 1661 l 1,0,1
EndSplineSet
Validated: 1
EndChar

StartChar: ordmasculine
Encoding: 186 186 122
Width: 702
GlyphClass: 2
Flags: W
HStem: 693 132<25.6948 676.244> 923 97<271.131 432.056> 1432 98<269.461 430.709>
VStem: 20 204<1071.58 1384.75> 478 204<1070.38 1382.12>
LayerCount: 2
Fore
SplineSet
21 855 m 1,0,1
 171 825 171 825 351 825 c 0,2,3
 529 825 529 825 681 855 c 1,4,-1
 681 663 l 1,5,6
 531 693 531 693 351 693 c 128,-1,7
 171 693 171 693 21 663 c 1,8,-1
 21 855 l 1,0,1
353 1530 m 0,9,10
 496 1530 496 1530 590 1443 c 0,11,12
 682 1357 682 1357 682 1226 c 0,13,14
 682 1092 682 1092 589 1007 c 0,15,16
 496 923 496 923 350 923 c 0,17,18
 203 923 203 923 113 1007 c 0,19,20
 20 1093 20 1093 20 1226.5 c 128,-1,21
 20 1360 20 1360 113 1445 c 128,-1,22
 206 1530 206 1530 353 1530 c 0,9,10
350.5 1432 m 128,-1,24
 305 1432 305 1432 266 1384 c 24,25,26
 224 1332 224 1332 224 1226 c 0,27,28
 224 1124 224 1124 264 1073 c 0,29,30
 305 1020 305 1020 351.5 1020 c 128,-1,31
 398 1020 398 1020 437 1071 c 24,32,33
 478 1125 478 1125 478 1229 c 0,34,35
 478 1330 478 1330 437 1381 c 128,-1,23
 396 1432 396 1432 350.5 1432 c 128,-1,24
EndSplineSet
Validated: 1
EndChar

StartChar: guillemotright
Encoding: 187 187 123
Width: 1396
GlyphClass: 2
Flags: W
VStem: 571 280<607 887> 1056 280<607 887>
DStem2: 851 747 357 1041 0.588499 -0.808498<-614.608 -164.78> 357 453 851 747 0.588499 0.808498<-86.1912 363.637> 1336 747 842 1041 0.588499 -0.808498<-614.608 -164.78> 842 453 1336 747 0.588499 0.808498<-86.1912 363.637>
LayerCount: 2
Fore
SplineSet
517 1270 m 1,0,1
 580 1126 580 1126 665 1007 c 2,2,-1
 851 747 l 1,3,-1
 665 487 l 2,4,5
 580 368 580 368 517 224 c 1,6,-1
 160 224 l 1,7,8
 279 346 279 346 357 453 c 2,9,-1
 571 747 l 1,10,-1
 357 1041 l 2,11,12
 277 1151 277 1151 160 1270 c 1,13,-1
 517 1270 l 1,0,1
1002 1270 m 1,14,15
 1065 1126 1065 1126 1150 1007 c 2,16,-1
 1336 747 l 1,17,-1
 1150 487 l 2,18,19
 1065 368 1065 368 1002 224 c 1,20,-1
 645 224 l 1,21,22
 764 346 764 346 842 453 c 2,23,-1
 1056 747 l 1,24,-1
 842 1041 l 2,25,26
 762 1151 762 1151 645 1270 c 1,27,-1
 1002 1270 l 1,14,15
EndSplineSet
Validated: 1
EndChar

StartChar: onequarter
Encoding: 188 188 124
Width: 1596
GlyphClass: 2
Flags: W
HStem: 0 21G<266 568 1140 1384> 176 164<1363.22 1436> 176 127<1000 1162> 1490 20G<390.674 481.5 945.5 1246>
VStem: 270 200<699.967 1288> 1162 200<2.84229 176 312 524>
DStem2: 864 1225 1092 1251 0.417626 0.908619<-1240.11 296.034> 882 399 1000 303 0.590319 0.80717<-7.76831 266.186>
LayerCount: 2
Fore
SplineSet
266 0 m 1,0,1
 356 120 356 120 420 259 c 10,2,-1
 864 1225 l 2,3,4
 927 1362 927 1362 964 1510 c 1,5,-1
 1246 1510 l 1,6,7
 1159 1397 1159 1397 1092 1251 c 2,8,-1
 648 285 l 2,9,10
 588 155 588 155 548 0 c 1,11,-1
 266 0 l 1,0,1
493 1530 m 1,12,13
 470 1456 470 1456 470 1355 c 2,14,-1
 470 880 l 2,15,16
 470 792 470 792 493 697 c 1,17,-1
 247 697 l 1,18,19
 270 787 270 787 270 880 c 2,20,-1
 270 1288 l 1,21,-1
 204 1225 l 1,22,-1
 110 1334 l 1,23,-1
 273 1487 l 1,24,-1
 493 1530 l 1,12,13
1384 0 m 1,25,-1
 1140 0 l 1,26,27
 1161 90 1161 90 1162 176 c 1,28,-1
 813 176 l 1,29,-1
 778 277 l 1,30,31
 833 332 833 332 882 399 c 2,32,-1
 1078 667 l 2,33,34
 1124 730 1124 730 1156 812 c 1,35,-1
 1382 854 l 1,36,37
 1362 754 1362 754 1362 634 c 2,38,-1
 1362 312 l 1,39,40
 1401 319 1401 319 1436 340 c 1,41,-1
 1436 176 l 1,42,-1
 1362 176 l 1,43,44
 1363 91 1363 91 1384 0 c 1,25,-1
1162 303 m 1,45,-1
 1162 524 l 1,46,-1
 1000 303 l 1,47,-1
 1162 303 l 1,45,-1
EndSplineSet
Validated: 1
EndChar

StartChar: onehalf
Encoding: 189 189 125
Width: 1689
GlyphClass: 2
Flags: W
HStem: 0 143<1159 1525.97> 683 127<1055.93 1280.68> 1490 20G<390.674 481.5 945.5 1246>
VStem: 270 200<699.967 1288> 979 10<541 549.736> 1311 215<450.369 650.568>
DStem2: 864 1225 1092 1251 0.417626 0.908619<-1240.11 296.034>
LayerCount: 2
Fore
SplineSet
934 0 m 1,0,1
 963 210 963 210 1209 396 c 0,2,3
 1311 473 1311 473 1311 558 c 0,4,5
 1311 612 1311 612 1278 646 c 0,6,7
 1240 683 1240 683 1175 683 c 0,8,9
 1052 683 1052 683 989 541 c 1,10,-1
 979 541 l 1,11,-1
 979 741 l 1,12,13
 1094 810 1094 810 1225.5 810 c 128,-1,14
 1357 810 1357 810 1441.5 742 c 128,-1,15
 1526 674 1526 674 1526 558 c 0,16,17
 1526 403 1526 403 1319 281 c 0,18,19
 1203 213 1203 213 1159 143 c 1,20,-1
 1329 143 l 2,21,22
 1432 143 1432 143 1529 171 c 1,23,-1
 1529 0 l 1,24,-1
 934 0 l 1,0,1
266 0 m 1,25,26
 356 120 356 120 420 259 c 10,27,-1
 864 1225 l 2,28,29
 927 1362 927 1362 964 1510 c 1,30,-1
 1246 1510 l 1,31,32
 1159 1397 1159 1397 1092 1251 c 2,33,-1
 648 285 l 2,34,35
 588 155 588 155 548 0 c 1,36,-1
 266 0 l 1,25,26
493 1530 m 1,37,38
 470 1456 470 1456 470 1355 c 2,39,-1
 470 880 l 2,40,41
 470 792 470 792 493 697 c 1,42,-1
 247 697 l 1,43,44
 270 787 270 787 270 880 c 2,45,-1
 270 1288 l 1,46,-1
 204 1225 l 1,47,-1
 110 1334 l 1,48,-1
 273 1487 l 1,49,-1
 493 1530 l 1,37,38
EndSplineSet
Validated: 1
EndChar

StartChar: threequarters
Encoding: 190 190 126
Width: 1685
GlyphClass: 2
Flags: W
HStem: 0 21G<355 657 1229 1473> 176 164<1452.22 1525> 176 127<1089 1251> 709 128<196.863 429.349> 1392 128<159.187 400>
VStem: 110 10<971.202 980> 462 219<871.305 1083.13> 1251 200<2.84229 176 312 524>
DStem2: 953 1225 1181 1251 0.417626 0.908619<-1240.11 296.034> 971 399 1089 303 0.590319 0.80717<-7.76831 266.186>
LayerCount: 2
Fore
SplineSet
156 1520 m 1,0,-1
 620 1520 l 1,1,-1
 638 1415 l 1,2,3
 581 1362 581 1362 532 1294 c 2,4,-1
 475 1215 l 1,5,6
 547 1199 547 1199 594 1163 c 0,7,8
 681 1096 681 1096 681 984 c 0,9,10
 681 870 681 870 592 790 c 0,11,12
 502 709 502 709 342 709 c 0,13,14
 225 709 225 709 110 779 c 1,15,-1
 110 980 l 1,16,-1
 120 980 l 1,17,18
 190 837 190 837 327 837 c 24,19,20
 393 837 393 837 429 875 c 0,21,22
 462 910 462 910 462 981 c 0,23,24
 462 1116 462 1116 293 1116 c 1,25,-1
 245 1182 l 1,26,-1
 400 1392 l 1,27,-1
 356 1392 l 2,28,29
 258 1392 258 1392 156 1364 c 1,30,-1
 156 1520 l 1,0,-1
355 0 m 1,31,32
 445 120 445 120 509 259 c 10,33,-1
 953 1225 l 2,34,35
 1016 1362 1016 1362 1053 1510 c 1,36,-1
 1335 1510 l 1,37,38
 1248 1397 1248 1397 1181 1251 c 2,39,-1
 737 285 l 2,40,41
 677 155 677 155 637 0 c 1,42,-1
 355 0 l 1,31,32
1473 0 m 1,43,-1
 1229 0 l 1,44,45
 1250 90 1250 90 1251 176 c 1,46,-1
 902 176 l 1,47,-1
 867 277 l 1,48,49
 922 332 922 332 971 399 c 2,50,-1
 1167 667 l 2,51,52
 1213 730 1213 730 1245 812 c 1,53,-1
 1471 854 l 1,54,55
 1451 754 1451 754 1451 634 c 2,56,-1
 1451 312 l 1,57,58
 1490 319 1490 319 1525 340 c 1,59,-1
 1525 176 l 1,60,-1
 1451 176 l 1,61,62
 1452 91 1452 91 1473 0 c 1,43,-1
1251 303 m 1,63,-1
 1251 524 l 1,64,-1
 1089 303 l 1,65,-1
 1251 303 l 1,63,-1
EndSplineSet
Validated: 1
EndChar

StartChar: questiondown
Encoding: 191 191 127
Width: 1234
GlyphClass: 2
Flags: W
HStem: -430 176<550.922 890.474> 750 370<575.14 812.86>
VStem: 110 330<-139.523 181.189> 512 364<812.578 1057.42> 579 236<550.702 651>
LayerCount: 2
Fore
SplineSet
694 1120 m 128,-1,1
 770 1120 770 1120 823 1066 c 128,-1,2
 876 1012 876 1012 876 935 c 128,-1,3
 876 858 876 858 823 804 c 128,-1,4
 770 750 770 750 694 750 c 128,-1,5
 618 750 618 750 565 804 c 128,-1,6
 512 858 512 858 512 935 c 128,-1,7
 512 1012 512 1012 565 1066 c 128,-1,0
 618 1120 618 1120 694 1120 c 128,-1,1
642 -430 m 0,8,9
 385 -430 385 -430 248 -303 c 0,10,11
 110 -177 110 -177 110 7 c 0,12,13
 110 260 110 260 384 428 c 0,14,15
 579 548 579 548 579 651 c 1,16,-1
 815 651 l 1,17,18
 815 459 815 459 582 285 c 0,19,20
 440 180 440 180 440 30 c 0,21,22
 440 -101 440 -101 512 -177 c 0,23,24
 586 -254 586 -254 708 -254 c 0,25,26
 891 -254 891 -254 1008 -115 c 0,27,28
 1069 -42 1069 -42 1114 46 c 1,29,-1
 1124 46 l 1,30,-1
 1124 -295 l 1,31,32
 908 -430 908 -430 642 -430 c 0,8,9
EndSplineSet
Validated: 1
EndChar

StartChar: multiply
Encoding: 215 215 128
Width: 1081
GlyphClass: 2
Flags: W
DStem2: 396 744 540 600 0.705688 0.708522<-369.798 -0.408109 203.944 573.785> 540 888 396 744 0.705688 -0.708522<-369.433 0 204.352 574.15>
LayerCount: 2
Fore
SplineSet
297 1174 m 1,0,1
 382 1047 382 1047 488 941 c 2,2,-1
 540 888 l 1,3,-1
 593 941 l 2,4,5
 699 1047 699 1047 784 1174 c 1,6,-1
 971 988 l 1,7,8
 844 903 844 903 737 797 c 2,9,-1
 685 744 l 1,10,-1
 737 691 l 2,11,12
 842 586 842 586 971 500 c 1,13,-1
 784 314 l 1,14,15
 698 442 698 442 593 547 c 2,16,-1
 540 600 l 1,17,-1
 488 547 l 2,18,19
 383 442 383 442 297 314 c 1,20,-1
 110 500 l 1,21,22
 238 586 238 586 344 691 c 2,23,-1
 396 744 l 1,24,-1
 344 797 l 2,25,26
 238 903 238 903 110 988 c 1,27,-1
 297 1174 l 1,0,1
EndSplineSet
Validated: 1
EndChar

StartChar: Oslash
Encoding: 216 216 129
Width: 1766
GlyphClass: 2
Flags: W
HStem: -20 175<696.805 1066.35> 1355 175<699.318 1069.33>
VStem: 60 345<496.702 1015.63> 1360 346<493.436 1014.8>
DStem2: 309 66 432 -20 0.573537 0.819179<0.0956828 94.16 362.592 1423.84 1691.77 1787.15>
LayerCount: 2
Fore
SplineSet
883 -20 m 0,0,1
 661 -20 661 -20 490 62 c 1,2,-1
 432 -20 l 1,3,-1
 309 66 l 1,4,-1
 361 141 l 1,5,6
 330 164 330 164 302 191 c 0,7,8
 60 418 60 418 60 755 c 0,9,10
 60 1083 60 1083 300 1315 c 0,11,12
 521 1530 521 1530 883 1530 c 0,13,14
 1107 1530 1107 1530 1277 1448 c 1,15,-1
 1334 1530 l 1,16,-1
 1457 1444 l 1,17,-1
 1404 1369 l 1,18,19
 1436 1344 1436 1344 1466 1315 c 0,20,21
 1706 1083 1706 1083 1706 755 c 0,22,23
 1706 422 1706 422 1464 191 c 0,24,25
 1243 -20 1243 -20 883 -20 c 0,0,1
883 155 m 0,26,27
 1084 155 1084 155 1222 328 c 128,-1,28
 1360 501 1360 501 1360 754 c 0,29,30
 1360 984 1360 984 1249 1146 c 1,31,-1
 620 249 l 1,32,33
 735 155 735 155 883 155 c 0,26,27
517 363 m 1,34,-1
 1145 1260 l 1,35,36
 1030 1355 1030 1355 883 1355 c 0,37,38
 683 1355 683 1355 543 1182 c 0,39,40
 405 1012 405 1012 405 755 c 0,41,42
 405 525 405 525 517 363 c 1,34,-1
EndSplineSet
Validated: 1
EndChar

StartChar: divide
Encoding: 247 247 130
Width: 1173
GlyphClass: 2
Flags: W
HStem: 165 370<467.14 704.86> 642 204<114.688 1058.25> 953 370<467.14 704.86>
VStem: 404 364<227.578 472.422 1015.58 1260.42>
CounterMasks: 1 e0
LayerCount: 2
Fore
SplineSet
110 876 m 1,0,1
 260 846 260 846 410 846 c 2,2,-1
 763 846 l 2,3,4
 911 846 911 846 1063 876 c 1,5,-1
 1063 612 l 1,6,7
 912 642 912 642 763 642 c 2,8,-1
 410 642 l 2,9,10
 260 642 260 642 110 612 c 1,11,-1
 110 876 l 1,0,1
586 1323 m 128,-1,13
 662 1323 662 1323 715 1269 c 128,-1,14
 768 1215 768 1215 768 1138 c 128,-1,15
 768 1061 768 1061 715 1007 c 128,-1,16
 662 953 662 953 586 953 c 128,-1,17
 510 953 510 953 457 1007 c 128,-1,18
 404 1061 404 1061 404 1138 c 128,-1,19
 404 1215 404 1215 457 1269 c 128,-1,12
 510 1323 510 1323 586 1323 c 128,-1,13
586 165 m 128,-1,21
 510 165 510 165 457 219 c 128,-1,22
 404 273 404 273 404 350 c 128,-1,23
 404 427 404 427 457 481 c 128,-1,24
 510 535 510 535 586 535 c 128,-1,25
 662 535 662 535 715 481 c 128,-1,26
 768 427 768 427 768 350 c 128,-1,27
 768 273 768 273 715 219 c 128,-1,20
 662 165 662 165 586 165 c 128,-1,21
EndSplineSet
Validated: 1
EndChar

StartChar: oslash
Encoding: 248 248 131
Width: 1368
GlyphClass: 2
Flags: W
HStem: -20 155<541.891 825.966> 965 155<541.743 825.477>
VStem: 60 330<324.458 775.565> 978 330<325.251 775.917>
DStem2: 254 66 377 -20 0.573045 0.819524<0.00544276 51.7009 308.769 977.349 1234.96 1286.11>
LayerCount: 2
Fore
SplineSet
683 -20 m 0,0,1
 534 -20 534 -20 413 31 c 1,2,-1
 377 -20 l 1,3,-1
 254 66 l 1,4,-1
 282 106 l 1,5,6
 259 123 259 123 238 142 c 0,7,8
 60 302 60 302 60 550 c 0,9,10
 60 800 60 800 240 960 c 0,11,12
 421 1120 421 1120 683 1120 c 0,13,14
 833 1120 833 1120 955 1069 c 1,15,-1
 991 1120 l 1,16,-1
 1114 1034 l 1,17,-1
 1086 995 l 1,18,19
 1108 978 1108 978 1130 959 c 0,20,21
 1308 799 1308 799 1308 550 c 128,-1,22
 1308 301 1308 301 1128 141 c 0,23,24
 948 -20 948 -20 683 -20 c 0,0,1
683 135 m 0,25,26
 811 135 811 135 897 248 c 0,27,28
 978 354 978 354 978 550 c 0,29,30
 978 687 978 687 937 781 c 1,31,-1
 525 192 l 1,32,33
 595 135 595 135 683 135 c 0,25,26
431 319 m 1,34,-1
 843 908 l 1,35,36
 772 965 772 965 682 965 c 0,37,38
 558 965 558 965 471 852 c 0,39,40
 390 748 390 748 390 550 c 0,41,42
 390 413 390 413 431 319 c 1,34,-1
EndSplineSet
Validated: 1
EndChar

StartChar: endash
Encoding: 8211 8211 132
Width: 1173
GlyphClass: 2
Flags: W
HStem: 642 204<114.688 1058.25>
LayerCount: 2
Fore
SplineSet
110 876 m 1,0,1
 260 846 260 846 410 846 c 2,2,-1
 763 846 l 2,3,4
 911 846 911 846 1063 876 c 1,5,-1
 1063 612 l 1,6,7
 912 642 912 642 763 642 c 2,8,-1
 410 642 l 2,9,10
 260 642 260 642 110 612 c 1,11,-1
 110 876 l 1,0,1
EndSplineSet
Validated: 1
EndChar

StartChar: emdash
Encoding: 8212 8212 133
Width: 1473
GlyphClass: 2
Flags: W
HStem: 642 204<114.688 1358.25>
LayerCount: 2
Fore
SplineSet
110 876 m 1,0,1
 260 846 260 846 410 846 c 2,2,-1
 1063 846 l 2,3,4
 1211 846 1211 846 1363 876 c 1,5,-1
 1363 612 l 1,6,7
 1212 642 1212 642 1063 642 c 2,8,-1
 410 642 l 2,9,10
 260 642 260 642 110 612 c 1,11,-1
 110 876 l 1,0,1
EndSplineSet
Validated: 1
EndChar

StartChar: afii00208
Encoding: 8213 8213 134
Width: 1473
GlyphClass: 2
Flags: W
HStem: 642 204<114.688 1358.25>
LayerCount: 2
Fore
SplineSet
110 876 m 1,0,1
 260 846 260 846 410 846 c 2,2,-1
 1063 846 l 2,3,4
 1211 846 1211 846 1363 876 c 1,5,-1
 1363 612 l 1,6,7
 1212 642 1212 642 1063 642 c 2,8,-1
 410 642 l 2,9,10
 260 642 260 642 110 612 c 1,11,-1
 110 876 l 1,0,1
EndSplineSet
Validated: 1
EndChar

StartChar: quoteleft
Encoding: 8216 8216 135
Width: 378
GlyphClass: 2
Flags: W
HStem: 949 621
VStem: 20 231<1097 1348.83>
LayerCount: 2
Fore
SplineSet
358 1570 m 1,0,-1
 358 1560 l 1,1,2
 251 1440 251 1440 251 1282 c 0,3,4
 251 1163 251 1163 343 1118 c 1,5,-1
 174 949 l 1,6,7
 20 1028 20 1028 20 1187 c 0,8,9
 20 1430 20 1430 358 1570 c 1,0,-1
EndSplineSet
Validated: 1
EndChar

StartChar: quoteright
Encoding: 8217 8217 136
Width: 378
GlyphClass: 2
Flags: W
HStem: 949 621
VStem: 127 231<1170.17 1422>
LayerCount: 2
Fore
SplineSet
204 1570 m 1,0,1
 358 1491 358 1491 358 1332 c 0,2,3
 358 1089 358 1089 20 949 c 1,4,-1
 20 959 l 1,5,6
 127 1079 127 1079 127 1237 c 0,7,8
 127 1356 127 1356 35 1401 c 1,9,-1
 204 1570 l 1,0,1
EndSplineSet
Validated: 1
EndChar

StartChar: quotesinglbase
Encoding: 8218 8218 137
Width: 378
GlyphClass: 2
Flags: W
HStem: -312 621
VStem: 127 231<-90.8302 161.004>
LayerCount: 2
Fore
SplineSet
204 309 m 1,0,1
 358 230 358 230 358 71 c 0,2,3
 358 -172 358 -172 20 -312 c 1,4,-1
 20 -302 l 1,5,6
 127 -182 127 -182 127 -24 c 0,7,8
 127 95 127 95 35 140 c 1,9,-1
 204 309 l 1,0,1
EndSplineSet
Validated: 1
EndChar

StartChar: quotereversed
Encoding: 8219 8219 138
Width: 378
GlyphClass: 2
Flags: W
HStem: 949 621
VStem: 20 231<1170.17 1422>
LayerCount: 2
Fore
SplineSet
174 1570 m 1,0,1
 343 1401 l 1,2,3
 251 1356 251 1356 251 1237 c 0,4,5
 251 1079 251 1079 358 959 c 1,6,-1
 358 949 l 1,7,8
 20 1089 20 1089 20 1332 c 0,9,10
 20 1491 20 1491 174 1570 c 1,0,1
EndSplineSet
Validated: 1
EndChar

StartChar: quotedblleft
Encoding: 8220 8220 139
Width: 720
GlyphClass: 2
Flags: W
HStem: 949 621
VStem: 20 231<1097 1348.83> 362 231<1097 1348.83>
LayerCount: 2
Fore
SplineSet
358 1570 m 1,0,-1
 358 1560 l 1,1,2
 251 1440 251 1440 251 1282 c 0,3,4
 251 1163 251 1163 343 1118 c 1,5,-1
 174 949 l 1,6,7
 20 1028 20 1028 20 1187 c 0,8,9
 20 1430 20 1430 358 1570 c 1,0,-1
700 1570 m 1,10,-1
 700 1560 l 1,11,12
 593 1440 593 1440 593 1282 c 0,13,14
 593 1163 593 1163 685 1118 c 1,15,-1
 516 949 l 1,16,17
 362 1028 362 1028 362 1187 c 0,18,19
 362 1430 362 1430 700 1570 c 1,10,-1
EndSplineSet
Validated: 1
EndChar

StartChar: quotedblright
Encoding: 8221 8221 140
Width: 720
GlyphClass: 2
Flags: W
HStem: 949 621
VStem: 127 231<1170.17 1422> 469 231<1170.17 1422>
LayerCount: 2
Fore
SplineSet
546 1570 m 1,0,1
 700 1491 700 1491 700 1332 c 0,2,3
 700 1089 700 1089 362 949 c 1,4,-1
 362 959 l 1,5,6
 469 1079 469 1079 469 1237 c 0,7,8
 469 1356 469 1356 377 1401 c 1,9,-1
 546 1570 l 1,0,1
204 1570 m 1,10,11
 358 1491 358 1491 358 1332 c 0,12,13
 358 1089 358 1089 20 949 c 1,14,-1
 20 959 l 1,15,16
 127 1079 127 1079 127 1237 c 0,17,18
 127 1356 127 1356 35 1401 c 1,19,-1
 204 1570 l 1,10,11
EndSplineSet
Validated: 1
EndChar

StartChar: quotedblbase
Encoding: 8222 8222 141
Width: 720
GlyphClass: 2
Flags: W
HStem: -312 621
VStem: 127 231<-90.8302 161.004> 469 231<-90.8302 161.004>
LayerCount: 2
Fore
SplineSet
546 309 m 1,0,1
 700 230 700 230 700 71 c 0,2,3
 700 -172 700 -172 362 -312 c 1,4,-1
 362 -302 l 1,5,6
 469 -182 469 -182 469 -24 c 0,7,8
 469 95 469 95 377 140 c 1,9,-1
 546 309 l 1,0,1
204 309 m 1,10,11
 358 230 358 230 358 71 c 0,12,13
 358 -172 358 -172 20 -312 c 1,14,-1
 20 -302 l 1,15,16
 127 -182 127 -182 127 -24 c 0,17,18
 127 95 127 95 35 140 c 1,19,-1
 204 309 l 1,10,11
EndSplineSet
Validated: 1
EndChar

StartChar: dagger
Encoding: 8224 8224 142
Width: 1173
GlyphClass: 2
Flags: W
HStem: 0 21G<416 756> 977 205<114.688 446 726 1058.25> 1490 20G<416 756>
VStem: 446 280<4.53369 977 1182 1504.97>
LayerCount: 2
Fore
SplineSet
416 0 m 1,0,1
 446 145 446 145 446 300 c 2,2,-1
 446 977 l 1,3,-1
 410 977 l 2,4,5
 260 977 260 977 110 947 c 1,6,-1
 110 1212 l 1,7,8
 260 1182 260 1182 410 1182 c 2,9,-1
 446 1182 l 1,10,-1
 446 1210 l 2,11,12
 446 1352 446 1352 416 1510 c 1,13,-1
 756 1510 l 1,14,15
 726 1349 726 1349 726 1210 c 2,16,-1
 726 1182 l 1,17,-1
 763 1182 l 2,18,19
 911 1182 911 1182 1063 1212 c 1,20,-1
 1063 947 l 1,21,22
 912 977 912 977 763 977 c 2,23,-1
 726 977 l 1,24,-1
 726 300 l 2,25,26
 726 140 726 140 756 0 c 1,27,-1
 416 0 l 1,0,1
EndSplineSet
Validated: 1
EndChar

StartChar: daggerdbl
Encoding: 8225 8225 143
Width: 1173
GlyphClass: 2
Flags: W
HStem: 0 21G<416 757> 328 205<114.749 446 727 1058.31> 977 205<114.688 446 727 1058.25> 1490 20G<416 757>
VStem: 446 281<4.96436 328 533 977 1182 1504.91>
LayerCount: 2
Fore
SplineSet
416 0 m 1,0,1
 446 157 446 157 446 300 c 2,2,-1
 446 328 l 1,3,-1
 410 328 l 2,4,5
 262 328 262 328 110 298 c 1,6,-1
 110 563 l 1,7,8
 261 533 261 533 410 533 c 2,9,-1
 446 533 l 1,10,-1
 446 977 l 1,11,-1
 410 977 l 2,12,13
 260 977 260 977 110 947 c 1,14,-1
 110 1212 l 1,15,16
 260 1182 260 1182 410 1182 c 2,17,-1
 446 1182 l 1,18,-1
 446 1210 l 2,19,20
 446 1348 446 1348 416 1510 c 1,21,-1
 757 1510 l 1,22,23
 727 1347 727 1347 727 1210 c 2,24,-1
 727 1182 l 1,25,-1
 763 1182 l 2,26,27
 911 1182 911 1182 1063 1212 c 1,28,-1
 1063 947 l 1,29,30
 912 977 912 977 763 977 c 2,31,-1
 727 977 l 1,32,-1
 727 533 l 1,33,-1
 763 533 l 2,34,35
 913 533 913 533 1063 563 c 1,36,-1
 1063 298 l 1,37,38
 913 328 913 328 763 328 c 2,39,-1
 727 328 l 1,40,-1
 727 300 l 2,41,42
 727 159 727 159 757 0 c 1,43,-1
 416 0 l 1,0,1
EndSplineSet
Validated: 1
EndChar

StartChar: bullet
Encoding: 8226 8226 144
Width: 948
GlyphClass: 2
Flags: W
HStem: 384 740<298.128 649.872>
VStem: 110 728<575.566 932.434>
LayerCount: 2
Fore
SplineSet
474 1124 m 128,-1,1
 626 1124 626 1124 732 1016 c 128,-1,2
 838 908 838 908 838 754 c 128,-1,3
 838 600 838 600 732 492 c 128,-1,4
 626 384 626 384 474 384 c 128,-1,5
 322 384 322 384 216 492 c 128,-1,6
 110 600 110 600 110 754 c 128,-1,7
 110 908 110 908 216 1016 c 128,-1,0
 322 1124 322 1124 474 1124 c 128,-1,1
EndSplineSet
Validated: 1
EndChar

StartChar: ellipsis
Encoding: 8230 8230 145
Width: 1234
GlyphClass: 2
Flags: W
HStem: -20 370<83.1396 320.86 499.14 736.86 913.14 1150.86>
VStem: 20 364<42.5779 287.422> 436 364<42.5779 287.422> 850 364<42.5779 287.422>
LayerCount: 2
Fore
SplineSet
1032 -20 m 128,-1,1
 956 -20 956 -20 903 34 c 128,-1,2
 850 88 850 88 850 165 c 128,-1,3
 850 242 850 242 903 296 c 128,-1,4
 956 350 956 350 1032 350 c 128,-1,5
 1108 350 1108 350 1161 296 c 128,-1,6
 1214 242 1214 242 1214 165 c 128,-1,7
 1214 88 1214 88 1161 34 c 128,-1,0
 1108 -20 1108 -20 1032 -20 c 128,-1,1
618 -20 m 128,-1,9
 542 -20 542 -20 489 34 c 128,-1,10
 436 88 436 88 436 165 c 128,-1,11
 436 242 436 242 489 296 c 128,-1,12
 542 350 542 350 618 350 c 128,-1,13
 694 350 694 350 747 296 c 128,-1,14
 800 242 800 242 800 165 c 128,-1,15
 800 88 800 88 747 34 c 128,-1,8
 694 -20 694 -20 618 -20 c 128,-1,9
202 -20 m 128,-1,17
 126 -20 126 -20 73 34 c 128,-1,18
 20 88 20 88 20 165 c 128,-1,19
 20 242 20 242 73 296 c 128,-1,20
 126 350 126 350 202 350 c 128,-1,21
 278 350 278 350 331 296 c 128,-1,22
 384 242 384 242 384 165 c 128,-1,23
 384 88 384 88 331 34 c 128,-1,16
 278 -20 278 -20 202 -20 c 128,-1,17
EndSplineSet
Validated: 1
EndChar

StartChar: perthousand
Encoding: 8240 8240 146
Width: 2515
GlyphClass: 2
Flags: W
HStem: -20 160<1175.97 1371.07 1945.97 2141.07> 0 21G<382 684> 530 160<1174.6 1370.46 1944.6 2140.46> 820 160<372.973 568.073> 1370 160<371.604 567.463> 1490 20G<1061.5 1362>
VStem: 110 207<1037.09 1313.97> 623 209<1036.54 1313.78> 913 207<197.823 473.967> 1426 209<196.541 473.778> 1683 207<197.823 473.967> 2196 209<196.541 473.778>
DStem2: 980 1225 1208 1251 0.417626 0.908619<-1240.11 296.034>
LayerCount: 2
Fore
SplineSet
2044 -20 m 0,0,1
 1886 -20 1886 -20 1791 75 c 0,2,3
 1683 183 1683 183 1683 335 c 0,4,5
 1683 492 1683 492 1791 596 c 0,6,7
 1892 690 1892 690 2044 690 c 0,8,9
 2199 690 2199 690 2297 596 c 0,10,11
 2405 491 2405 491 2405 335 c 128,-1,12
 2405 179 2405 179 2297 74 c 0,13,14
 2200 -20 2200 -20 2044 -20 c 0,0,1
2043 140 m 0,15,16
 2108 140 2108 140 2152 195.5 c 128,-1,17
 2196 251 2196 251 2196 336 c 0,18,19
 2196 424 2196 424 2152 475 c 0,20,21
 2104 530 2104 530 2043 530 c 0,22,23
 1977 530 1977 530 1934 475 c 0,24,25
 1890 420 1890 420 1890 336 c 0,26,27
 1890 246 1890 246 1934 196 c 0,28,29
 1983 140 1983 140 2043 140 c 0,15,16
1274 -20 m 0,30,31
 1116 -20 1116 -20 1021 75 c 0,32,33
 913 183 913 183 913 335 c 0,34,35
 913 492 913 492 1021 596 c 0,36,37
 1122 690 1122 690 1274 690 c 0,38,39
 1429 690 1429 690 1527 596 c 0,40,41
 1635 491 1635 491 1635 335 c 128,-1,42
 1635 179 1635 179 1527 74 c 0,43,44
 1430 -20 1430 -20 1274 -20 c 0,30,31
1273 140 m 0,45,46
 1338 140 1338 140 1382 195.5 c 128,-1,47
 1426 251 1426 251 1426 336 c 0,48,49
 1426 424 1426 424 1382 475 c 0,50,51
 1334 530 1334 530 1273 530 c 0,52,53
 1207 530 1207 530 1164 475 c 0,54,55
 1120 420 1120 420 1120 336 c 0,56,57
 1120 246 1120 246 1164 196 c 0,58,59
 1213 140 1213 140 1273 140 c 0,45,46
471 1530 m 0,60,61
 626 1530 626 1530 724 1436 c 0,62,63
 832 1331 832 1331 832 1175 c 128,-1,64
 832 1019 832 1019 724 914 c 0,65,66
 627 820 627 820 471 820 c 0,67,68
 313 820 313 820 218 915 c 0,69,70
 110 1020 110 1020 110 1175 c 0,71,72
 110 1332 110 1332 218 1436 c 0,73,74
 319 1530 319 1530 471 1530 c 0,60,61
470 1370 m 0,75,76
 404 1370 404 1370 361 1315 c 0,77,78
 317 1260 317 1260 317 1176 c 0,79,80
 317 1087 317 1087 361 1036 c 0,81,82
 410 980 410 980 470 980 c 0,83,84
 535 980 535 980 579 1035.5 c 128,-1,85
 623 1091 623 1091 623 1176 c 0,86,87
 623 1264 623 1264 579 1315 c 0,88,89
 531 1370 531 1370 470 1370 c 0,75,76
382 0 m 1,90,91
 472 120 472 120 536 259 c 10,92,-1
 980 1225 l 2,93,94
 1043 1362 1043 1362 1080 1510 c 1,95,-1
 1362 1510 l 1,96,97
 1275 1397 1275 1397 1208 1251 c 2,98,-1
 764 285 l 2,99,100
 704 155 704 155 664 0 c 1,101,-1
 382 0 l 1,90,91
EndSplineSet
Validated: 1
EndChar

StartChar: minute
Encoding: 8242 8242 147
Width: 483
GlyphClass: 2
Flags: W
HStem: 1100 430<151.054 273.64>
VStem: 20 443
LayerCount: 2
Fore
SplineSet
153 1530 m 1,0,-1
 463 1530 l 1,1,2
 327 1317 327 1317 270 1100 c 1,3,-1
 20 1100 l 1,4,5
 123 1318 123 1318 153 1530 c 1,0,-1
EndSplineSet
Validated: 1
EndChar

StartChar: second
Encoding: 8243 8243 148
Width: 829
GlyphClass: 2
Flags: W
HStem: 1100 430<151.054 273.64 497.054 619.64>
LayerCount: 2
Fore
SplineSet
499 1530 m 1,0,-1
 809 1530 l 1,1,2
 673 1317 673 1317 616 1100 c 1,3,-1
 366 1100 l 1,4,5
 469 1318 469 1318 499 1530 c 1,0,-1
153 1530 m 1,6,-1
 463 1530 l 1,7,8
 327 1317 327 1317 270 1100 c 1,9,-1
 20 1100 l 1,10,11
 123 1318 123 1318 153 1530 c 1,6,-1
EndSplineSet
Validated: 1
EndChar

StartChar: guilsinglleft
Encoding: 8249 8249 149
Width: 911
GlyphClass: 2
Flags: W
VStem: 60 280<607 887>
DStem2: 60 747 554 1041 0.588499 0.808498<164.78 614.608> 340 747 246 487 0.588499 -0.808498<0 449.828>
LayerCount: 2
Fore
SplineSet
394 1270 m 1,0,-1
 751 1270 l 1,1,2
 634 1151 634 1151 554 1041 c 2,3,-1
 340 747 l 1,4,-1
 554 453 l 2,5,6
 632 346 632 346 751 224 c 1,7,-1
 394 224 l 1,8,9
 331 368 331 368 246 487 c 2,10,-1
 60 747 l 1,11,-1
 246 1007 l 2,12,13
 331 1126 331 1126 394 1270 c 1,0,-1
EndSplineSet
Validated: 1
EndChar

StartChar: guilsinglright
Encoding: 8250 8250 150
Width: 911
GlyphClass: 2
Flags: W
VStem: 571 280<607 887>
DStem2: 851 747 357 1041 0.588499 -0.808498<-614.608 -164.78> 357 453 851 747 0.588499 0.808498<-86.1912 363.637>
LayerCount: 2
Fore
SplineSet
517 1270 m 1,0,1
 580 1126 580 1126 665 1007 c 2,2,-1
 851 747 l 1,3,-1
 665 487 l 2,4,5
 580 368 580 368 517 224 c 1,6,-1
 160 224 l 1,7,8
 279 346 279 346 357 453 c 2,9,-1
 571 747 l 1,10,-1
 357 1041 l 2,11,12
 277 1151 277 1151 160 1270 c 1,13,-1
 517 1270 l 1,0,1
EndSplineSet
Validated: 1
EndChar

StartChar: fraction
Encoding: 8260 8260 151
Width: 1000
GlyphClass: 2
Flags: W
HStem: 0 21G<10 312> 1490 20G<689.5 990>
DStem2: 608 1225 836 1251 0.417626 0.908619<-1240.11 296.034>
LayerCount: 2
Fore
SplineSet
10 0 m 1,0,1
 100 120 100 120 164 259 c 10,2,-1
 608 1225 l 2,3,4
 671 1362 671 1362 708 1510 c 1,5,-1
 990 1510 l 1,6,7
 903 1397 903 1397 836 1251 c 2,8,-1
 392 285 l 2,9,10
 332 155 332 155 292 0 c 1,11,-1
 10 0 l 1,0,1
EndSplineSet
Validated: 1
EndChar

StartChar: Euro
Encoding: 8364 8364 152
Width: 1766
GlyphClass: 2
Flags: W
HStem: -20 175<825.621 1255.1> 542 144<535 1158.25> 818 144<533 1158.25> 1355 175<826.679 1249.42>
LayerCount: 2
Fore
SplineSet
1034 -20 m 0,0,1
 640 -20 640 -20 400 194 c 0,2,3
 243 333 243 333 189 532 c 1,4,5
 125 525 125 525 60 512 c 1,6,-1
 60 716 l 1,7,8
 111 706 111 706 163 699 c 1,9,10
 161 727 161 727 161 755 c 0,11,12
 161 780 161 780 162 805 c 1,13,14
 111 798 111 798 60 788 c 1,15,-1
 60 992 l 1,16,17
 124 979 124 979 188 972 c 1,18,19
 241 1175 241 1175 402 1319 c 0,20,21
 639 1530 639 1530 1034 1530 c 0,22,23
 1351 1530 1351 1530 1586 1385 c 1,24,-1
 1586 1020 l 1,25,-1
 1575 1020 l 1,26,27
 1347 1355 1347 1355 1033 1355 c 0,28,29
 806 1355 806 1355 647 1174 c 0,30,31
 568 1083 568 1083 533 962 c 1,32,-1
 863 962 l 2,33,34
 1011 962 1011 962 1163 992 c 1,35,-1
 1163 788 l 1,36,37
 1012 818 1012 818 863 818 c 2,38,-1
 508 818 l 1,39,40
 506 787 506 787 506 755 c 0,41,42
 506 720 506 720 509 686 c 1,43,-1
 863 686 l 2,44,45
 1011 686 1011 686 1163 716 c 1,46,-1
 1163 512 l 1,47,48
 1012 542 1012 542 863 542 c 2,49,-1
 535 542 l 1,50,51
 570 425 570 425 646 338 c 0,52,53
 806 155 806 155 1025 155 c 0,54,55
 1370 155 1370 155 1595 490 c 1,56,-1
 1606 490 l 1,57,-1
 1606 186 l 1,58,59
 1369 -20 1369 -20 1034 -20 c 0,0,1
EndSplineSet
Validated: 1
EndChar

StartChar: afii61248
Encoding: 8453 8453 153
Width: 2018
GlyphClass: 2
Flags: W
HStem: -20 126<1359.32 1596.92> 0 21G<499 801> 678 128<1360.49 1598.57> 694 126<433.035 721.673> 1402 128<432.151 717.801> 1490 20G<1178.5 1479>
VStem: 110 211<939.97 1285.64> 1050 209<219.741 565.265> 1699 209<217.247 565.109>
DStem2: 1097 1225 1325 1251 0.417626 0.908619<-1240.11 296.034>
LayerCount: 2
Fore
SplineSet
499 0 m 1,0,1
 589 120 589 120 653 259 c 10,2,-1
 1097 1225 l 2,3,4
 1160 1362 1160 1362 1197 1510 c 1,5,-1
 1479 1510 l 1,6,7
 1392 1397 1392 1397 1325 1251 c 2,8,-1
 881 285 l 2,9,10
 821 155 821 155 781 0 c 1,11,-1
 499 0 l 1,0,1
1479 -20 m 0,12,13
 1285 -20 1285 -20 1165 102 c 0,14,15
 1050 220 1050 220 1050 393 c 0,16,17
 1050 571 1050 571 1165 683 c 0,18,19
 1290 806 1290 806 1479 806 c 0,20,21
 1671 806 1671 806 1793 683 c 0,22,23
 1908 566 1908 566 1908 393 c 0,24,25
 1908 215 1908 215 1793 102 c 0,26,27
 1668 -20 1668 -20 1479 -20 c 0,12,13
1479 106 m 0,28,29
 1569 106 1569 106 1634 187.5 c 152,-1,30
 1699 269 1699 269 1699 392 c 0,31,32
 1699 511 1699 511 1635.5 594.5 c 128,-1,33
 1572 678 1572 678 1479 678 c 128,-1,34
 1386 678 1386 678 1324 597 c 0,35,36
 1259 513 1259 513 1259 392 c 0,37,38
 1259 273 1259 273 1323 189.5 c 128,-1,39
 1387 106 1387 106 1479 106 c 0,28,29
525 1530 m 0,40,41
 686 1530 686 1530 815 1453 c 1,42,-1
 815 1237 l 1,43,-1
 805 1237 l 1,44,45
 784 1280 784 1280 763 1309 c 0,46,47
 697 1402 697 1402 587 1402 c 0,48,49
 460 1402 460 1402 387 1317 c 0,50,51
 321 1240 321 1240 321 1111 c 0,52,53
 321 992 321 992 387.5 906 c 128,-1,54
 454 820 454 820 597 820 c 0,55,56
 723 820 723 820 844 993 c 1,57,-1
 854 993 l 1,58,-1
 854 808 l 1,59,60
 719 694 719 694 535 694 c 0,61,62
 348 694 348 694 228 819 c 0,63,64
 110 942 110 942 110 1114 c 0,65,66
 110 1284 110 1284 228 1404 c 0,67,68
 353 1530 353 1530 525 1530 c 0,40,41
EndSplineSet
Validated: 1
EndChar

StartChar: afii61289
Encoding: 8467 8467 154
Width: 1247
GlyphClass: 2
Flags: W
HStem: 0 1G<110 486.273 636 745> 1510 20G<804.5 902>
LayerCount: 2
Fore
SplineSet
690 -20 m 0,0,1
 582 -20 582 -20 501 44 c 1,2,-1
 474 0 l 1,3,-1
 110 0 l 1,4,5
 272 162 272 162 375 325 c 1,6,7
 364 420 364 420 364 524 c 0,8,9
 364 686 364 686 411 865 c 0,10,11
 509 1240 509 1240 661 1423 c 0,12,13
 749 1530 749 1530 860 1530 c 0,14,15
 944 1530 944 1530 994 1480 c 0,16,17
 1058 1416 1058 1416 1058 1281 c 0,18,19
 1058 1186 1058 1186 1029 1041 c 0,20,21
 959 688 959 688 676 272 c 1,22,23
 678 216 678 216 699 216 c 128,-1,24
 720 216 720 216 745 260 c 0,25,26
 760 286 760 286 771 319 c 1,27,-1
 1087 319 l 1,28,29
 994 144 994 144 897 62 c 128,-1,30
 800 -20 800 -20 690 -20 c 0,0,1
EndSplineSet
Validated: 1
EndChar

StartChar: trademark
Encoding: 8482 8482 155
Width: 1778
GlyphClass: 2
Flags: W
HStem: 1403 127<23.2788 237.927 438.059 652.029>
VStem: 238 200<732.935 1402.13> 729 201<1409.47 1530> 1402 203<1430.35 1530>
DStem2: 694 908 864 911 0.0895267 0.995984<-54.1551 262.201> 984 1366 886 1154 0.417136 -0.908844<151.796 429.117> 1163 976 1301 894 0.42669 0.904398<0 265.643> 1599 1353 1421 1148 0.0895267 -0.995984<188.241 502.214>
LayerCount: 2
Fore
SplineSet
729 1530 m 1,0,-1
 930 1530 l 1,1,2
 948 1444 948 1444 984 1366 c 2,3,-1
 1163 976 l 1,4,-1
 1347 1366 l 2,5,6
 1381 1437 1381 1437 1402 1530 c 1,7,-1
 1605 1530 l 1,8,9
 1596 1472 1596 1472 1596 1429 c 128,-1,10
 1596 1386 1596 1386 1599 1353 c 2,11,-1
 1639 908 l 2,12,13
 1647 822 1647 822 1678 730 c 1,14,-1
 1436 730 l 1,15,16
 1445 788 1445 788 1445 833.5 c 128,-1,17
 1445 879 1445 879 1442 911 c 2,18,-1
 1421 1148 l 1,19,-1
 1301 894 l 2,20,21
 1263 814 1263 814 1246 730 c 1,22,-1
 1059 730 l 1,23,24
 1045 807 1045 807 1005 894 c 2,25,-1
 886 1154 l 1,26,-1
 864 911 l 2,27,28
 862 886 862 886 862 837 c 128,-1,29
 862 788 862 788 871 730 c 1,30,-1
 654 730 l 1,31,32
 686 820 686 820 694 908 c 2,33,-1
 734 1353 l 2,34,35
 736 1378 736 1378 736 1408.5 c 128,-1,36
 736 1439 736 1439 729 1530 c 1,0,-1
20 1530 m 1,37,-1
 655 1530 l 1,38,-1
 655 1377 l 1,39,40
 560 1403 560 1403 455 1403 c 2,41,-1
 440 1403 l 1,42,43
 438 1375 438 1375 438 1350 c 2,44,-1
 438 908 l 2,45,46
 438 822 438 822 460 730 c 1,47,-1
 215 730 l 1,48,49
 238 824 238 824 238 908 c 2,50,-1
 238 1350 l 2,51,52
 238 1377 238 1377 235 1403 c 1,53,-1
 220 1403 l 2,54,55
 125 1403 125 1403 20 1377 c 1,56,-1
 20 1530 l 1,37,-1
EndSplineSet
Validated: 1
EndChar

StartChar: uni2126
Encoding: 8486 8486 156
Width: 1863
GlyphClass: 2
Flags: W
HStem: 0 200<24.822 367 698.668 823 1041 1169.71 1497 1837.66> 1355 175<749.318 1116.56>
VStem: 110 345<514.263 1016.81> 1410 346<514.167 1015.04>
LayerCount: 2
Fore
SplineSet
20 0 m 1,0,-1
 20 240 l 1,1,2
 174 200 174 200 367 200 c 1,3,4
 360 206 360 206 354 212 c 0,5,6
 110 455 110 455 110 765 c 0,7,8
 110 1081 110 1081 350 1315 c 0,9,10
 571 1530 571 1530 933 1530 c 128,-1,11
 1295 1530 1295 1530 1516 1315 c 0,12,13
 1756 1083 1756 1083 1756 755 c 0,14,15
 1756 459 1756 459 1509 212 c 0,16,17
 1503 206 1503 206 1497 200 c 1,18,19
 1672 200 1672 200 1843 240 c 1,20,-1
 1843 0 l 1,21,-1
 1041 0 l 1,22,-1
 1041 186 l 1,23,24
 1205 246 1205 246 1272 328 c 0,25,26
 1410 501 1410 501 1410 754 c 0,27,28
 1410 1010 1410 1010 1272 1182 c 0,29,30
 1133 1355 1133 1355 933 1355 c 128,-1,31
 733 1355 733 1355 593 1182 c 0,32,33
 455 1012 455 1012 455 755 c 0,34,35
 455 496 455 496 590 332 c 0,36,37
 661 246 661 246 823 186 c 1,38,-1
 823 0 l 1,39,-1
 20 0 l 1,0,-1
EndSplineSet
Validated: 1
EndChar

StartChar: estimated
Encoding: 8494 8494 157
Width: 1241
GlyphClass: 2
Flags: W
HStem: -20 183<441.95 798.867> 491 189<393 845> 935 185<439.039 799.176>
VStem: 60 333<316.826 491 680 791.88>
LayerCount: 2
Fore
SplineSet
619 -20 m 0,0,1
 368 -20 368 -20 214 145 c 128,-1,2
 60 310 60 310 60 553 c 0,3,4
 60 802 60 802 216 960 c 0,5,6
 374 1120 374 1120 616 1120 c 0,7,8
 859 1120 859 1120 1007 974 c 0,9,10
 1181 802 1181 802 1181 491 c 1,11,-1
 393 491 l 1,12,-1
 393 239 l 1,13,14
 488 163 488 163 619 163 c 0,15,16
 827 163 827 163 945 351 c 1,17,-1
 1109 255 l 1,18,19
 985 85 985 85 866 32.5 c 128,-1,20
 747 -20 747 -20 619 -20 c 0,0,1
845 680 m 1,21,-1
 845 862 l 1,22,23
 747 935 747 935 617 935 c 0,24,25
 485 935 485 935 393 861 c 1,26,-1
 393 680 l 1,27,-1
 845 680 l 1,21,-1
EndSplineSet
Validated: 1
EndChar

StartChar: partialdiff
Encoding: 8706 8706 158
Width: 1325
GlyphClass: 2
Flags: W
HStem: -20 273<452.903 666.396> 823 260<577.1 826.76> 1257 273<502.596 826.913>
VStem: 110 305<291.814 617.824> 906 309<1024 1178.17>
LayerCount: 2
Fore
SplineSet
532 -20 m 0,0,1
 262 -20 262 -20 163 171 c 0,2,3
 110 273 110 273 110 416 c 0,4,5
 110 673 110 673 264 878 c 128,-1,6
 418 1083 418 1083 690 1083 c 0,7,8
 809 1083 809 1083 906 1024 c 1,9,10
 903 1115 903 1115 865 1173 c 0,11,12
 808 1257 808 1257 686 1257 c 0,13,14
 531 1257 531 1257 380 1132 c 1,15,-1
 380 1443 l 1,16,17
 526 1530 526 1530 723 1530 c 0,18,19
 1040 1530 1040 1530 1156 1271 c 0,20,21
 1215 1139 1215 1139 1215 950 c 0,22,23
 1215 563 1215 563 1032 272 c 0,24,25
 851 -20 851 -20 532 -20 c 0,0,1
879 699 m 1,26,27
 858 756 858 756 815 788 c 0,28,29
 768 823 768 823 700 823 c 0,30,31
 591 823 591 823 510 706 c 0,32,33
 415 567 415 567 415 431 c 0,34,35
 415 344 415 344 453 295 c 0,36,37
 485 253 485 253 545 253 c 0,38,39
 652 253 652 253 747 376 c 128,-1,40
 842 499 842 499 879 699 c 1,26,27
EndSplineSet
Validated: 1
EndChar

StartChar: uni2206
Encoding: 8710 8710 159
Width: 1731
GlyphClass: 2
Flags: W
HStem: 0 174<400 1264> 1490 20G<683 1048>
DStem2: 159 259 445 285 0.418402 0.908262<25.3464 1072.26> 1127 1225 832 1131 0.418402 -0.908262<-35.0408 1010.09>
LayerCount: 2
Fore
SplineSet
5 0 m 1,0,1
 98 127 98 127 159 259 c 2,2,-1
 604 1225 l 2,3,4
 662 1351 662 1351 704 1510 c 1,5,-1
 1027 1510 l 1,6,7
 1069 1351 1069 1351 1127 1225 c 2,8,-1
 1572 259 l 2,9,10
 1629 136 1629 136 1726 0 c 1,11,-1
 5 0 l 1,0,1
400 174 m 1,12,-1
 1264 174 l 1,13,14
 1245 229 1245 229 1212 301 c 2,15,-1
 832 1131 l 1,16,-1
 445 285 l 2,17,18
 418 226 418 226 400 174 c 1,12,-1
EndSplineSet
Validated: 1
EndChar

StartChar: product
Encoding: 8719 8719 160
Width: 1589
GlyphClass: 2
Flags: W
HStem: -410 21G<130 510 1079 1459> 1336 174<483.445 1105.72>
VStem: 160 320<-405.312 1331.88> 1109 320<-405.312 1331.88>
LayerCount: 2
Fore
SplineSet
130 -410 m 1,0,1
 160 -260 160 -260 160 -110 c 2,2,-1
 160 1210 l 2,3,4
 160 1360 160 1360 130 1510 c 1,5,-1
 1459 1510 l 1,6,7
 1429 1360 1429 1360 1429 1210 c 2,8,-1
 1429 -110 l 2,9,10
 1429 -260 1429 -260 1459 -410 c 1,11,-1
 1079 -410 l 1,12,13
 1109 -260 1109 -260 1109 -110 c 2,14,-1
 1109 1210 l 2,15,16
 1109 1277 1109 1277 1101 1336 c 1,17,-1
 488 1336 l 17,18,19
 480 1271 480 1271 480 1210 c 2,20,-1
 480 -110 l 2,21,22
 480 -260 480 -260 510 -410 c 1,23,-1
 130 -410 l 1,0,1
EndSplineSet
Validated: 1
EndChar

StartChar: summation
Encoding: 8721 8721 161
Width: 1329
GlyphClass: 2
Flags: W
HStem: -410 174<519 1264.62> 1336 174<508 1169.71>
DStem2: 214 -151 519 -236 0.42138 0.906884<51.4359 777.758>
LayerCount: 2
Fore
SplineSet
60 -410 m 1,0,1
 160 -269 160 -269 214 -151 c 2,2,-1
 536 557 l 25,3,-1
 214 1251 l 2,4,5
 144 1402 144 1402 60 1510 c 1,6,-1
 1174 1510 l 1,7,-1
 1174 1306 l 1,8,9
 1037 1336 1037 1336 874 1336 c 2,10,-1
 508 1336 l 1,11,-1
 887 556 l 1,12,-1
 519 -236 l 1,13,-1
 969 -236 l 2,14,15
 1129 -236 1129 -236 1269 -206 c 1,16,-1
 1269 -410 l 1,17,-1
 60 -410 l 1,0,1
EndSplineSet
Validated: 1
EndChar

StartChar: uni2215
Encoding: 8725 8725 162
Width: 1000
GlyphClass: 2
Flags: W
HStem: 0 21G<10 312> 1490 20G<689.5 990>
DStem2: 608 1225 836 1251 0.417626 0.908619<-1240.11 296.034>
LayerCount: 2
Fore
SplineSet
10 0 m 1,0,1
 100 120 100 120 164 259 c 10,2,-1
 608 1225 l 2,3,4
 671 1362 671 1362 708 1510 c 1,5,-1
 990 1510 l 1,6,7
 903 1397 903 1397 836 1251 c 2,8,-1
 392 285 l 2,9,10
 332 155 332 155 292 0 c 1,11,-1
 10 0 l 1,0,1
EndSplineSet
Validated: 1
EndChar

StartChar: uni2219
Encoding: 8729 8729 163
Width: 404
GlyphClass: 2
Flags: W
HStem: 569 370<83.1396 320.86>
VStem: 20 364<631.578 876.422>
LayerCount: 2
Fore
SplineSet
202 939 m 132,-1,1
 278 939 278 939 331 885 c 132,-1,2
 384 831 384 831 384 754 c 132,-1,3
 384 677 384 677 331 623 c 132,-1,4
 278 569 278 569 202 569 c 132,-1,5
 126 569 126 569 73 623 c 132,-1,6
 20 677 20 677 20 754 c 132,-1,7
 20 831 20 831 73 885 c 132,-1,0
 126 939 126 939 202 939 c 132,-1,1
EndSplineSet
Validated: 1
EndChar

StartChar: radical
Encoding: 8730 8730 164
Width: 1359
GlyphClass: 2
Flags: W
HStem: 0 21G<376.5 665.5> 1490 20G<1018 1359>
DStem2: 542 383 174 533 0.426675 -0.904405<-431.663 -2.89384> 542 383 748 285 0.427644 0.903947<0 1224.53>
LayerCount: 2
Fore
SplineSet
391 0 m 1,0,1
 362 134 362 134 291 285 c 2,2,-1
 174 533 l 2,3,4
 119 649 119 649 20 792 c 1,5,-1
 385 792 l 1,6,7
 430 628 430 628 485 507 c 2,8,-1
 542 383 l 1,9,-1
 933 1225 l 2,10,11
 1003 1376 1003 1376 1033 1510 c 1,12,-1
 1359 1510 l 1,13,14
 1269 1387 1269 1387 1205 1251 c 2,15,-1
 748 285 l 2,16,17
 683 147 683 147 648 0 c 1,18,-1
 391 0 l 1,0,1
EndSplineSet
Validated: 1
EndChar

StartChar: infinity
Encoding: 8734 8734 165
Width: 1476
GlyphClass: 2
Flags: W
HStem: 384 204<362.406 585.594 890.406 1113.59> 920 204<362.406 585.594 890.406 1113.59>
VStem: 110 200<640.129 867.871> 638 200<639.551 868.449> 1166 200<640.129 867.871>
CounterMasks: 1 38
LayerCount: 2
Fore
SplineSet
474 1124 m 128,-1,1
 626 1124 626 1124 732 1016 c 0,2,3
 735 1013 735 1013 738 1010 c 1,4,5
 741 1013 741 1013 744 1016 c 0,6,7
 850 1124 850 1124 1002 1124 c 128,-1,8
 1154 1124 1154 1124 1260 1016 c 128,-1,9
 1366 908 1366 908 1366 754 c 128,-1,10
 1366 600 1366 600 1260 492 c 128,-1,11
 1154 384 1154 384 1002 384 c 128,-1,12
 850 384 850 384 744 492 c 0,13,14
 741 495 741 495 738 498 c 1,15,16
 735 495 735 495 732 492 c 0,17,18
 626 384 626 384 474 384 c 128,-1,19
 322 384 322 384 216 492 c 128,-1,20
 110 600 110 600 110 754 c 128,-1,21
 110 908 110 908 216 1016 c 128,-1,0
 322 1124 322 1124 474 1124 c 128,-1,1
474 920 m 128,-1,23
 406 920 406 920 358 871.5 c 128,-1,24
 310 823 310 823 310 754 c 128,-1,25
 310 685 310 685 358 636.5 c 128,-1,26
 406 588 406 588 474 588 c 128,-1,27
 542 588 542 588 590 636.5 c 128,-1,28
 638 685 638 685 638 754 c 128,-1,29
 638 823 638 823 590 871.5 c 128,-1,22
 542 920 542 920 474 920 c 128,-1,23
1002 920 m 128,-1,31
 934 920 934 920 886 871.5 c 128,-1,32
 838 823 838 823 838 754 c 128,-1,33
 838 685 838 685 886 636.5 c 128,-1,34
 934 588 934 588 1002 588 c 128,-1,35
 1070 588 1070 588 1118 636.5 c 128,-1,36
 1166 685 1166 685 1166 754 c 128,-1,37
 1166 823 1166 823 1118 871.5 c 128,-1,30
 1070 920 1070 920 1002 920 c 128,-1,31
EndSplineSet
Validated: 1
EndChar

StartChar: approxequal
Encoding: 8776 8776 166
Width: 1126
GlyphClass: 2
Flags: W
HStem: 305 228<684.389 924.089> 513 228<201.473 441.611> 730 228<684.389 924.089> 938 228<201.224 441.611>
VStem: 110 10<305 324.043 730 749.043> 1006 10<721.957 741 1146.96 1166>
DStem2: 551 1090 575 806 0.833975 -0.551803<-109.757 286.484> 551 665 575 381 0.833975 -0.551803<-109.757 286.484>
LayerCount: 2
Fore
SplineSet
110 672 m 1,0,1
 197 741 197 741 328 741 c 0,2,3
 436 741 436 741 551 665 c 2,4,-1
 684 577 l 2,5,6
 751 533 751 533 809 533 c 272,7,8
 960 533 960 533 1006 741 c 1,9,-1
 1016 741 l 1,10,-1
 1016 374 l 1,11,12
 934 305 934 305 798 305 c 0,13,14
 690 305 690 305 575 381 c 2,15,-1
 442 469 l 2,16,17
 375 513 375 513 317 513 c 272,18,19
 166 513 166 513 120 305 c 1,20,-1
 110 305 l 1,21,-1
 110 672 l 1,0,1
110 1097 m 1,22,23
 196 1166 196 1166 328 1166 c 0,24,25
 436 1166 436 1166 551 1090 c 2,26,-1
 684 1002 l 2,27,28
 751 958 751 958 809 958 c 272,29,30
 960 958 960 958 1006 1166 c 1,31,-1
 1016 1166 l 1,32,-1
 1016 799 l 1,33,34
 934 730 934 730 798 730 c 0,35,36
 690 730 690 730 575 806 c 2,37,-1
 442 894 l 2,38,39
 375 938 375 938 317 938 c 272,40,41
 166 938 166 938 120 730 c 1,42,-1
 110 730 l 1,43,-1
 110 1097 l 1,22,23
EndSplineSet
Validated: 1
EndChar

StartChar: notequal
Encoding: 8800 8800 167
Width: 1310
GlyphClass: 2
Flags: W
HStem: 458 204<670 1126.25> 827 204<182.688 638>
DStem2: 510 662 670 662 0.612631 0.790369<-464.06 -265.224 98.0209 208.828 572.072 776.21>
LayerCount: 2
Fore
SplineSet
966 1296 m 1,0,-1
 1200 1296 l 1,1,2
 1088 1201 1088 1201 992 1078 c 2,3,-1
 960 1037 l 1,4,5
 1045 1044 1045 1044 1131 1061 c 1,6,-1
 1131 797 l 1,7,8
 980 827 980 827 831 827 c 2,9,-1
 797 827 l 1,10,-1
 670 662 l 1,11,-1
 831 662 l 2,12,13
 979 662 979 662 1131 692 c 1,14,-1
 1131 428 l 1,15,16
 980 458 980 458 831 458 c 2,17,-1
 511 458 l 1,18,-1
 506 451 l 2,19,20
 416 333 416 333 346 196 c 1,21,-1
 110 196 l 1,22,23
 236 307 236 307 318 414 c 2,24,-1
 348 452 l 1,25,26
 263 445 263 445 178 428 c 1,27,-1
 178 692 l 1,28,29
 328 662 328 662 478 662 c 2,30,-1
 510 662 l 1,31,-1
 638 827 l 1,32,-1
 478 827 l 2,33,34
 328 827 328 827 178 797 c 1,35,-1
 178 1061 l 1,36,37
 328 1031 328 1031 478 1031 c 2,38,-1
 796 1031 l 1,39,-1
 804 1041 l 2,40,41
 906 1171 906 1171 966 1296 c 1,0,-1
EndSplineSet
Validated: 1
EndChar

StartChar: lessequal
Encoding: 8804 8804 168
Width: 1290
GlyphClass: 2
Flags: W
HStem: 79 204<114.564 1125.31> 782 282<110 304.854> 1497 20G<1065 1130>
DStem2: 397 1146 436 896 0.909246 0.416258<-65.1969 674.931> 436 896 401 702 0.907167 -0.420771<4.8456 748.996>
LayerCount: 2
Fore
SplineSet
1130 1517 m 1,0,-1
 1130 1177 l 1,1,2
 990 1141 990 1141 845 1077 c 2,3,-1
 436 896 l 1,4,-1
 845 702 l 2,5,6
 993 632 993 632 1130 602 c 1,7,-1
 1130 330 l 1,8,9
 998 425 998 425 871 484 c 2,10,-1
 401 702 l 2,11,12
 254 770 254 770 110 782 c 1,13,-1
 110 1064 l 1,14,15
 248 1078 248 1078 397 1146 c 2,16,-1
 871 1363 l 2,17,18
 1000 1422 1000 1422 1130 1517 c 1,0,-1
110 313 m 1,19,20
 246 283 246 283 410 283 c 2,21,-1
 830 283 l 2,22,23
 980 283 980 283 1130 313 c 1,24,-1
 1130 49 l 1,25,26
 982 79 982 79 830 79 c 2,27,-1
 410 79 l 2,28,29
 256 79 256 79 110 49 c 1,30,-1
 110 313 l 1,19,20
EndSplineSet
Validated: 1
EndChar

StartChar: greaterequal
Encoding: 8805 8805 169
Width: 1290
GlyphClass: 2
Flags: W
HStem: 79 204<164.564 1175.31> 783 282<985.146 1180> 1497 20G<160 226>
DStem2: 445 770 419 484 0.909246 0.416258<-296.311 443.817> 419 1363 854 951 0.907167 -0.420771<-181.02 563.13>
LayerCount: 2
Fore
SplineSet
160 1517 m 1,0,1
 292 1422 292 1422 419 1363 c 2,2,-1
 889 1145 l 2,3,4
 1036 1077 1036 1077 1180 1065 c 1,5,-1
 1180 783 l 1,6,7
 1042 769 1042 769 893 701 c 2,8,-1
 419 484 l 2,9,10
 290 425 290 425 160 330 c 1,11,-1
 160 670 l 1,12,13
 300 706 300 706 445 770 c 2,14,-1
 854 951 l 1,15,-1
 445 1145 l 2,16,17
 297 1215 297 1215 160 1245 c 1,18,-1
 160 1517 l 1,0,1
160 313 m 1,19,20
 296 283 296 283 460 283 c 2,21,-1
 880 283 l 2,22,23
 1030 283 1030 283 1180 313 c 1,24,-1
 1180 49 l 1,25,26
 1032 79 1032 79 880 79 c 2,27,-1
 460 79 l 2,28,29
 306 79 306 79 160 49 c 1,30,-1
 160 313 l 1,19,20
EndSplineSet
Validated: 1
EndChar

StartChar: lozenge
Encoding: 9674 9674 170
Width: 1178
GlyphClass: 2
Flags: W
HStem: -20 21G<575.042 602.903> 1510 20G<575.641 602.409>
DStem2: 60 738 354 801 0.555427 0.831565<215.684 555.993> 354 801 60 738 0.5723 -0.820044<0 496.043> 589 1530 543 1084 0.556885 -0.83059<344.826 844.071> 639 395 589 -20 0.57078 0.821103<0 333.611>
LayerCount: 2
Fore
SplineSet
639 395 m 1,0,-1
 825 672 l 1,1,-1
 543 1084 l 1,2,-1
 354 801 l 1,3,-1
 639 395 l 1,0,-1
589 -20 m 1,4,-1
 60 738 l 1,5,-1
 589 1530 l 1,6,-1
 1118 741 l 1,7,-1
 589 -20 l 1,4,-1
EndSplineSet
Validated: 1
EndChar

StartChar: four
Encoding: 52 52 171
Width: 1307
Flags: W
HStem: 0 21G<738 1108> 352 213<1080.41 1227> 352 190<1078 1224.75> 352 174<277 768> 1530 20G<917.5 1094>
VStem: 768 310<4.6875 352 542 1203>
DStem2: 188 711 277 526 0.587105 0.809511<-93.3103 735.882>
LayerCount: 2
Fore
SplineSet
738 0 m 1,0,1
 768 149 768 149 768 300 c 2,2,-1
 768 352 l 1,3,-1
 60 352 l 1,4,-1
 10 497 l 1,5,6
 103 595 103 595 188 711 c 2,7,-1
 579 1247 l 2,8,9
 671 1373 671 1373 726 1510 c 1,10,-1
 1109 1550 l 1,11,12
 1079 1406 1079 1406 1079 1250 c 2,13,-1
 1078 542 l 1,14,15
 1155 550 1155 550 1227 565 c 1,16,-1
 1227 352 l 1,17,-1
 1078 352 l 1,18,-1
 1078 300 l 2,19,20
 1078 150 1078 150 1108 0 c 1,21,-1
 738 0 l 1,0,1
768 526 m 1,22,-1
 768 1203 l 1,23,-1
 277 526 l 1,24,-1
 768 526 l 1,22,-1
EndSplineSet
Validated: 1
EndChar

StartChar: ampersand
Encoding: 38 38 172
Width: 1783
Flags: W
HStem: -20 175<573.758 905.716> 0 21G<1273.5 1743> 744 207<606.037 818.413> 1356 174<557.159 817.932>
VStem: 110 337<282.699 622.059> 203 303<1038.98 1306.23>
DStem2: 1178 699 844 671 0.604308 -0.796751<-289.826 96.5921> 1235 621 1375 439 0.506379 0.862311<0 296.008>
LayerCount: 2
Fore
SplineSet
721 155 m 0,0,1
 832 155 832 155 913 203 c 0,2,3
 1021 267 1021 267 1080 353 c 1,4,-1
 844 671 l 2,5,6
 790 744 790 744 695 744 c 0,7,8
 591 744 591 744 521 665 c 0,9,10
 447 580 447 580 447 448 c 0,11,12
 447 314 447 314 530 234 c 0,13,14
 611 155 611 155 721 155 c 0,0,1
1743 0 m 1,15,-1
 1290 0 l 1,16,17
 1257 103 1257 103 1206 189 c 1,18,19
 1165 142 1165 142 1122 107 c 0,20,21
 966 -20 966 -20 696 -20 c 0,22,23
 425 -20 425 -20 267.5 116.5 c 128,-1,24
 110 253 110 253 110 454 c 0,25,26
 110 657 110 657 275 780 c 0,27,28
 339 828 339 828 428 852 c 1,29,30
 203 960 203 960 203 1164 c 0,31,32
 203 1349 203 1349 359 1455 c 0,33,34
 468 1530 468 1530 652 1530 c 0,35,36
 834 1530 834 1530 968 1458 c 1,37,-1
 968 1152 l 1,38,-1
 958 1152 l 1,39,40
 844 1356 844 1356 666 1356 c 0,41,42
 596 1356 596 1356 552 1308 c 0,43,44
 506 1258 506 1258 506 1168 c 0,45,46
 506 1065 506 1065 575 1015 c 0,47,48
 664 951 664 951 768 951 c 2,49,-1
 1025 951 l 1,50,51
 1069 848 1069 848 1178 699 c 2,52,-1
 1235 621 l 1,53,-1
 1253 652 l 2,54,55
 1327 779 1327 779 1358 951 c 1,56,-1
 1707 951 l 1,57,58
 1600 822 1600 822 1513 674 c 2,59,-1
 1375 439 l 1,60,-1
 1514 256 l 2,61,62
 1612 127 1612 127 1743 0 c 1,15,-1
EndSplineSet
Validated: 1
EndChar

StartChar: AE
Encoding: 198 198 173
Width: 2022
Flags: W
HStem: 0 174<1387.28 1957.56> 671 175<793 1074 1384 1837.31> 1336 174<1388.1 1837.31>
VStem: 1074 310<177.125 671 846 1334.09>
DStem2: 719 1213 695 671 0.485854 0.87404<-1235.78 -485.39 -284.82 278.862>
LayerCount: 2
Fore
SplineSet
5 0 m 1,0,1
 123 143 123 143 197 276 c 2,2,-1
 719 1213 l 2,3,4
 800 1358 800 1358 850 1510 c 1,5,-1
 1842 1510 l 1,6,-1
 1842 1306 l 1,7,8
 1692 1336 1692 1336 1542 1336 c 2,9,-1
 1394 1336 l 1,10,11
 1384 1275 1384 1275 1384 1210 c 2,12,-1
 1384 846 l 1,13,-1
 1542 846 l 2,14,15
 1692 846 1692 846 1842 876 c 1,16,-1
 1842 641 l 1,17,18
 1692 671 1692 671 1542 671 c 2,19,-1
 1384 671 l 1,20,-1
 1384 300 l 2,21,22
 1384 235 1384 235 1392 174 c 1,23,-1
 1662 174 l 2,24,25
 1820 174 1820 174 1962 204 c 1,26,-1
 1962 0 l 1,27,-1
 1044 -1 l 1,28,29
 1074 149 1074 149 1074 299 c 2,30,-1
 1074 671 l 1,31,-1
 695 671 l 1,32,-1
 481 286 l 2,33,34
 401 142 401 142 348 0 c 1,35,-1
 5 0 l 1,0,1
1074 846 m 1,36,-1
 1074 1209 l 2,37,38
 1074 1276 1074 1276 1068 1342 c 1,39,-1
 793 846 l 1,40,-1
 1074 846 l 1,36,-1
EndSplineSet
Validated: 1
EndChar

StartChar: Eth
Encoding: 208 208 174
Width: 1649
Flags: W
HStem: 0 175<483.125 936.841> 691 134<480 880.471> 1335 175<484.307 937.808>
VStem: 170 310<178.125 686 830 1331.88> 1243 346<512.438 1000.69>
LayerCount: 2
Fore
SplineSet
488 175 m 1,0,-1
 726 175 l 2,1,2
 964 175 964 175 1105 348 c 0,3,4
 1243 520 1243 520 1243 755.5 c 128,-1,5
 1243 991 1243 991 1105 1162 c 0,6,7
 966 1335 966 1335 726 1335 c 2,8,-1
 490 1335 l 1,9,10
 480 1272 480 1272 480 1210 c 2,11,-1
 480 825 l 1,12,-1
 605 825 l 2,13,14
 741 825 741 825 885 853 c 1,15,-1
 885 663 l 1,16,17
 740 691 740 691 605 691 c 2,18,-1
 480 691 l 1,19,-1
 480 300 l 2,20,21
 480 230 480 230 488 175 c 1,0,-1
140 0 m 1,22,23
 170 150 170 150 170 300 c 2,24,-1
 170 686 l 1,25,26
 91 679 91 679 10 663 c 1,27,-1
 10 853 l 1,28,29
 90 837 90 837 170 830 c 1,30,-1
 170 1210 l 2,31,32
 170 1360 170 1360 140 1510 c 1,33,-1
 726 1510 l 2,34,35
 1128 1510 1128 1510 1349 1295 c 0,36,37
 1589 1063 1589 1063 1589 755 c 0,38,39
 1589 442 1589 442 1347 211 c 0,40,41
 1126 0 1126 0 726 0 c 2,42,-1
 140 0 l 1,22,23
EndSplineSet
Validated: 1
EndChar

StartChar: Dcroat
Encoding: 272 272 175
Width: 1649
Flags: W
HStem: 0 175<483.125 936.841> 691 134<480 880.471> 1335 175<484.307 937.808>
VStem: 170 310<178.125 686 830 1331.88> 1243 346<512.438 1000.69>
LayerCount: 2
Fore
SplineSet
488 175 m 1,0,-1
 726 175 l 2,1,2
 964 175 964 175 1105 348 c 0,3,4
 1243 520 1243 520 1243 755.5 c 128,-1,5
 1243 991 1243 991 1105 1162 c 0,6,7
 966 1335 966 1335 726 1335 c 2,8,-1
 490 1335 l 1,9,10
 480 1272 480 1272 480 1210 c 2,11,-1
 480 825 l 1,12,-1
 605 825 l 2,13,14
 741 825 741 825 885 853 c 1,15,-1
 885 663 l 1,16,17
 740 691 740 691 605 691 c 2,18,-1
 480 691 l 1,19,-1
 480 300 l 2,20,21
 480 230 480 230 488 175 c 1,0,-1
140 0 m 1,22,23
 170 150 170 150 170 300 c 2,24,-1
 170 686 l 1,25,26
 91 679 91 679 10 663 c 1,27,-1
 10 853 l 1,28,29
 90 837 90 837 170 830 c 1,30,-1
 170 1210 l 2,31,32
 170 1360 170 1360 140 1510 c 1,33,-1
 726 1510 l 2,34,35
 1128 1510 1128 1510 1349 1295 c 0,36,37
 1589 1063 1589 1063 1589 755 c 0,38,39
 1589 442 1589 442 1347 211 c 0,40,41
 1126 0 1126 0 726 0 c 2,42,-1
 140 0 l 1,22,23
EndSplineSet
Validated: 1
EndChar

StartChar: Hbar
Encoding: 294 294 176
Width: 1611
Flags: W
HStem: 0 21G<140 510 1100 1469> 671 175<480 1130> 1242 134<489 1121> 1490 20G<140 510 1100 1469>
VStem: 170 310<4.6875 671 846 1237> 1130 309<4.6875 671 846 1237>
LayerCount: 2
Fore
SplineSet
140 0 m 1,0,1
 170 149 170 149 170 300 c 2,2,-1
 170 1237 l 17,3,4
 91 1230 91 1230 10 1214 c 1,5,-1
 10 1404 l 1,6,7
 85 1389 85 1389 160 1382 c 1,8,9
 153 1446 153 1446 140 1510 c 1,10,-1
 510 1510 l 1,11,12
 497 1443 497 1443 489 1376 c 1,13,-1
 1121 1376 l 1,14,15
 1114 1443 1114 1443 1100 1510 c 1,16,-1
 1469 1510 l 1,17,18
 1456 1446 1456 1446 1449 1382 c 1,19,20
 1524 1389 1524 1389 1601 1404 c 1,21,-1
 1601 1214 l 1,22,23
 1519 1230 1519 1230 1439 1237 c 1,24,-1
 1439 300 l 2,25,26
 1439 150 1439 150 1469 0 c 1,27,-1
 1100 0 l 1,28,29
 1130 150 1130 150 1130 300 c 2,30,-1
 1130 671 l 1,31,-1
 480 671 l 1,32,-1
 480 300 l 2,33,34
 480 150 480 150 510 0 c 1,35,-1
 140 0 l 1,0,1
1130 846 m 1,36,-1
 1130 1242 l 1,37,-1
 480 1242 l 9,38,-1
 480 846 l 1,39,-1
 1130 846 l 1,36,-1
EndSplineSet
Validated: 1
EndChar

StartChar: Lslash
Encoding: 321 321 177
Width: 1073
Flags: W
HStem: 0 174<489.689 1058.56> 1100 20G<637 698> 1490 20G<130 515>
VStem: 160 325<178.125 401 540.478 697 887 1505.31>
DStem2: 485 887 595 807 0.707107 0.707107<0 296.722>
LayerCount: 2
Fore
SplineSet
130 0 m 1,0,1
 160 150 160 150 160 300 c 2,2,-1
 160 401 l 1,3,-1
 59 501 l 1,4,5
 112 536 112 536 160 575 c 1,6,-1
 160 1210 l 2,7,8
 160 1360 160 1360 130 1510 c 1,9,-1
 515 1510 l 1,10,11
 485 1361 485 1361 485 1210 c 2,12,-1
 485 887 l 1,13,-1
 500 902 l 2,14,15
 596 998 596 998 678 1120 c 1,16,-1
 812 986 l 1,17,18
 701 913 701 913 595 807 c 2,19,-1
 485 697 l 1,20,-1
 485 364 l 2,21,22
 485 266 485 266 493 174 c 1,23,-1
 763 174 l 2,24,25
 921 174 921 174 1063 204 c 1,26,-1
 1063 0 l 1,27,-1
 130 0 l 1,0,1
EndSplineSet
Validated: 1
EndChar

StartChar: Eng
Encoding: 330 330 178
Width: 1600
Flags: W
HStem: -430 10<840 848.682> 0 21G<130 500> 1329 201<644.733 952.637> 1537 20G<387 479.5>
VStem: 160 310<4.71826 1135.31> 1120 320<-190.135 1138.37>
LayerCount: 2
Fore
SplineSet
130 0 m 1,0,1
 160 151 160 151 160 300 c 2,2,-1
 160 1192 l 2,3,4
 160 1327 160 1327 132 1487 c 1,5,-1
 489 1557 l 1,6,7
 470 1447 470 1447 468 1353 c 1,8,9
 612 1530 612 1530 885 1530 c 0,10,11
 1157 1530 1157 1530 1309 1347 c 0,12,13
 1440 1188 1440 1188 1440 861 c 2,14,-1
 1440 14 l 2,15,16
 1440 -429 1440 -429 840 -430 c 1,17,-1
 840 -420 l 1,18,19
 1120 -343 1120 -343 1120 14 c 2,20,-1
 1120 855 l 2,21,22
 1120 1083 1120 1083 1054 1183 c 0,23,24
 959 1329 959 1329 797 1329 c 0,25,26
 641 1329 641 1329 548 1198 c 0,27,28
 470 1088 470 1088 470 855 c 2,29,-1
 470 298 l 2,30,31
 470 144 470 144 500 0 c 1,32,-1
 130 0 l 1,0,1
EndSplineSet
Validated: 1
EndChar

StartChar: OE
Encoding: 338 338 179
Width: 2068
Flags: W
HStem: -20 175<700.309 1069.09> 0 175<1433.28 2003.56> 672 175<1430 1883.31> 1337 173<1434.1 1883.31> 1355 175<699.318 1068.41>
VStem: 60 345<492.064 1015.63> 1118 312<201.991 672 847 1308.01>
LayerCount: 2
Fore
SplineSet
2008 1 m 1,0,-1
 1092 0 l 1,1,2
 994 -20 994 -20 883 -20 c 0,3,4
 527 -20 527 -20 302 191 c 0,5,6
 60 418 60 418 60 755 c 0,7,8
 60 1083 60 1083 300 1315 c 0,9,10
 521 1530 521 1530 883 1530 c 0,11,12
 993 1530 993 1530 1091 1510 c 1,13,-1
 1888 1511 l 1,14,-1
 1888 1307 l 1,15,16
 1738 1337 1738 1337 1588 1337 c 2,17,-1
 1440 1337 l 1,18,19
 1430 1276 1430 1276 1430 1211 c 2,20,-1
 1430 847 l 1,21,-1
 1588 847 l 2,22,23
 1738 847 1738 847 1888 877 c 1,24,-1
 1888 642 l 1,25,26
 1738 672 1738 672 1588 672 c 2,27,-1
 1430 672 l 1,28,-1
 1430 301 l 2,29,30
 1430 236 1430 236 1438 175 c 1,31,-1
 1708 175 l 2,32,33
 1866 175 1866 175 2008 205 c 1,34,-1
 2008 1 l 1,0,-1
1118 1281 m 1,35,36
 1013 1355 1013 1355 883 1355 c 0,37,38
 683 1355 683 1355 543 1182 c 0,39,40
 405 1012 405 1012 405 755 c 0,41,42
 405 499 405 499 543 328 c 0,43,44
 682 155 682 155 883 155 c 0,45,46
 1014 155 1014 155 1118 229 c 1,47,-1
 1118 1281 l 1,35,36
EndSplineSet
Validated: 1
EndChar

StartChar: Tbar
Encoding: 358 358 180
Width: 1200
Flags: W
HStem: 0 21G<415 785> 677 136<213.718 445 755 986.22> 1336 174<14.8105 440.896 759.104 1185.4>
VStem: 445 310<4.6875 677 813 1334.06>
LayerCount: 2
Fore
SplineSet
415 0 m 1,0,1
 445 150 445 150 445 300 c 2,2,-1
 445 677 l 1,3,4
 329 673 329 673 210 650 c 1,5,-1
 210 840 l 1,6,7
 328 817 328 817 445 813 c 1,8,-1
 445 1210 l 2,9,10
 445 1274 445 1274 435 1336 c 1,11,-1
 310 1336 l 2,12,13
 164 1336 164 1336 10 1306 c 1,14,-1
 10 1510 l 1,15,-1
 1190 1510 l 1,16,-1
 1190 1306 l 1,17,18
 1043 1336 1043 1336 890 1336 c 2,19,-1
 765 1336 l 1,20,21
 755 1274 755 1274 755 1210 c 2,22,-1
 755 813 l 1,23,24
 870 817 870 817 990 840 c 1,25,-1
 990 650 l 1,26,27
 869 673 869 673 755 677 c 1,28,-1
 755 300 l 2,29,30
 755 150 755 150 785 0 c 1,31,-1
 415 0 l 1,0,1
EndSplineSet
Validated: 1
EndChar

StartChar: ae
Encoding: 230 230 181
Width: 2009
Flags: W
HStem: -20 154<449.98 699.216 1259.17 1625.63> 473 156<1090 1606> 624 153<449.397 698.957> 968 152<336.852 675.662 1229.71 1492.05>
VStem: 40 320<229.783 529.23> 184 10<759 771.578>
LayerCount: 2
Fore
SplineSet
553 -20 m 0,0,1
 324 -20 324 -20 181 93 c 0,2,3
 40 206 40 206 40 380 c 0,4,5
 40 553 40 553 186 667 c 0,6,7
 327 777 327 777 549 777 c 0,8,9
 676 777 676 777 782 738 c 1,10,11
 771 807 771 807 743 853 c 0,12,13
 672 968 672 968 511 968 c 128,-1,14
 350 968 350 968 247 850 c 0,15,16
 212 810 212 810 194 759 c 1,17,-1
 184 759 l 1,18,-1
 184 1003 l 1,19,20
 361 1120 361 1120 596 1120 c 0,21,22
 832 1120 832 1120 970 988 c 1,23,24
 1139 1120 1139 1120 1365 1120 c 0,25,26
 1673 1120 1673 1120 1828 921 c 0,27,28
 1949 767 1949 767 1949 526 c 1,29,-1
 1899 473 l 1,30,-1
 1090 473 l 1,31,32
 1104 327 1104 327 1174 246 c 0,33,34
 1271 134 1271 134 1439 134 c 0,35,36
 1622 134 1622 134 1738 266 c 0,37,38
 1802 339 1802 339 1842 400 c 1,39,-1
 1852 400 l 1,40,-1
 1852 142 l 1,41,42
 1658 -19 1658 -19 1408 -19 c 0,43,44
 1146 -19 1146 -19 988 97 c 0,45,46
 973 108 973 108 957 119 c 1,47,48
 783 -20 783 -20 553 -20 c 0,0,1
1090 629 m 1,49,-1
 1606 629 l 1,50,51
 1596 775 1596 775 1556 846 c 0,52,53
 1488 967 1488 967 1365 967 c 0,54,55
 1240 967 1240 967 1162 853 c 0,56,57
 1101 763 1101 763 1090 629 c 1,49,-1
788 380 m 0,58,59
 788 476 788 476 728 550 c 0,60,61
 669 624 669 624 574 624 c 0,62,63
 480 624 480 624 419 550 c 0,64,65
 360 478 360 478 360 380 c 128,-1,66
 360 282 360 282 420 208 c 0,67,68
 479 134 479 134 573 134 c 128,-1,69
 667 134 667 134 733 209 c 0,70,71
 788 272 788 272 788 380 c 0,58,59
EndSplineSet
Validated: 1
EndChar

StartChar: dcroat
Encoding: 273 273 182
Width: 1398
Flags: W
HStem: -20 153<555.037 835.217> 0 21G<905 1256> 967 153<554.568 837.225> 1242 134<611.437 923> 1541 20G<1155 1246.5>
VStem: 60 330<323.81 775.773> 933 295<239.789 864.867 1037 1237>
LayerCount: 2
Fore
SplineSet
1256 0 m 1,0,-1
 905 0 l 1,1,2
 917 28 917 28 921 61 c 1,3,4
 814 -20 814 -20 636 -20 c 0,5,6
 394 -20 394 -20 228 136 c 0,7,8
 60 294 60 294 60 550 c 128,-1,9
 60 806 60 806 228 964 c 0,10,11
 394 1120 394 1120 636 1120 c 0,12,13
 817 1120 817 1120 933 1037 c 1,14,-1
 933 1195 l 2,15,16
 933 1219 933 1219 932 1242 c 1,17,-1
 887 1242 l 2,18,19
 749 1242 749 1242 607 1214 c 1,20,-1
 607 1404 l 1,21,22
 748 1376 748 1376 887 1376 c 2,23,-1
 923 1376 l 1,24,25
 916 1435 916 1435 905 1491 c 1,26,-1
 1255 1561 l 1,27,28
 1238 1477 1238 1477 1232 1382 c 1,29,30
 1309 1389 1309 1389 1388 1404 c 1,31,-1
 1388 1214 l 1,32,33
 1306 1230 1306 1230 1228 1237 c 1,34,-1
 1228 294 l 2,35,36
 1228 150 1228 150 1256 0 c 1,0,-1
704 133 m 0,37,38
 819 133 819 133 883 230 c 0,39,40
 933 304 933 304 933 404 c 2,41,-1
 933 696 l 2,42,43
 933 802 933 802 883 874 c 0,44,45
 818 967 818 967 704 967 c 0,46,47
 570 967 570 967 481 852 c 0,48,49
 390 735 390 735 390 550 c 0,50,51
 390 363 390 363 481 248 c 128,-1,52
 572 133 572 133 704 133 c 0,37,38
EndSplineSet
Validated: 19457
EndChar

StartChar: longs
Encoding: 383 383 183
Width: 1000
Flags: W
HStem: 0 21G<262 613> 754 158<14.5288 290> 1395 135<667.363 913.77>
VStem: 290 295<4.7168 754 912 1306.06> 980 10<1246 1255.17>
LayerCount: 2
Fore
SplineSet
262 0 m 1,0,1
 290 150 290 150 290 294 c 2,2,-1
 290 754 l 1,3,4
 155 754 155 754 10 726 c 1,5,-1
 10 940 l 1,6,7
 154 912 154 912 290 912 c 1,8,-1
 290 1064 l 2,9,10
 290 1310 290 1310 399 1414 c 0,11,12
 519 1530 519 1530 763 1530 c 0,13,14
 896 1530 896 1530 990 1511 c 1,15,-1
 990 1246 l 1,16,-1
 980 1246 l 1,17,18
 925 1395 925 1395 789 1395 c 0,19,20
 705 1395 705 1395 652 1338 c 0,21,22
 585 1267 585 1267 585 1095 c 2,23,-1
 585 294 l 2,24,25
 585 151 585 151 613 0 c 1,26,-1
 262 0 l 1,0,1
EndSplineSet
Validated: 1
EndChar

StartChar: florin
Encoding: 402 402 184
Width: 950
Flags: W
HStem: -430 10<50 55.5811> 754 158<82.2798 230 525 810.471> 1395 135<607.363 853.77>
VStem: 230 295<-235.212 754 912 1306.06> 920 10<1246 1255.17>
LayerCount: 2
Fore
SplineSet
50 -430 m 1,0,-1
 50 -420 l 1,1,2
 230 -337 230 -337 230 -36 c 2,3,-1
 230 754 l 1,4,-1
 220 754 l 2,5,6
 153 754 153 754 80 728 c 1,7,-1
 80 938 l 1,8,9
 153 912 153 912 220 912 c 2,10,-1
 230 912 l 1,11,-1
 230 1064 l 2,12,13
 230 1310 230 1310 339 1414 c 0,14,15
 459 1530 459 1530 703 1530 c 0,16,17
 836 1530 836 1530 930 1511 c 1,18,-1
 930 1246 l 1,19,-1
 920 1246 l 1,20,21
 865 1395 865 1395 729 1395 c 0,22,23
 645 1395 645 1395 592 1338 c 0,24,25
 525 1267 525 1267 525 1095 c 2,26,-1
 525 912 l 1,27,-1
 535 912 l 2,28,29
 671 912 671 912 815 940 c 1,30,-1
 815 726 l 1,31,32
 670 754 670 754 535 754 c 2,33,-1
 525 754 l 1,34,-1
 525 -36 l 2,35,36
 525 -430 525 -430 50 -430 c 1,0,-1
EndSplineSet
Validated: 1
EndChar

StartChar: hbar
Encoding: 295 295 185
Width: 1401
Flags: W
HStem: 0 21G<152 503 913 1269> 955 165<594.94 839.019> 1242 134<479 796.471> 1541 20G<402 493.5>
VStem: 180 295<4.68604 845.094 989 1237> 941 300<4.7168 844.972>
LayerCount: 2
Fore
SplineSet
152 0 m 1,0,1
 180 147 180 147 180 294 c 2,2,-1
 180 1195 l 2,3,4
 180 1216 180 1216 179 1237 c 1,5,6
 121 1233 121 1233 40 1214 c 1,7,-1
 40 1404 l 1,8,9
 112 1386 112 1386 168 1382 c 1,10,11
 162 1436 162 1436 152 1491 c 1,12,-1
 502 1561 l 1,13,14
 485 1466 485 1466 479 1376 c 1,15,-1
 521 1376 l 2,16,17
 657 1376 657 1376 801 1404 c 1,18,-1
 801 1214 l 1,19,20
 656 1242 656 1242 521 1242 c 2,21,-1
 475 1242 l 1,22,-1
 475 989 l 1,23,24
 603 1120 603 1120 804 1120 c 0,25,26
 1065 1120 1065 1120 1173 937 c 0,27,28
 1241 821 1241 821 1241 638 c 2,29,-1
 1241 294 l 2,30,31
 1241 151 1241 151 1269 0 c 1,32,-1
 913 0 l 1,33,34
 941 151 941 151 941 294 c 2,35,-1
 941 634 l 2,36,37
 941 789 941 789 886 864 c 0,38,39
 818 955 818 955 709 955 c 0,40,41
 599 955 599 955 533 866 c 0,42,43
 475 787 475 787 475 634 c 2,44,-1
 475 294 l 2,45,46
 475 150 475 150 503 0 c 1,47,-1
 152 0 l 1,0,1
EndSplineSet
Validated: 19457
EndChar

StartChar: lslash
Encoding: 322 322 186
Width: 783
Flags: W
HStem: 0 21G<216 567> 1100 20G<611.5 654> 1541 20G<466 552.5>
VStem: 244 295<4.68604 492 690 795 993 1486.19>
LayerCount: 2
Fore
SplineSet
216 0 m 1,0,1
 244 147 244 147 244 294 c 2,2,-1
 244 492 l 1,3,4
 197 435 197 435 150 367 c 1,5,-1
 15 501 l 1,6,7
 135 581 135 581 233 679 c 2,8,-1
 244 690 l 1,9,-1
 244 1195 l 2,10,11
 244 1337 244 1337 216 1491 c 1,12,-1
 566 1561 l 1,13,14
 539 1409 539 1409 539 1269 c 2,15,-1
 539 993 l 1,16,17
 589 1053 589 1053 634 1120 c 1,18,-1
 768 986 l 1,19,20
 657 913 657 913 551 807 c 2,21,-1
 539 795 l 1,22,-1
 539 294 l 2,23,24
 539 150 539 150 567 0 c 1,25,-1
 216 0 l 1,0,1
EndSplineSet
Validated: 19457
EndChar

StartChar: eng
Encoding: 331 331 187
Width: 1381
Flags: W
HStem: -430 10<641 649.682> 0 21G<132 483> 955 165<576.491 820.748>
VStem: 160 295<4.68604 841.875> 921 300<-190.158 846.206>
LayerCount: 2
Fore
SplineSet
132 0 m 1,0,1
 160 147 160 147 160 294 c 2,2,-1
 160 786 l 2,3,4
 160 921 160 921 132 1081 c 1,5,-1
 482 1151 l 1,6,7
 465 1071 465 1071 461 995 c 1,8,9
 583 1120 583 1120 804 1120 c 0,10,11
 1054 1120 1054 1120 1160 941 c 0,12,13
 1221 839 1221 839 1221 638 c 2,14,-1
 1221 14 l 2,15,16
 1221 -429 1221 -429 641 -430 c 1,17,-1
 641 -420 l 1,18,19
 921 -343 921 -343 921 14 c 2,20,-1
 921 634 l 2,21,22
 921 789 921 789 866 864 c 0,23,24
 798 955 798 955 689 955 c 0,25,26
 579 955 579 955 513 866 c 0,27,28
 455 787 455 787 455 634 c 2,29,-1
 455 294 l 2,30,31
 455 150 455 150 483 0 c 1,32,-1
 132 0 l 1,0,1
EndSplineSet
Validated: 1
EndChar

StartChar: eth
Encoding: 240 240 188
Width: 1368
Flags: W
HStem: -20 155<545.274 825.966> 965 155<543.063 786.593> 1110 21G<462.849 534> 1490 20G<484 822 1017.5 1075.26>
VStem: 60 330<324.057 775.565> 978 330<325.501 776.422>
LayerCount: 2
Fore
SplineSet
683 135 m 0,0,1
 811 135 811 135 897 248 c 0,2,3
 978 354 978 354 978 550 c 0,4,5
 978 749 978 749 892 857 c 128,-1,6
 806 965 806 965 682.5 965 c 128,-1,7
 559 965 559 965 471 852 c 0,8,9
 390 748 390 748 390 550 c 128,-1,10
 390 352 390 352 476 243 c 0,11,12
 562 135 562 135 683 135 c 0,0,1
683 -20 m 128,-1,14
 418 -20 418 -20 238 142 c 0,15,16
 60 302 60 302 60 550 c 0,17,18
 60 800 60 800 240 960 c 0,19,20
 421 1120 421 1120 673 1120 c 0,21,22
 739 1120 739 1120 788 1100 c 1,23,-1
 710 1227 l 1,24,25
 598 1184 598 1184 470 1110 c 1,26,-1
 406 1289 l 1,27,28
 530 1309 530 1309 636 1344 c 1,29,30
 575 1433 575 1433 484 1510 c 1,31,-1
 818 1510 l 1,32,33
 826 1464 826 1464 845 1419 c 1,34,35
 967 1466 967 1466 1068 1530 c 1,36,-1
 1133 1351 l 1,37,38
 1019 1334 1019 1334 915 1301 c 1,39,-1
 1191 910 l 2,40,41
 1308 745 1308 745 1308 550 c 0,42,43
 1308 302 1308 302 1128 141 c 128,-1,13
 948 -20 948 -20 683 -20 c 128,-1,14
EndSplineSet
Validated: 1
EndChar

StartChar: oe
Encoding: 339 339 189
Width: 2227
Flags: W
HStem: -20 155<545.274 823.517 1474.62 1853.48> 473 156<1308 1824> 965 155<542.012 822.235 1443.26 1711.46>
VStem: 60 330<324.057 775.565>
LayerCount: 2
Fore
SplineSet
683 135 m 0,0,1
 811 135 811 135 897 248 c 0,2,3
 978 354 978 354 978 550 c 0,4,5
 978 749 978 749 892 857 c 128,-1,6
 806 965 806 965 682.5 965 c 128,-1,7
 559 965 559 965 471 852 c 0,8,9
 390 748 390 748 390 550 c 128,-1,10
 390 352 390 352 476 243 c 0,11,12
 562 135 562 135 683 135 c 0,0,1
683 -20 m 0,13,14
 418 -20 418 -20 238 142 c 0,15,16
 60 302 60 302 60 550 c 0,17,18
 60 800 60 800 240 960 c 0,19,20
 421 1120 421 1120 683 1120 c 0,21,22
 970 1120 970 1120 1139 951 c 1,23,24
 1308 1120 1308 1120 1583 1120 c 0,25,26
 1891 1120 1891 1120 2046 921 c 0,27,28
 2167 767 2167 767 2167 526 c 1,29,-1
 2117 473 l 1,30,-1
 1308 473 l 1,31,32
 1322 327 1322 327 1392 246 c 0,33,34
 1488 134 1488 134 1664 134 c 0,35,36
 1846 134 1846 134 1962 265 c 0,37,38
 2027 338 2027 338 2067 399 c 1,39,-1
 2077 399 l 1,40,-1
 2077 141 l 1,41,42
 1882 -20 1882 -20 1633 -20 c 0,43,44
 1325 -20 1325 -20 1138 150 c 1,45,46
 953 -20 953 -20 683 -20 c 0,13,14
1308 629 m 1,47,-1
 1824 629 l 1,48,49
 1814 775 1814 775 1774 846 c 0,50,51
 1706 967 1706 967 1583 967 c 0,52,53
 1458 967 1458 967 1380 853 c 0,54,55
 1319 763 1319 763 1308 629 c 1,47,-1
EndSplineSet
Validated: 1
EndChar

StartChar: tbar
Encoding: 359 359 190
Width: 895
Flags: W
HStem: 0 21G<272 623> 508 136<61.812 300 595 834.095> 913 159<14.4365 300 595 880.471> 1080 20G<10 80.5 813 885> 1530 20G<469.826 608.5>
VStem: 300 295<4.68604 508 644 913 1072 1500.14>
LayerCount: 2
Fore
SplineSet
272 0 m 1,0,1
 300 149 300 149 300 294 c 2,2,-1
 300 508 l 1,3,4
 180 505 180 505 58 481 c 1,5,-1
 58 671 l 1,6,7
 180 647 180 647 300 644 c 1,8,-1
 300 913 l 1,9,-1
 290 913 l 2,10,11
 152 913 152 913 10 885 c 1,12,-1
 10 1100 l 1,13,14
 151 1072 151 1072 290 1072 c 2,15,-1
 300 1072 l 1,16,-1
 300 1208 l 2,17,18
 300 1381 300 1381 272 1504 c 1,19,-1
 622 1550 l 1,20,21
 595 1395 595 1395 595 1259 c 2,22,-1
 595 1072 l 1,23,-1
 605 1072 l 2,24,25
 741 1072 741 1072 885 1100 c 1,26,-1
 885 885 l 1,27,28
 740 913 740 913 605 913 c 2,29,-1
 595 913 l 1,30,-1
 595 644 l 1,31,32
 714 647 714 647 838 671 c 1,33,-1
 838 481 l 1,34,35
 713 505 713 505 595 508 c 1,36,-1
 595 294 l 2,37,38
 595 150 595 150 623 0 c 1,39,-1
 272 0 l 1,0,1
EndSplineSet
Validated: 1
EndChar

StartChar: thorn
Encoding: 254 254 191
Width: 1388
Flags: W
HStem: -410 21G<132 483> -20 153<552.725 832.963> 967 153<550.775 833.432> 1541 20G<382 468.5>
VStem: 160 295<-405.314 71 239.352 864.867 1037 1486.19> 998 330<323.81 775.773>
LayerCount: 2
Fore
SplineSet
752 -20 m 0,0,1
 573 -20 573 -20 455 71 c 1,2,-1
 455 -116 l 2,3,4
 455 -263 455 -263 483 -410 c 1,5,-1
 132 -410 l 1,6,7
 160 -260 160 -260 160 -116 c 2,8,-1
 160 1195 l 2,9,10
 160 1337 160 1337 132 1491 c 1,11,-1
 482 1561 l 1,12,13
 455 1430 455 1430 455 1269 c 2,14,-1
 455 1037 l 1,15,16
 571 1120 571 1120 752 1120 c 0,17,18
 994 1120 994 1120 1160 964 c 0,19,20
 1328 806 1328 806 1328 550 c 128,-1,21
 1328 294 1328 294 1160 136 c 0,22,23
 994 -20 994 -20 752 -20 c 0,0,1
684 133 m 0,24,25
 816 133 816 133 907 248 c 128,-1,26
 998 363 998 363 998 550 c 0,27,28
 998 735 998 735 907 852 c 0,29,30
 818 967 818 967 684 967 c 0,31,32
 570 967 570 967 505 874 c 0,33,34
 455 802 455 802 455 696 c 2,35,-1
 455 404 l 2,36,37
 455 304 455 304 505 230 c 0,38,39
 571 133 571 133 684 133 c 0,24,25
EndSplineSet
Validated: 1
EndChar

StartChar: Thorn
Encoding: 222 222 192
Width: 1212
Flags: W
HStem: 0 21G<130 500> 297 176<470 712.486> 1049 174<470 706.394> 1490 20G<130 500>
VStem: 160 310<4.6875 297 473 1049 1223 1505.31> 833 319<591.218 929.438>
LayerCount: 2
Fore
SplineSet
130 0 m 1,0,1
 160 150 160 150 160 300 c 2,2,-1
 160 1210 l 2,3,4
 160 1360 160 1360 130 1510 c 1,5,-1
 500 1510 l 1,6,7
 471 1366 471 1366 470 1223 c 1,8,-1
 571 1223 l 2,9,10
 841 1223 841 1223 997 1097 c 0,11,12
 1152 972 1152 972 1152 759.5 c 128,-1,13
 1152 547 1152 547 995 422 c 128,-1,14
 838 297 838 297 571 297 c 2,15,-1
 470 297 l 1,16,17
 470 149 470 149 500 0 c 1,18,-1
 130 0 l 1,0,1
470 473 m 1,19,-1
 551 473 l 2,20,21
 682 473 682 473 755 549 c 0,22,23
 833 629 833 629 833 759 c 0,24,25
 833 896 833 896 753 972 c 0,26,27
 673 1049 673 1049 551 1049 c 2,28,-1
 470 1049 l 1,29,-1
 470 473 l 1,19,-1
EndSplineSet
Validated: 1
EndChar

StartChar: germandbls
Encoding: 223 223 193
Width: 1253
Flags: W
HStem: 0 138<581 730.933> 763 143<597 684.544> 1396 134<503.814 705.383>
VStem: 162 295<4.7168 1328.78> 760 304<1005.68 1339.05> 872 321<281.15 637.239>
LayerCount: 2
Fore
SplineSet
132 0 m 1,0,1
 162 145 162 145 162 294 c 2,2,-1
 162 1109 l 2,3,4
 162 1330 162 1330 289 1430 c 128,-1,5
 416 1530 416 1530 617 1530 c 0,6,7
 814 1530 814 1530 939 1432 c 128,-1,8
 1064 1334 1064 1334 1064 1171.5 c 128,-1,9
 1064 1009 1064 1009 923 898 c 0,10,11
 896 877 896 877 858 857 c 1,12,13
 956 834 956 834 1023 787 c 0,14,15
 1193 668 1193 668 1193 463 c 128,-1,16
 1193 258 1193 258 1022 129 c 0,17,18
 852 0 852 0 581 0 c 1,19,-1
 581 138 l 1,20,21
 704 138 704 138 793 234 c 0,22,23
 872 319 872 319 872 461 c 0,24,25
 872 602 872 602 792 682 c 128,-1,26
 712 762 712 762 597 763 c 1,27,-1
 597 906 l 17,28,29
 658 918 658 918 709 974 c 128,-1,30
 760 1030 760 1030 760 1156 c 0,31,32
 760 1287 760 1287 714 1342 c 0,33,34
 669 1396 669 1396 603 1396 c 0,35,36
 541 1396 541 1396 498 1345 c 24,37,38
 457 1295 457 1295 457 1159 c 2,39,-1
 457 294 l 2,40,41
 457 151 457 151 487 0 c 1,42,-1
 132 0 l 1,0,1
EndSplineSet
Validated: 1
EndChar

StartChar: afii61352
Encoding: 8470 8470 194
Width: 2259
Flags: W
HStem: 0 21G<130 432 1075 1440 1538 1613 2123 2198> 30 132<1542.69 2193.24> 260 97<1788.13 1949.06> 769 98<1786.46 1947.71> 1490 20G<130 498 1138 1440>
VStem: 160 242<4.6875 990> 1168 242<532 1505.07> 1537 204<408.579 721.75> 1995 204<407.378 719.125>
DStem2: 617 1252 402 990 0.602787 -0.797902<79.4512 906.625>
LayerCount: 2
Fore
SplineSet
1538 192 m 1,0,1
 1688 162 1688 162 1868 162 c 0,2,3
 2046 162 2046 162 2198 192 c 1,4,-1
 2198 0 l 1,5,6
 2048 30 2048 30 1868 30 c 128,-1,7
 1688 30 1688 30 1538 0 c 1,8,-1
 1538 192 l 1,0,1
1870 867 m 0,9,10
 2013 867 2013 867 2107 780 c 0,11,12
 2199 694 2199 694 2199 563 c 0,13,14
 2199 429 2199 429 2106 344 c 0,15,16
 2013 260 2013 260 1867 260 c 0,17,18
 1720 260 1720 260 1630 344 c 0,19,20
 1537 430 1537 430 1537 563.5 c 128,-1,21
 1537 697 1537 697 1630 782 c 128,-1,22
 1723 867 1723 867 1870 867 c 0,9,10
1867.5 769 m 128,-1,24
 1822 769 1822 769 1783 721 c 24,25,26
 1741 669 1741 669 1741 563 c 0,27,28
 1741 461 1741 461 1781 410 c 0,29,30
 1822 357 1822 357 1868.5 357 c 128,-1,31
 1915 357 1915 357 1954 408 c 24,32,33
 1995 462 1995 462 1995 566 c 0,34,35
 1995 667 1995 667 1954 718 c 128,-1,23
 1913 769 1913 769 1867.5 769 c 128,-1,24
130 0 m 1,36,37
 160 150 160 150 160 300 c 2,38,-1
 160 1210 l 2,39,40
 160 1360 160 1360 130 1510 c 1,41,-1
 460 1510 l 1,42,43
 536 1358 536 1358 617 1252 c 2,44,-1
 1168 532 l 1,45,-1
 1168 1210 l 2,46,47
 1168 1352 1168 1352 1138 1510 c 1,48,-1
 1440 1510 l 1,49,50
 1410 1360 1410 1360 1410 1210 c 2,51,-1
 1410 300 l 2,52,53
 1410 150 1410 150 1440 0 c 1,54,-1
 1112 0 l 1,55,56
 1038 148 1038 148 955 258 c 2,57,-1
 402 990 l 1,58,-1
 402 300 l 2,59,60
 402 150 402 150 432 0 c 1,61,-1
 130 0 l 1,36,37
EndSplineSet
Validated: 1
EndChar

StartChar: uni2117
Encoding: 8471 8471 195
Width: 1321
Flags: W
HStem: 386 73<474.363 838.202> 857 127<627 714.966> 1245 128<627.083 712.905> 1453 77<476.855 844.866>
VStem: 110 74<768.815 1151.31> 427 200<555.244 857 984 1244.09> 747 210<1013.81 1214.38> 1136 75<757.376 1158.43>
LayerCount: 2
Fore
SplineSet
661 1530 m 0,0,1
 903 1530 903 1530 1059 1357 c 0,2,3
 1211 1188 1211 1188 1211 953 c 0,4,5
 1211 701 1211 701 1050 549 c 0,6,7
 879 386 879 386 659 386 c 0,8,9
 436 386 436 386 271 549 c 0,10,11
 110 708 110 708 110 953 c 0,12,13
 110 1197 110 1197 268 1362 c 0,14,15
 429 1530 429 1530 661 1530 c 0,0,1
659 1453 m 0,16,17
 469 1453 469 1453 327 1312 c 0,18,19
 184 1170 184 1170 184 953 c 0,20,21
 184 760 184 760 324 605 c 0,22,23
 455 459 455 459 661 459 c 0,24,25
 852 459 852 459 997 605 c 0,26,27
 1136 745 1136 745 1136 953 c 0,28,29
 1136 1174 1136 1174 999 1309 c 0,30,31
 853 1453 853 1453 659 1453 c 0,16,17
405 552 m 1,32,33
 427 656 427 656 427 735 c 2,34,-1
 427 1190 l 2,35,36
 427 1270 427 1270 405 1373 c 1,37,-1
 637 1373 l 2,38,39
 790 1373 790 1373 874 1299 c 0,40,41
 957 1226 957 1226 957 1104 c 0,42,43
 957 1002 957 1002 872 933 c 0,44,45
 778 857 778 857 639 857 c 2,46,-1
 627 857 l 1,47,-1
 627 734 l 2,48,49
 627 655 627 655 649 552 c 1,50,-1
 405 552 l 1,32,33
627 984 m 1,51,-1
 637 984 l 2,52,53
 683 984 683 984 716 1019 c 0,54,55
 747 1052 747 1052 747 1114.5 c 128,-1,56
 747 1177 747 1177 714 1210 c 0,57,58
 679 1245 679 1245 637 1245 c 2,59,-1
 629 1245 l 1,60,61
 627 1216 627 1216 627 1190 c 2,62,-1
 627 984 l 1,51,-1
EndSplineSet
Validated: 1
EndChar

StartChar: integral
Encoding: 8747 8747 196
Width: 1125
Flags: W
HStem: -430 135<86.2296 332.637> 1395 135<792.363 1038.77>
VStem: 10 10<-155.167 -146> 415 295<-206.064 1306.06> 1105 10<1246 1255.17>
CounterMasks: 1 38
LayerCount: 2
Fore
SplineSet
10 -411 m 1,0,-1
 10 -146 l 1,1,-1
 20 -146 l 1,2,3
 75 -295 75 -295 211 -295 c 0,4,5
 295 -295 295 -295 348 -238 c 0,6,7
 415 -167 415 -167 415 5 c 2,8,-1
 415 1064 l 2,9,10
 415 1310 415 1310 524 1414 c 0,11,12
 644 1530 644 1530 888 1530 c 0,13,14
 1021 1530 1021 1530 1115 1511 c 1,15,-1
 1115 1246 l 1,16,-1
 1105 1246 l 1,17,18
 1050 1395 1050 1395 914 1395 c 0,19,20
 830 1395 830 1395 777 1338 c 0,21,22
 710 1267 710 1267 710 1095 c 2,23,-1
 710 36 l 2,24,25
 710 -210 710 -210 601 -314 c 0,26,27
 481 -430 481 -430 237 -430 c 0,28,29
 104 -430 104 -430 10 -411 c 1,0,-1
EndSplineSet
Validated: 1
EndChar

StartChar: caron
Encoding: 711 711 197
Width: 713
Flags: W
HStem: 1180 350<213.796 296.82 416.139 502.942>
VStem: 20 673
LayerCount: 2
Fore
SplineSet
20 1530 m 1,0,-1
 273 1530 l 1,1,2
 336 1425 336 1425 356 1291 c 1,3,4
 377 1427 377 1427 440 1530 c 1,5,-1
 693 1530 l 1,6,-1
 693 1520 l 1,7,8
 575 1413 575 1413 486 1180 c 1,9,-1
 227 1180 l 1,10,11
 160 1395 160 1395 20 1520 c 1,12,-1
 20 1530 l 1,0,-1
EndSplineSet
Validated: 1
EndChar

StartChar: circumflex
Encoding: 710 710 198
Width: 713
Flags: W
HStem: 1180 350<210.058 296.861 416.18 499.204>
VStem: 20 673
LayerCount: 2
Fore
SplineSet
227 1530 m 1,0,-1
 486 1530 l 1,1,2
 553 1315 553 1315 693 1190 c 1,3,-1
 693 1180 l 1,4,-1
 440 1180 l 1,5,6
 377 1285 377 1285 357 1419 c 1,7,8
 336 1283 336 1283 273 1180 c 1,9,-1
 20 1180 l 1,10,-1
 20 1190 l 1,11,12
 138 1297 138 1297 227 1530 c 1,0,-1
EndSplineSet
Validated: 1
EndChar

StartChar: uni02C9
Encoding: 713 713 199
Width: 700
Flags: W
HStem: 1281 167<24.6948 675.244>
VStem: 20 660
LayerCount: 2
Fore
SplineSet
20 1478 m 1,0,1
 170 1448 170 1448 350 1448 c 0,2,3
 528 1448 528 1448 680 1478 c 1,4,-1
 680 1251 l 1,5,6
 530 1281 530 1281 350 1281 c 128,-1,7
 170 1281 170 1281 20 1251 c 1,8,-1
 20 1478 l 1,0,1
EndSplineSet
Validated: 1
EndChar

StartChar: dotaccent
Encoding: 729 729 200
Width: 404
Flags: W
HStem: 1217 370<83.1396 320.86>
VStem: 20 364<1279.58 1524.42>
LayerCount: 2
Fore
SplineSet
202 1587 m 128,-1,1
 278 1587 278 1587 331 1533 c 128,-1,2
 384 1479 384 1479 384 1402 c 128,-1,3
 384 1325 384 1325 331 1271 c 128,-1,4
 278 1217 278 1217 202 1217 c 128,-1,5
 126 1217 126 1217 73 1271 c 128,-1,6
 20 1325 20 1325 20 1402 c 128,-1,7
 20 1479 20 1479 73 1533 c 128,-1,0
 126 1587 126 1587 202 1587 c 128,-1,1
EndSplineSet
Validated: 1
EndChar

StartChar: ring
Encoding: 730 730 201
Width: 480
Flags: W
HStem: 1136 129<161.189 311.284> 1451 129<168.5 310.839>
VStem: 20 128<1278.22 1430.61> 332 128<1285.8 1430.38>
LayerCount: 2
Fore
SplineSet
240 1265 m 256,0,1
 279 1265 279 1265 305 1292 c 0,2,3
 332 1321 332 1321 332 1358 c 0,4,5
 332 1397 332 1397 305 1424 c 128,-1,6
 278 1451 278 1451 241 1451 c 0,7,8
 201 1451 201 1451 175 1424 c 0,9,10
 148 1396 148 1396 148 1358 c 0,11,12
 148 1319 148 1319 175 1292 c 0,13,14
 201 1265 201 1265 240 1265 c 256,0,1
242 1580 m 0,15,16
 331 1580 331 1580 395 1515 c 0,17,18
 460 1448 460 1448 460 1359 c 0,19,20
 460 1267 460 1267 395 1202 c 0,21,22
 329 1136 329 1136 240 1136 c 256,23,24
 151 1136 151 1136 85 1202 c 0,25,26
 20 1267 20 1267 20 1359 c 0,27,28
 20 1449 20 1449 85 1515 c 0,29,30
 149 1580 149 1580 242 1580 c 0,15,16
EndSplineSet
Validated: 1
EndChar

StartChar: breve
Encoding: 728 728 202
Width: 700
Flags: W
HStem: 1194 184<178.191 518.815> 1530 20G<20 99 598.5 680>
VStem: 20 660<1263.06 1378>
LayerCount: 2
Fore
SplineSet
20 1550 m 1,0,-1
 30 1550 l 1,1,2
 168 1378 168 1378 350 1378 c 0,3,4
 527 1378 527 1378 670 1550 c 1,5,-1
 680 1550 l 1,6,-1
 680 1291 l 1,7,8
 544 1194 544 1194 350 1194 c 0,9,10
 149 1194 149 1194 20 1291 c 1,11,-1
 20 1550 l 1,0,-1
EndSplineSet
Validated: 1
EndChar

StartChar: hungarumlaut
Encoding: 733 733 203
Width: 839
Flags: W
HStem: 1180 350<177 267.811 523 613.811>
LayerCount: 2
Fore
SplineSet
523 1530 m 1,0,-1
 819 1530 l 1,1,-1
 819 1520 l 1,2,3
 732 1314 732 1314 563 1180 c 1,4,-1
 366 1180 l 1,5,-1
 366 1190 l 1,6,7
 523 1346 523 1346 523 1530 c 1,0,-1
177 1530 m 1,8,-1
 473 1530 l 1,9,-1
 473 1520 l 1,10,11
 386 1314 386 1314 217 1180 c 1,12,-1
 20 1180 l 1,13,-1
 20 1190 l 1,14,15
 177 1346 177 1346 177 1530 c 1,8,-1
EndSplineSet
Validated: 1
EndChar

StartChar: tilde
Encoding: 732 732 204
Width: 700
Flags: W
HStem: 1208 180<425.195 630.04> 1368 180<69.1499 271.539> 1498 20G<653 680>
VStem: 20 8<1238 1249.9> 670 10<1502.26 1518>
DStem2: 338 1488 360 1266 0.83697 -0.547249<-79.7206 220.202>
LayerCount: 2
Fore
SplineSet
20 1494 m 1,0,1
 72 1548 72 1548 177 1548 c 0,2,3
 243 1548 243 1548 338 1488 c 2,4,-1
 442 1422 l 2,5,6
 496 1388 496 1388 537 1388 c 256,7,8
 636 1388 636 1388 670 1518 c 1,9,-1
 680 1518 l 1,10,-1
 680 1262 l 1,11,12
 626 1208 626 1208 523 1208 c 0,13,14
 449 1208 449 1208 360 1266 c 2,15,-1
 256 1334 l 2,16,17
 204 1368 204 1368 163 1368 c 256,18,19
 64 1368 64 1368 28 1238 c 1,20,-1
 20 1238 l 1,21,-1
 20 1494 l 1,0,1
EndSplineSet
Validated: 1
EndChar

StartChar: ogonek
Encoding: 731 731 205
Width: 436
Flags: W
HStem: -486 189<291.573 416>
VStem: 20 251<-277.291 -102.324>
LayerCount: 2
Fore
SplineSet
286 121 m 1,0,1
 380 0 l 1,2,3
 271 -100 271 -100 271 -211 c 0,4,5
 271 -297 271 -297 416 -297 c 1,6,-1
 416 -486 l 1,7,8
 20 -486 20 -486 20 -254 c 0,9,10
 20 -67 20 -67 286 121 c 1,0,1
EndSplineSet
Validated: 1
EndChar

StartChar: uni1E9E
Encoding: 7838 7838 206
Width: 1410
Flags: W
HStem: -20 154<737.611 991.709> 0 21G<132 491> 1360 170<608.634 903.916>
VStem: 167 290<4.65601 1172.8> 579 281<912.436 1102.81> 609 10<358.203 374> 1064 286<209.888 464.966>
DStem2: 977 848 800 640 0.818066 -0.575125<-163.625 311.947>
LayerCount: 2
Fore
SplineSet
132 0 m 1,0,1
 167 149 167 149 167 296 c 2,2,-1
 167 861 l 2,3,4
 167 1184 167 1184 303 1344 c 0,5,6
 460 1530 460 1530 757 1530 c 0,7,8
 1090 1530 1090 1530 1262 1181 c 1,9,10
 1081 1181 1081 1181 979 1144 c 0,11,12
 860 1101 860 1101 860 1014 c 0,13,14
 860 930 860 930 977 848 c 2,15,-1
 1142 732 l 2,16,17
 1350 586 1350 586 1350 394 c 0,18,19
 1350 203 1350 203 1200 83 c 0,20,21
 1072 -20 1072 -20 876 -20 c 0,22,23
 716 -20 716 -20 609 50 c 1,24,-1
 609 374 l 1,25,-1
 619 374 l 1,26,27
 644 289 644 289 698 220 c 0,28,29
 764 134 764 134 861 134 c 128,-1,30
 958 134 958 134 1014 201 c 0,31,32
 1064 262 1064 262 1064 336 c 0,33,34
 1064 454 1064 454 939 542 c 2,35,-1
 800 640 l 2,36,37
 579 796 579 796 579 965 c 0,38,39
 579 1139 579 1139 728 1233 c 0,40,41
 806 1282 806 1282 929 1296 c 1,42,43
 856 1360 856 1360 772 1360 c 0,44,45
 620 1360 620 1360 535 1249 c 0,46,47
 458 1152 458 1152 458 906 c 2,48,-1
 457 297 l 2,49,50
 457 149 457 149 491 0 c 1,51,-1
 132 0 l 1,0,1
EndSplineSet
Validated: 1
EndChar

StartChar: uni203D
Encoding: 8253 8253 207
Width: 1234
Flags: W
HStem: -20 370<421.14 658.86> 1354 176<343.526 682.926>
VStem: 358 364<42.5779 287.422> 398 220<777 1226> 419 236<449 549.298> 794 330<918.811 1239.52>
LayerCount: 2
Fore
SplineSet
592 1530 m 0,0,1
 848 1530 848 1530 986 1403 c 0,2,3
 1124 1277 1124 1277 1124 1093 c 0,4,5
 1124 840 1124 840 850 672 c 0,6,7
 655 552 655 552 655 449 c 1,8,-1
 419 449 l 1,9,-1
 398 1226 l 1,10,-1
 618 1226 l 1,11,-1
 605 777 l 1,12,13
 627 796 627 796 652 815 c 0,14,15
 794 920 794 920 794 1070 c 0,16,17
 794 1201 794 1201 722 1277 c 0,18,19
 648 1354 648 1354 526 1354 c 0,20,21
 343 1354 343 1354 226 1215 c 0,22,23
 165 1142 165 1142 120 1054 c 1,24,-1
 110 1054 l 1,25,-1
 110 1395 l 1,26,27
 326 1530 326 1530 592 1530 c 0,0,1
540 -20 m 128,-1,29
 464 -20 464 -20 411 34 c 128,-1,30
 358 88 358 88 358 165 c 128,-1,31
 358 242 358 242 411 296 c 128,-1,32
 464 350 464 350 540 350 c 128,-1,33
 616 350 616 350 669 296 c 128,-1,34
 722 242 722 242 722 165 c 128,-1,35
 722 88 722 88 669 34 c 128,-1,28
 616 -20 616 -20 540 -20 c 128,-1,29
EndSplineSet
Validated: 1
EndChar

StartChar: minus
Encoding: 8722 8722 208
Width: 1173
Flags: W
HStem: 642 204<114.688 1058.25>
LayerCount: 2
Fore
SplineSet
110 876 m 1,0,1
 260 846 260 846 410 846 c 2,2,-1
 763 846 l 2,3,4
 911 846 911 846 1063 876 c 1,5,-1
 1063 612 l 1,6,7
 912 642 912 642 763 642 c 2,8,-1
 410 642 l 2,9,10
 260 642 260 642 110 612 c 1,11,-1
 110 876 l 1,0,1
EndSplineSet
Validated: 1
EndChar

StartChar: kgreenlandic
Encoding: 312 312 209
Width: 1341
Flags: W
HStem: 0 21G<132 483 820.5 1336> 1080 20G<782 1183>
VStem: 160 295<4.68604 425 694 1076.19>
DStem2: 455 694 660 615 0.719519 0.694473<92.6381 540.155> 660 615 455 425 0.72325 -0.690587<0 563.709>
LayerCount: 2
Fore
SplineSet
132 0 m 1,0,1
 160 147 160 147 160 294 c 2,2,-1
 160 785 l 2,3,4
 160 927 160 927 132 1081 c 1,5,-1
 482 1151 l 1,6,7
 455 999 455 999 455 859 c 2,8,-1
 455 694 l 1,9,-1
 633 867 l 2,10,11
 744 975 744 975 820 1100 c 1,12,-1
 1183 1100 l 1,13,14
 1063 1004 1063 1004 976 920 c 2,15,-1
 660 615 l 1,16,-1
 1125 171 l 2,17,18
 1224 76 1224 76 1336 0 c 1,19,-1
 858 0 l 1,20,21
 783 116 783 116 664 228 c 2,22,-1
 455 425 l 1,23,-1
 455 294 l 2,24,25
 455 150 455 150 483 0 c 1,26,-1
 132 0 l 1,0,1
EndSplineSet
Validated: 1
EndChar

StartChar: Agrave
Encoding: 192 192 210
Width: 1720
Flags: W
HStem: 0 21G<5 344.5 1297.5 1715> 571 165<635 1009> 1490 20G<683 1037>
DStem2: 159 259 559 571 0.418402 0.908262<-160.401 450.739 632.4 1081> 1116 1225 819 1149 0.418402 -0.908262<-52.834 399.371 581.033 1191.87>
LayerCount: 2
Fore
SplineSet
5 0 m 1,0,1
 98 127 98 127 159 259 c 2,2,-1
 604 1225 l 2,3,4
 662 1351 662 1351 704 1510 c 1,5,-1
 1016 1510 l 1,6,7
 1058 1351 1058 1351 1116 1225 c 2,8,-1
 1561 259 l 2,9,10
 1617 137 1617 137 1715 0 c 1,11,-1
 1317 0 l 1,12,13
 1278 153 1278 153 1217 285 c 2,14,-1
 1085 571 l 1,15,-1
 559 571 l 1,16,-1
 427 285 l 2,17,18
 362 144 362 144 327 0 c 1,19,-1
 5 0 l 1,0,1
819 1149 m 1,20,-1
 635 736 l 1,21,-1
 1009 736 l 1,22,-1
 819 1149 l 1,20,-1
504 1970 m 1,23,-1
 800 1970 l 1,24,25
 800 1786 800 1786 957 1630 c 1,26,-1
 957 1620 l 1,27,-1
 760 1620 l 1,28,29
 591 1754 591 1754 504 1960 c 1,30,-1
 504 1970 l 1,23,-1
EndSplineSet
Validated: 1
EndChar

StartChar: Aacute
Encoding: 193 193 211
Width: 1720
Flags: W
HStem: 0 21G<5 344.5 1297.5 1715> 571 165<635 1009> 1490 20G<683 1037>
DStem2: 159 259 559 571 0.425693 0.904868<-158.304 452.596 634.252 1085.35> 1116 1225 819 1149 0.418402 -0.908262<-52.834 399.371 581.033 1191.87>
LayerCount: 2
Fore
SplineSet
5 0 m 1,0,1
 98 127 98 127 159 259 c 2,2,-1
 604 1225 l 2,3,4
 662 1351 662 1351 704 1510 c 1,5,-1
 1016 1510 l 1,6,7
 1058 1351 1058 1351 1116 1225 c 2,8,-1
 1561 259 l 2,9,10
 1617 137 1617 137 1715 0 c 1,11,-1
 1317 0 l 1,12,13
 1278 153 1278 153 1217 285 c 2,14,-1
 1085 571 l 1,15,-1
 559 571 l 1,16,-1
 427 285 l 2,17,18
 362 144 362 144 327 0 c 1,19,-1
 5 0 l 1,0,1
819 1149 m 1,20,-1
 635 736 l 1,21,-1
 1009 736 l 1,22,-1
 819 1149 l 1,20,-1
1215 1970 m 1,23,-1
 1215 1960 l 1,24,25
 1128 1754 1128 1754 959 1620 c 1,26,-1
 762 1620 l 1,27,-1
 762 1630 l 1,28,29
 919 1786 919 1786 919 1970 c 1,30,-1
 1215 1970 l 1,23,-1
EndSplineSet
Validated: 1
EndChar

StartChar: Acircumflex
Encoding: 194 194 212
Width: 1720
Flags: W
HStem: 0 21G<5 344.5 1297.5 1715> 571 165<635 1009> 1490 20G<683 1037>
DStem2: 159 259 559 571 0.418402 0.908262<-160.401 450.739 632.4 1081> 1116 1225 819 1149 0.418402 -0.908262<-52.834 399.371 581.033 1191.87>
LayerCount: 2
Fore
SplineSet
5 0 m 1,0,1
 98 127 98 127 159 259 c 2,2,-1
 604 1225 l 2,3,4
 662 1351 662 1351 704 1510 c 1,5,-1
 1016 1510 l 1,6,7
 1058 1351 1058 1351 1116 1225 c 2,8,-1
 1561 259 l 2,9,10
 1617 137 1617 137 1715 0 c 1,11,-1
 1317 0 l 1,12,13
 1278 153 1278 153 1217 285 c 2,14,-1
 1085 571 l 1,15,-1
 559 571 l 1,16,-1
 427 285 l 2,17,18
 362 144 362 144 327 0 c 1,19,-1
 5 0 l 1,0,1
819 1149 m 1,20,-1
 635 736 l 1,21,-1
 1009 736 l 1,22,-1
 819 1149 l 1,20,-1
737 1970 m 1,23,-1
 996 1970 l 1,24,25
 1063 1755 1063 1755 1203 1630 c 1,26,-1
 1203 1620 l 1,27,-1
 950 1620 l 1,28,29
 887 1725 887 1725 867 1859 c 1,30,31
 846 1723 846 1723 783 1620 c 1,32,-1
 530 1620 l 1,33,-1
 530 1630 l 1,34,35
 648 1737 648 1737 737 1970 c 1,23,-1
EndSplineSet
Validated: 1
EndChar

StartChar: Atilde
Encoding: 195 195 213
Width: 1720
Flags: W
HStem: 0 21G<5 344.5 1297.5 1715> 571 165<635 1009> 1490 20G<683 1037> 1625 180<942.195 1147.04> 1785 180<586.15 788.539>
VStem: 537 8<1655 1666.9> 1187 10<1919.26 1935>
DStem2: 159 259 559 571 0.418402 0.908262<-160.401 450.739 632.4 1081> 1116 1225 819 1149 0.418402 -0.908262<-52.834 399.371 581.033 1191.87> 855 1905 877 1683 0.83697 -0.547249<-79.7206 220.202>
LayerCount: 2
Fore
SplineSet
5 0 m 1,0,1
 98 127 98 127 159 259 c 2,2,-1
 604 1225 l 2,3,4
 662 1351 662 1351 704 1510 c 1,5,-1
 1016 1510 l 1,6,7
 1058 1351 1058 1351 1116 1225 c 2,8,-1
 1561 259 l 2,9,10
 1617 137 1617 137 1715 0 c 1,11,-1
 1317 0 l 1,12,13
 1278 153 1278 153 1217 285 c 2,14,-1
 1085 571 l 1,15,-1
 559 571 l 1,16,-1
 427 285 l 2,17,18
 362 144 362 144 327 0 c 1,19,-1
 5 0 l 1,0,1
819 1149 m 1,20,-1
 635 736 l 1,21,-1
 1009 736 l 1,22,-1
 819 1149 l 1,20,-1
537 1911 m 1,23,24
 589 1965 589 1965 694 1965 c 0,25,26
 760 1965 760 1965 855 1905 c 2,27,-1
 959 1839 l 2,28,29
 1013 1805 1013 1805 1054 1805 c 256,30,31
 1153 1805 1153 1805 1187 1935 c 1,32,-1
 1197 1935 l 1,33,-1
 1197 1679 l 1,34,35
 1143 1625 1143 1625 1040 1625 c 0,36,37
 966 1625 966 1625 877 1683 c 2,38,-1
 773 1751 l 2,39,40
 721 1785 721 1785 680 1785 c 256,41,42
 581 1785 581 1785 545 1655 c 1,43,-1
 537 1655 l 1,44,-1
 537 1911 l 1,23,24
EndSplineSet
Validated: 1
EndChar

StartChar: Adieresis
Encoding: 196 196 214
Width: 1720
Flags: W
HStem: 0 21G<5 344.5 1297.5 1715> 571 165<635 1009> 1490 20G<683 1037> 1638 314<582.411 799.589 930.411 1147.59>
VStem: 536 310<1684.93 1904.56> 884 310<1684.93 1904.56>
DStem2: 159 259 559 571 0.418402 0.908262<-160.401 450.739 632.4 1081> 1116 1225 819 1149 0.418402 -0.908262<-52.834 399.371 581.033 1191.87>
LayerCount: 2
Fore
SplineSet
5 0 m 1,0,1
 98 127 98 127 159 259 c 2,2,-1
 604 1225 l 2,3,4
 662 1351 662 1351 704 1510 c 1,5,-1
 1016 1510 l 1,6,7
 1058 1351 1058 1351 1116 1225 c 2,8,-1
 1561 259 l 2,9,10
 1617 137 1617 137 1715 0 c 1,11,-1
 1317 0 l 1,12,13
 1278 153 1278 153 1217 285 c 2,14,-1
 1085 571 l 1,15,-1
 559 571 l 1,16,-1
 427 285 l 2,17,18
 362 144 362 144 327 0 c 1,19,-1
 5 0 l 1,0,1
819 1149 m 1,20,-1
 635 736 l 1,21,-1
 1009 736 l 1,22,-1
 819 1149 l 1,20,-1
1039 1952 m 128,-1,24
 1104 1952 1104 1952 1149 1906 c 128,-1,25
 1194 1860 1194 1860 1194 1794.5 c 128,-1,26
 1194 1729 1194 1729 1149 1683.5 c 128,-1,27
 1104 1638 1104 1638 1039 1638 c 128,-1,28
 974 1638 974 1638 929 1683.5 c 128,-1,29
 884 1729 884 1729 884 1794.5 c 128,-1,30
 884 1860 884 1860 929 1906 c 128,-1,23
 974 1952 974 1952 1039 1952 c 128,-1,24
691 1952 m 128,-1,32
 756 1952 756 1952 801 1906 c 128,-1,33
 846 1860 846 1860 846 1794.5 c 128,-1,34
 846 1729 846 1729 801 1683.5 c 128,-1,35
 756 1638 756 1638 691 1638 c 128,-1,36
 626 1638 626 1638 581 1683.5 c 128,-1,37
 536 1729 536 1729 536 1794.5 c 128,-1,38
 536 1860 536 1860 581 1906 c 128,-1,31
 626 1952 626 1952 691 1952 c 128,-1,32
EndSplineSet
Validated: 1
EndChar

StartChar: Aring
Encoding: 197 197 215
Width: 1720
Flags: W
HStem: 0 21G<5 344.5 1297.5 1715> 571 165<635 1009> 1490 20G<683 1037> 1546 129<784.189 934.284> 1861 129<791.5 933.839>
VStem: 643 128<1688.22 1840.61> 955 128<1695.8 1840.38>
DStem2: 159 259 559 571 0.418402 0.908262<-160.401 450.739 632.4 1081> 1116 1225 819 1149 0.418402 -0.908262<-52.834 399.371 581.033 1191.87>
LayerCount: 2
Fore
SplineSet
5 0 m 1,0,1
 98 127 98 127 159 259 c 2,2,-1
 604 1225 l 2,3,4
 662 1351 662 1351 704 1510 c 1,5,-1
 1016 1510 l 1,6,7
 1058 1351 1058 1351 1116 1225 c 2,8,-1
 1561 259 l 2,9,10
 1617 137 1617 137 1715 0 c 1,11,-1
 1317 0 l 1,12,13
 1278 153 1278 153 1217 285 c 2,14,-1
 1085 571 l 1,15,-1
 559 571 l 1,16,-1
 427 285 l 2,17,18
 362 144 362 144 327 0 c 1,19,-1
 5 0 l 1,0,1
819 1149 m 1,20,-1
 635 736 l 1,21,-1
 1009 736 l 1,22,-1
 819 1149 l 1,20,-1
863 1675 m 256,23,24
 902 1675 902 1675 928 1702 c 0,25,26
 955 1731 955 1731 955 1768 c 0,27,28
 955 1807 955 1807 928 1834 c 128,-1,29
 901 1861 901 1861 864 1861 c 0,30,31
 824 1861 824 1861 798 1834 c 0,32,33
 771 1806 771 1806 771 1768 c 0,34,35
 771 1729 771 1729 798 1702 c 0,36,37
 824 1675 824 1675 863 1675 c 256,23,24
865 1990 m 0,38,39
 954 1990 954 1990 1018 1925 c 0,40,41
 1083 1858 1083 1858 1083 1769 c 0,42,43
 1083 1677 1083 1677 1018 1612 c 0,44,45
 952 1546 952 1546 863 1546 c 256,46,47
 774 1546 774 1546 708 1612 c 0,48,49
 643 1677 643 1677 643 1769 c 0,50,51
 643 1859 643 1859 708 1925 c 0,52,53
 772 1990 772 1990 865 1990 c 0,38,39
EndSplineSet
Validated: 1
EndChar

StartChar: Amacron
Encoding: 256 256 216
Width: 1720
Flags: W
HStem: 0 21G<5 344.5 1297.5 1715> 571 165<635 1009> 1490 20G<683 1037> 1711 167<536.695 1187.24>
DStem2: 159 259 559 571 0.418402 0.908262<-160.401 450.739 632.4 1081> 1116 1225 819 1149 0.418402 -0.908262<-52.834 399.371 581.033 1191.87>
LayerCount: 2
Fore
SplineSet
5 0 m 1,0,1
 98 127 98 127 159 259 c 2,2,-1
 604 1225 l 2,3,4
 662 1351 662 1351 704 1510 c 1,5,-1
 1016 1510 l 1,6,7
 1058 1351 1058 1351 1116 1225 c 2,8,-1
 1561 259 l 2,9,10
 1617 137 1617 137 1715 0 c 1,11,-1
 1317 0 l 1,12,13
 1278 153 1278 153 1217 285 c 2,14,-1
 1085 571 l 1,15,-1
 559 571 l 1,16,-1
 427 285 l 2,17,18
 362 144 362 144 327 0 c 1,19,-1
 5 0 l 1,0,1
819 1149 m 1,20,-1
 635 736 l 1,21,-1
 1009 736 l 1,22,-1
 819 1149 l 1,20,-1
532 1908 m 1,23,24
 682 1878 682 1878 862 1878 c 0,25,26
 1040 1878 1040 1878 1192 1908 c 1,27,-1
 1192 1681 l 1,28,29
 1042 1711 1042 1711 862 1711 c 128,-1,30
 682 1711 682 1711 532 1681 c 1,31,-1
 532 1908 l 1,23,24
EndSplineSet
Validated: 1
EndChar

StartChar: Abreve
Encoding: 258 258 217
Width: 1720
Flags: W
HStem: 0 21G<5 344.5 1297.5 1715> 571 165<635 1009> 1490 20G<683 1037> 1624 184<690.191 1030.82>
DStem2: 159 259 559 571 0.418402 0.908262<-160.401 450.739 632.4 1081> 1116 1225 819 1149 0.418402 -0.908262<-52.834 399.371 581.033 1191.87>
LayerCount: 2
Fore
SplineSet
5 0 m 1,0,1
 98 127 98 127 159 259 c 2,2,-1
 604 1225 l 2,3,4
 662 1351 662 1351 704 1510 c 1,5,-1
 1016 1510 l 1,6,7
 1058 1351 1058 1351 1116 1225 c 2,8,-1
 1561 259 l 2,9,10
 1617 137 1617 137 1715 0 c 1,11,-1
 1317 0 l 1,12,13
 1278 153 1278 153 1217 285 c 2,14,-1
 1085 571 l 1,15,-1
 559 571 l 1,16,-1
 427 285 l 2,17,18
 362 144 362 144 327 0 c 1,19,-1
 5 0 l 1,0,1
819 1149 m 1,20,-1
 635 736 l 1,21,-1
 1009 736 l 1,22,-1
 819 1149 l 1,20,-1
532 1980 m 1,23,-1
 542 1980 l 1,24,25
 680 1808 680 1808 862 1808 c 0,26,27
 1039 1808 1039 1808 1182 1980 c 1,28,-1
 1192 1980 l 1,29,-1
 1192 1721 l 1,30,31
 1056 1624 1056 1624 862 1624 c 0,32,33
 661 1624 661 1624 532 1721 c 1,34,-1
 532 1980 l 1,23,-1
EndSplineSet
Validated: 1
EndChar

StartChar: Aogonek
Encoding: 260 260 218
Width: 1720
Flags: W
HStem: -486 189<1545.57 1670> 0 21G<5 344.5> 571 165<635 1009> 1490 20G<683 1037>
VStem: 1274 251<-277.291 -102.969>
DStem2: 159 259 559 571 0.418402 0.908262<-160.401 450.739 632.4 1081> 1116 1225 819 1149 0.418402 -0.908262<-52.834 399.371 581.033 1191.87>
LayerCount: 2
Fore
SplineSet
819 1149 m 1,0,-1
 635 736 l 1,1,-1
 1009 736 l 1,2,-1
 819 1149 l 1,0,-1
5 0 m 1,3,4
 98 127 98 127 159 259 c 2,5,-1
 604 1225 l 2,6,7
 662 1351 662 1351 704 1510 c 1,8,-1
 1016 1510 l 1,9,10
 1058 1351 1058 1351 1116 1225 c 2,11,-1
 1561 259 l 2,12,13
 1617 137 1617 137 1715 0 c 1,14,-1
 1634 0 l 1,15,16
 1525 -100 1525 -100 1525 -211 c 0,17,18
 1525 -297 1525 -297 1670 -297 c 1,19,-1
 1670 -486 l 1,20,21
 1274 -486 1274 -486 1274 -254 c 0,22,23
 1274 -127 1274 -127 1396 0 c 1,24,-1
 1317 0 l 1,25,26
 1278 153 1278 153 1217 285 c 2,27,-1
 1085 571 l 1,28,-1
 559 571 l 1,29,-1
 427 285 l 2,30,31
 362 144 362 144 327 0 c 1,32,-1
 5 0 l 1,3,4
EndSplineSet
Validated: 1
EndChar

StartChar: Aringacute
Encoding: 506 506 219
Width: 1720
Flags: W
HStem: 0 21G<5 344.5 1297.5 1715> 571 165<635 1009> 1490 20G<683 1037> 1546 129<587.189 737.284> 1861 129<594.5 736.839>
VStem: 446 128<1688.22 1840.61> 758 128<1695.8 1840.38>
DStem2: 159 259 559 571 0.418402 0.908262<-160.401 450.739 632.4 1081> 1116 1225 819 1149 0.418402 -0.908262<-52.834 399.371 581.033 1191.87>
LayerCount: 2
Fore
SplineSet
5 0 m 1,0,1
 98 127 98 127 159 259 c 2,2,-1
 604 1225 l 2,3,4
 662 1351 662 1351 704 1510 c 1,5,-1
 1016 1510 l 1,6,7
 1058 1351 1058 1351 1116 1225 c 2,8,-1
 1561 259 l 2,9,10
 1617 137 1617 137 1715 0 c 1,11,-1
 1317 0 l 1,12,13
 1278 153 1278 153 1217 285 c 2,14,-1
 1085 571 l 1,15,-1
 559 571 l 1,16,-1
 427 285 l 2,17,18
 362 144 362 144 327 0 c 1,19,-1
 5 0 l 1,0,1
819 1149 m 1,20,-1
 635 736 l 1,21,-1
 1009 736 l 1,22,-1
 819 1149 l 1,20,-1
1317 1940 m 1,23,-1
 1317 1930 l 1,24,25
 1230 1724 1230 1724 1061 1590 c 1,26,-1
 864 1590 l 1,27,-1
 864 1600 l 1,28,29
 1021 1756 1021 1756 1021 1940 c 1,30,-1
 1317 1940 l 1,23,-1
666 1675 m 256,31,32
 705 1675 705 1675 731 1702 c 0,33,34
 758 1731 758 1731 758 1768 c 0,35,36
 758 1807 758 1807 731 1834 c 128,-1,37
 704 1861 704 1861 667 1861 c 0,38,39
 627 1861 627 1861 601 1834 c 0,40,41
 574 1806 574 1806 574 1768 c 0,42,43
 574 1729 574 1729 601 1702 c 0,44,45
 627 1675 627 1675 666 1675 c 256,31,32
668 1990 m 0,46,47
 757 1990 757 1990 821 1925 c 0,48,49
 886 1858 886 1858 886 1769 c 0,50,51
 886 1677 886 1677 821 1612 c 0,52,53
 755 1546 755 1546 666 1546 c 256,54,55
 577 1546 577 1546 511 1612 c 0,56,57
 446 1677 446 1677 446 1769 c 0,58,59
 446 1859 446 1859 511 1925 c 0,60,61
 575 1990 575 1990 668 1990 c 0,46,47
EndSplineSet
Validated: 1
EndChar

StartChar: Ccedilla
Encoding: 199 199 220
Width: 1565
Flags: W
HStem: -486 189<767 902.411> -17 172<729.357 838 1012 1156.47> 1355 175<732.762 1148.42>
VStem: 60 355<494.077 1016.49> 838 174<-90.5664 -13.6289> 913 225<-281.174 -162.321>
LayerCount: 2
Fore
SplineSet
838 -17 m 1,0,1
 511 6 511 6 299 194 c 0,2,3
 60 406 60 406 60 755 c 128,-1,4
 60 1104 60 1104 301 1319 c 0,5,6
 538 1530 538 1530 933 1530 c 0,7,8
 1250 1530 1250 1530 1485 1385 c 1,9,-1
 1485 1020 l 1,10,-1
 1474 1020 l 1,11,12
 1246 1355 1246 1355 932 1355 c 0,13,14
 709 1355 709 1355 551 1174 c 0,15,16
 415 1017 415 1017 415 755 c 128,-1,17
 415 493 415 493 550 338 c 0,18,19
 710 155 710 155 924 155 c 0,20,21
 1269 155 1269 155 1494 490 c 1,22,-1
 1505 490 l 1,23,-1
 1505 186 l 1,24,25
 1296 5 1296 5 1012 -17 c 1,26,-1
 1012 -67 l 1,27,28
 1138 -123 1138 -123 1138 -252 c 0,29,30
 1138 -486 1138 -486 767 -486 c 1,31,-1
 767 -297 l 1,32,33
 913 -297 913 -297 913 -224 c 0,34,35
 913 -168 913 -168 838 -153 c 1,36,-1
 838 -17 l 1,0,1
EndSplineSet
Validated: 1
EndChar

StartChar: Cacute
Encoding: 262 262 221
Width: 1565
Flags: W
HStem: -20 175<731.955 1154.1> 1355 175<732.762 1148.42>
VStem: 60 355<494.077 1016.49>
LayerCount: 2
Fore
SplineSet
933 -20 m 0,0,1
 539 -20 539 -20 299 194 c 0,2,3
 60 406 60 406 60 755 c 128,-1,4
 60 1104 60 1104 301 1319 c 0,5,6
 538 1530 538 1530 933 1530 c 0,7,8
 1250 1530 1250 1530 1485 1385 c 1,9,-1
 1485 1020 l 1,10,-1
 1474 1020 l 1,11,12
 1246 1355 1246 1355 932 1355 c 0,13,14
 709 1355 709 1355 551 1174 c 0,15,16
 415 1017 415 1017 415 755 c 128,-1,17
 415 493 415 493 550 338 c 0,18,19
 710 155 710 155 924 155 c 0,20,21
 1269 155 1269 155 1494 490 c 1,22,-1
 1505 490 l 1,23,-1
 1505 186 l 1,24,25
 1268 -20 1268 -20 933 -20 c 0,0,1
1274 1970 m 1,26,-1
 1274 1960 l 1,27,28
 1187 1754 1187 1754 1018 1620 c 1,29,-1
 821 1620 l 1,30,-1
 821 1630 l 1,31,32
 978 1786 978 1786 978 1970 c 1,33,-1
 1274 1970 l 1,26,-1
EndSplineSet
Validated: 1
EndChar

StartChar: Ccircumflex
Encoding: 264 264 222
Width: 1565
Flags: W
HStem: -20 175<731.955 1154.1> 1355 175<732.762 1148.42>
VStem: 60 355<494.077 1016.49>
LayerCount: 2
Fore
SplineSet
933 -20 m 0,0,1
 539 -20 539 -20 299 194 c 0,2,3
 60 406 60 406 60 755 c 128,-1,4
 60 1104 60 1104 301 1319 c 0,5,6
 538 1530 538 1530 933 1530 c 0,7,8
 1250 1530 1250 1530 1485 1385 c 1,9,-1
 1485 1020 l 1,10,-1
 1474 1020 l 1,11,12
 1246 1355 1246 1355 932 1355 c 0,13,14
 709 1355 709 1355 551 1174 c 0,15,16
 415 1017 415 1017 415 755 c 128,-1,17
 415 493 415 493 550 338 c 0,18,19
 710 155 710 155 924 155 c 0,20,21
 1269 155 1269 155 1494 490 c 1,22,-1
 1505 490 l 1,23,-1
 1505 186 l 1,24,25
 1268 -20 1268 -20 933 -20 c 0,0,1
800 1970 m 1,26,-1
 1059 1970 l 1,27,28
 1126 1755 1126 1755 1266 1630 c 1,29,-1
 1266 1620 l 1,30,-1
 1013 1620 l 1,31,32
 950 1725 950 1725 930 1859 c 1,33,34
 909 1723 909 1723 846 1620 c 1,35,-1
 593 1620 l 1,36,-1
 593 1630 l 1,37,38
 711 1737 711 1737 800 1970 c 1,26,-1
EndSplineSet
Validated: 1
EndChar

StartChar: Cdotaccent
Encoding: 266 266 223
Width: 1565
Flags: W
HStem: -20 175<731.955 1154.1> 1355 175<732.762 1148.42> 1610 370<814.14 1051.86>
VStem: 60 355<494.077 1016.49> 751 364<1672.58 1917.42>
LayerCount: 2
Fore
SplineSet
933 -20 m 0,0,1
 539 -20 539 -20 299 194 c 0,2,3
 60 406 60 406 60 755 c 128,-1,4
 60 1104 60 1104 301 1319 c 0,5,6
 538 1530 538 1530 933 1530 c 0,7,8
 1250 1530 1250 1530 1485 1385 c 1,9,-1
 1485 1020 l 1,10,-1
 1474 1020 l 1,11,12
 1246 1355 1246 1355 932 1355 c 0,13,14
 709 1355 709 1355 551 1174 c 0,15,16
 415 1017 415 1017 415 755 c 128,-1,17
 415 493 415 493 550 338 c 0,18,19
 710 155 710 155 924 155 c 0,20,21
 1269 155 1269 155 1494 490 c 1,22,-1
 1505 490 l 1,23,-1
 1505 186 l 1,24,25
 1268 -20 1268 -20 933 -20 c 0,0,1
933 1980 m 128,-1,27
 1009 1980 1009 1980 1062 1926 c 128,-1,28
 1115 1872 1115 1872 1115 1795 c 128,-1,29
 1115 1718 1115 1718 1062 1664 c 128,-1,30
 1009 1610 1009 1610 933 1610 c 128,-1,31
 857 1610 857 1610 804 1664 c 128,-1,32
 751 1718 751 1718 751 1795 c 128,-1,33
 751 1872 751 1872 804 1926 c 128,-1,26
 857 1980 857 1980 933 1980 c 128,-1,27
EndSplineSet
Validated: 1
EndChar

StartChar: Ccaron
Encoding: 268 268 224
Width: 1565
Flags: W
HStem: -20 175<731.955 1154.1> 1355 175<732.762 1148.42>
VStem: 60 355<494.077 1016.49>
LayerCount: 2
Fore
SplineSet
933 -20 m 0,0,1
 539 -20 539 -20 299 194 c 0,2,3
 60 406 60 406 60 755 c 128,-1,4
 60 1104 60 1104 301 1319 c 0,5,6
 538 1530 538 1530 933 1530 c 0,7,8
 1250 1530 1250 1530 1485 1385 c 1,9,-1
 1485 1020 l 1,10,-1
 1474 1020 l 1,11,12
 1246 1355 1246 1355 932 1355 c 0,13,14
 709 1355 709 1355 551 1174 c 0,15,16
 415 1017 415 1017 415 755 c 128,-1,17
 415 493 415 493 550 338 c 0,18,19
 710 155 710 155 924 155 c 0,20,21
 1269 155 1269 155 1494 490 c 1,22,-1
 1505 490 l 1,23,-1
 1505 186 l 1,24,25
 1268 -20 1268 -20 933 -20 c 0,0,1
593 1970 m 1,26,-1
 846 1970 l 1,27,28
 909 1865 909 1865 929 1731 c 1,29,30
 950 1867 950 1867 1013 1970 c 1,31,-1
 1266 1970 l 1,32,-1
 1266 1960 l 1,33,34
 1148 1853 1148 1853 1059 1620 c 1,35,-1
 800 1620 l 1,36,37
 733 1835 733 1835 593 1960 c 1,38,-1
 593 1970 l 1,26,-1
EndSplineSet
Validated: 1
EndChar

StartChar: Dcaron
Encoding: 270 270 225
Width: 1639
Flags: W
HStem: 0 175<473.125 926.841> 1335 175<474.307 927.808>
VStem: 160 310<178.125 1331.88> 1233 346<512.438 1000.69>
LayerCount: 2
Fore
SplineSet
380 1970 m 1,0,-1
 633 1970 l 1,1,2
 696 1865 696 1865 716 1731 c 1,3,4
 737 1867 737 1867 800 1970 c 1,5,-1
 1053 1970 l 1,6,-1
 1053 1960 l 1,7,8
 935 1853 935 1853 846 1620 c 1,9,-1
 587 1620 l 1,10,11
 520 1835 520 1835 380 1960 c 1,12,-1
 380 1970 l 1,0,-1
130 0 m 1,13,14
 160 150 160 150 160 300 c 2,15,-1
 160 1210 l 2,16,17
 160 1360 160 1360 130 1510 c 1,18,-1
 716 1510 l 2,19,20
 1118 1510 1118 1510 1339 1295 c 0,21,22
 1579 1063 1579 1063 1579 755 c 0,23,24
 1579 442 1579 442 1337 211 c 0,25,26
 1116 0 1116 0 716 0 c 2,27,-1
 130 0 l 1,13,14
478 175 m 1,28,-1
 716 175 l 2,29,30
 954 175 954 175 1095 348 c 0,31,32
 1233 520 1233 520 1233 755.5 c 128,-1,33
 1233 991 1233 991 1095 1162 c 0,34,35
 956 1335 956 1335 716 1335 c 2,36,-1
 480 1335 l 1,37,38
 470 1272 470 1272 470 1210 c 2,39,-1
 470 300 l 2,40,41
 470 230 470 230 478 175 c 1,28,-1
EndSplineSet
Validated: 1
EndChar

